G75*
G70*
%OFA0B0*%
%FSLAX24Y24*%
%IPPOS*%
%LPD*%
%AMOC8*
5,1,8,0,0,1.08239X$1,22.5*
%
%ADD10C,0.0100*%
%ADD11R,0.0473X0.0158*%
%ADD12R,0.0158X0.0473*%
%ADD13R,0.0631X0.0552*%
%ADD14C,0.0634*%
%ADD15R,0.0920X0.0520*%
%ADD16R,0.0906X0.1457*%
%ADD17OC8,0.0476*%
%ADD18C,0.0476*%
%ADD19R,0.0434X0.0591*%
%ADD20R,0.0552X0.0631*%
%ADD21R,0.0749X0.0749*%
%ADD22C,0.0749*%
%ADD23OC8,0.0670*%
%ADD24C,0.0670*%
%ADD25R,0.1103X0.0749*%
%ADD26C,0.0555*%
%ADD27R,0.0631X0.0355*%
D10*
X004627Y007324D02*
X024312Y007324D01*
X024312Y027009D01*
X004627Y027009D01*
X004627Y007324D01*
D11*
X012130Y014838D03*
X012130Y015038D03*
X012130Y015238D03*
X012130Y015438D03*
X012130Y015638D03*
X012130Y015838D03*
X012130Y016038D03*
X012130Y016238D03*
X012130Y016438D03*
X012130Y016638D03*
X012130Y016838D03*
X012130Y017038D03*
X015430Y017038D03*
X015430Y016838D03*
X015430Y016638D03*
X015430Y016438D03*
X015430Y016238D03*
X015430Y016038D03*
X015430Y015838D03*
X015430Y015638D03*
X015430Y015438D03*
X015430Y015238D03*
X015430Y015038D03*
X015430Y014838D03*
D12*
X014880Y014288D03*
X014680Y014288D03*
X014480Y014288D03*
X014280Y014288D03*
X014080Y014288D03*
X013880Y014288D03*
X013680Y014288D03*
X013480Y014288D03*
X013280Y014288D03*
X013080Y014288D03*
X012880Y014288D03*
X012680Y014288D03*
X012680Y017588D03*
X012880Y017588D03*
X013080Y017588D03*
X013280Y017588D03*
X013480Y017588D03*
X013680Y017588D03*
X013880Y017588D03*
X014080Y017588D03*
X014280Y017588D03*
X014480Y017588D03*
X014680Y017588D03*
X014880Y017588D03*
D13*
X016213Y017616D03*
X016213Y016868D03*
X017119Y016875D03*
X017119Y017623D03*
X013705Y013513D03*
X013705Y012765D03*
D14*
X015032Y012356D03*
X016032Y012356D03*
X017032Y012356D03*
D15*
X015458Y010766D03*
X015458Y009856D03*
X015458Y008946D03*
D16*
X017898Y009856D03*
D17*
X019942Y010116D03*
X013406Y010151D03*
D18*
X013406Y009537D03*
X019942Y009501D03*
D19*
X017288Y020474D03*
X016914Y021340D03*
X017662Y021340D03*
X015969Y021348D03*
X015221Y021348D03*
X015595Y020482D03*
X010178Y021348D03*
X009430Y021348D03*
X009804Y020482D03*
X008178Y021348D03*
X007430Y021348D03*
X007804Y020482D03*
D20*
X008178Y019415D03*
X007430Y019415D03*
X009312Y019407D03*
X010060Y019407D03*
X015221Y019458D03*
X015969Y019458D03*
X016894Y019458D03*
X017642Y019458D03*
X017670Y025001D03*
X016922Y025001D03*
X015851Y025009D03*
X015103Y025009D03*
X010174Y025139D03*
X009426Y025139D03*
X008430Y025139D03*
X007682Y025139D03*
D21*
X006619Y023005D03*
X013945Y023017D03*
X023071Y022682D03*
X022166Y009316D03*
D22*
X022166Y010316D03*
X023071Y023682D03*
X013945Y024017D03*
X006619Y024005D03*
D23*
X020575Y022979D03*
D24*
X020575Y024379D03*
D25*
X018816Y021147D03*
X018816Y019415D03*
X011379Y019494D03*
X011379Y021226D03*
D26*
X011414Y012383D03*
X012414Y012383D03*
X010414Y012383D03*
D27*
X010442Y022415D03*
X010442Y023017D03*
X010442Y023619D03*
X010442Y024222D03*
X007804Y024222D03*
X007804Y023619D03*
X007804Y023017D03*
X007804Y022415D03*
X015127Y022324D03*
X015127Y022927D03*
X015127Y023529D03*
X015127Y024131D03*
X017764Y024131D03*
X017764Y023529D03*
X017764Y022927D03*
X017764Y022324D03*
M02*
