%
M48
M72
T01C0.0236
T02C0.0240
T03C0.0315
T04C0.0320
T05C0.0394
T06C0.0472
%
T01
X13406Y10151
X13406Y9537
X19942Y10116
X19942Y9501
T02
X9430Y23230
X11162Y23427
X7382Y17285
X16556Y16064
X14312Y13348
X10099Y13466
X16044Y18348
X18406Y17954
X18406Y15592
X18406Y13623
X10926Y16379
X10926Y14411
X12107Y14017
X15257Y13623
X13682Y11655
X10926Y11261
X10926Y18348
X12501Y18348
X12894Y19923
X8957Y20316
X6595Y20316
X6595Y21891
X6595Y18348
X8957Y18348
X16438Y20316
X18406Y20316
X20375Y20316
X20375Y21891
X18406Y21891
X14469Y21891
X12894Y21891
X19430Y18387
X14745Y18230
X13209Y14962
X16871Y10159
X16871Y9686
X15257Y17639
X17107Y18230
X16871Y22954
X18445Y23545
T03
X12414Y12383
X11414Y12383
X10414Y12383
T04
X20575Y22979
X20575Y24379
T05
X15032Y12356
X16032Y12356
X17032Y12356
T06
X6619Y23005
X6619Y24005
X23071Y22682
X23071Y23682
X22166Y9316
X22166Y10316
X13945Y23017
X13945Y24017
M30
