G75*
G70*
%OFA0B0*%
%FSLAX24Y24*%
%IPPOS*%
%LPD*%
%AMOC8*
5,1,8,0,0,1.08239X$1,22.5*
%
%ADD10C,0.0100*%
%ADD11R,0.0433X0.0118*%
%ADD12R,0.0118X0.0433*%
%ADD13R,0.0591X0.0512*%
%ADD14C,0.0594*%
%ADD15R,0.0880X0.0480*%
%ADD16R,0.0866X0.1417*%
%ADD17OC8,0.0436*%
%ADD18C,0.0436*%
%ADD19R,0.0394X0.0551*%
%ADD20R,0.0512X0.0591*%
%ADD21R,0.0709X0.0709*%
%ADD22C,0.0709*%
%ADD23OC8,0.0630*%
%ADD24C,0.0630*%
%ADD25R,0.1063X0.0709*%
%ADD26C,0.0515*%
%ADD27R,0.0591X0.0315*%
%ADD28C,0.0360*%
%ADD29C,0.0210*%
%ADD30C,0.0300*%
%ADD31C,0.0240*%
D10*
X004627Y007324D02*
X024312Y007324D01*
X024312Y027009D01*
X004627Y027009D01*
X004627Y007324D01*
X005177Y007915D02*
X023682Y007915D01*
X023584Y007817D02*
X005276Y007817D01*
X005335Y007757D02*
X005060Y008033D01*
X005060Y022954D01*
X005138Y023033D01*
X006154Y023033D01*
X006154Y022605D01*
X006219Y022541D01*
X007019Y022541D01*
X007083Y022605D01*
X007083Y022787D01*
X007425Y022787D01*
X007463Y022750D01*
X008145Y022750D01*
X008209Y022814D01*
X008209Y023033D01*
X008915Y023033D01*
X008915Y023020D01*
X008470Y022575D01*
X008209Y022575D01*
X008209Y022618D01*
X008145Y022682D01*
X007463Y022682D01*
X007398Y022618D01*
X007398Y022212D01*
X007463Y022147D01*
X007644Y022147D01*
X007644Y021773D01*
X007478Y021773D01*
X007478Y021396D01*
X007381Y021396D01*
X007381Y021299D01*
X007478Y021299D01*
X007478Y020922D01*
X007644Y020922D01*
X007644Y020867D01*
X007561Y020867D01*
X007497Y020803D01*
X007497Y020161D01*
X007561Y020096D01*
X007684Y020096D01*
X007408Y019820D01*
X007128Y019820D01*
X007064Y019756D01*
X007064Y019074D01*
X007128Y019009D01*
X007262Y019009D01*
X007262Y017549D01*
X007218Y017531D01*
X007137Y017449D01*
X007092Y017343D01*
X007092Y017227D01*
X007137Y017121D01*
X007218Y017039D01*
X007325Y016995D01*
X007440Y016995D01*
X007547Y017039D01*
X007628Y017121D01*
X007672Y017227D01*
X007672Y017343D01*
X007628Y017449D01*
X007582Y017496D01*
X007582Y019009D01*
X007731Y019009D01*
X007783Y019061D01*
X007802Y019027D01*
X007830Y018999D01*
X007864Y018980D01*
X007902Y018969D01*
X008128Y018969D01*
X008128Y019365D01*
X008228Y019365D01*
X008228Y019465D01*
X008128Y019465D01*
X008128Y019851D01*
X008172Y019896D01*
X008338Y020061D01*
X008338Y020962D01*
X008420Y020962D01*
X008485Y021027D01*
X008485Y021188D01*
X008598Y021188D01*
X008692Y021282D01*
X009095Y021684D01*
X009093Y021681D01*
X009083Y021643D01*
X009083Y021396D01*
X009381Y021396D01*
X009381Y021299D01*
X009478Y021299D01*
X009478Y020922D01*
X009644Y020922D01*
X009644Y020867D01*
X009561Y020867D01*
X009497Y020803D01*
X009497Y020161D01*
X009561Y020096D01*
X010046Y020096D01*
X010111Y020161D01*
X010111Y020803D01*
X010046Y020867D01*
X009964Y020867D01*
X009964Y020962D01*
X010136Y020962D01*
X010136Y019812D01*
X009758Y019812D01*
X009707Y019761D01*
X009688Y019794D01*
X009660Y019822D01*
X009625Y019842D01*
X009587Y019852D01*
X009362Y019852D01*
X009362Y019457D01*
X009262Y019457D01*
X009262Y019852D01*
X009036Y019852D01*
X008998Y019842D01*
X008964Y019822D01*
X008936Y019794D01*
X008916Y019760D01*
X008906Y019722D01*
X008906Y019457D01*
X009262Y019457D01*
X009262Y019357D01*
X009362Y019357D01*
X009362Y018962D01*
X009587Y018962D01*
X009625Y018972D01*
X009660Y018992D01*
X009688Y019020D01*
X009707Y019053D01*
X009758Y019002D01*
X009939Y019002D01*
X009939Y013714D01*
X009935Y013712D01*
X009853Y013630D01*
X009809Y013524D01*
X009809Y013408D01*
X009853Y013302D01*
X009935Y013220D01*
X010041Y013176D01*
X010157Y013176D01*
X010263Y013220D01*
X010345Y013302D01*
X010389Y013408D01*
X010389Y013524D01*
X010345Y013630D01*
X010263Y013712D01*
X010259Y013714D01*
X010259Y019002D01*
X010361Y019002D01*
X010426Y019066D01*
X010426Y019629D01*
X010456Y019660D01*
X010456Y020998D01*
X010485Y021027D01*
X010485Y021428D01*
X010602Y021545D01*
X010602Y022147D01*
X010782Y022147D01*
X010847Y022212D01*
X010847Y022618D01*
X010782Y022682D01*
X010101Y022682D01*
X010036Y022618D01*
X010036Y022212D01*
X010101Y022147D01*
X010282Y022147D01*
X010282Y021733D01*
X009964Y021733D01*
X009964Y023033D01*
X010036Y023033D01*
X010036Y022814D01*
X010101Y022750D01*
X010782Y022750D01*
X010847Y022814D01*
X010847Y022857D01*
X011033Y022857D01*
X011219Y022671D01*
X011219Y021690D01*
X010801Y021690D01*
X010737Y021626D01*
X010737Y020826D01*
X010801Y020761D01*
X011956Y020761D01*
X012020Y020826D01*
X012020Y021066D01*
X014202Y021066D01*
X014309Y020959D01*
X014309Y018951D01*
X014740Y018520D01*
X014687Y018520D01*
X014580Y018476D01*
X014499Y018394D01*
X014455Y018287D01*
X014455Y018172D01*
X014499Y018065D01*
X014580Y017984D01*
X014687Y017940D01*
X014720Y017940D01*
X014720Y017915D01*
X013841Y017915D01*
X013831Y017925D01*
X013797Y017945D01*
X013759Y017955D01*
X013680Y017955D01*
X013601Y017955D01*
X013563Y017945D01*
X013529Y017925D01*
X013519Y017915D01*
X013441Y017915D01*
X013431Y017925D01*
X013397Y017945D01*
X013359Y017955D01*
X013280Y017955D01*
X013201Y017955D01*
X013163Y017945D01*
X013129Y017925D01*
X013119Y017915D01*
X012576Y017915D01*
X012511Y017850D01*
X012511Y017326D01*
X012520Y017317D01*
X012520Y017287D01*
X012513Y017287D01*
X012441Y017215D01*
X012439Y017217D01*
X012405Y017237D01*
X012366Y017247D01*
X012130Y017247D01*
X011894Y017247D01*
X011856Y017237D01*
X011821Y017217D01*
X011794Y017190D01*
X011774Y017155D01*
X011764Y017117D01*
X011764Y017038D01*
X011764Y016960D01*
X011774Y016921D01*
X011794Y016887D01*
X011804Y016877D01*
X011804Y015198D01*
X011684Y015198D01*
X011590Y015105D01*
X011254Y014768D01*
X011254Y012715D01*
X011206Y012695D01*
X011102Y012591D01*
X011047Y012456D01*
X011047Y012310D01*
X011102Y012175D01*
X011206Y012072D01*
X011341Y012016D01*
X011487Y012016D01*
X011622Y012072D01*
X011726Y012175D01*
X011781Y012310D01*
X011781Y012456D01*
X011726Y012591D01*
X011622Y012695D01*
X011574Y012715D01*
X011574Y014636D01*
X011804Y014866D01*
X011804Y014734D01*
X011868Y014669D01*
X012392Y014669D01*
X012457Y014734D01*
X012457Y014858D01*
X012616Y014699D01*
X012700Y014615D01*
X012576Y014615D01*
X012511Y014550D01*
X012511Y014026D01*
X012576Y013962D01*
X012720Y013962D01*
X012720Y012916D01*
X012535Y012731D01*
X012487Y012751D01*
X012341Y012751D01*
X012206Y012695D01*
X012102Y012591D01*
X012047Y012456D01*
X012047Y012310D01*
X012102Y012175D01*
X012206Y012072D01*
X012341Y012016D01*
X012487Y012016D01*
X012622Y012072D01*
X012726Y012175D01*
X012781Y012310D01*
X012781Y012456D01*
X012762Y012505D01*
X013040Y012783D01*
X013040Y013962D01*
X013520Y013962D01*
X013520Y013879D01*
X013364Y013879D01*
X013300Y013815D01*
X013300Y013212D01*
X013351Y013160D01*
X013318Y013141D01*
X013290Y013113D01*
X013270Y013079D01*
X013260Y013041D01*
X013260Y012815D01*
X013655Y012815D01*
X013655Y012715D01*
X013260Y012715D01*
X013260Y012490D01*
X013270Y012451D01*
X013290Y012417D01*
X013318Y012389D01*
X013352Y012369D01*
X013390Y012359D01*
X013655Y012359D01*
X013655Y012715D01*
X013755Y012715D01*
X013755Y012359D01*
X014020Y012359D01*
X014058Y012369D01*
X014093Y012389D01*
X014121Y012417D01*
X014140Y012451D01*
X014151Y012490D01*
X014151Y012715D01*
X013755Y012715D01*
X013755Y012815D01*
X014151Y012815D01*
X014151Y013041D01*
X014140Y013079D01*
X014121Y013113D01*
X014093Y013141D01*
X014059Y013160D01*
X014074Y013175D01*
X014147Y013102D01*
X014254Y013058D01*
X014369Y013058D01*
X014476Y013102D01*
X014557Y013184D01*
X014602Y013290D01*
X014602Y013304D01*
X014872Y013034D01*
X014872Y012730D01*
X014802Y012701D01*
X014687Y012586D01*
X014625Y012437D01*
X014625Y012275D01*
X014687Y012125D01*
X014802Y012011D01*
X014951Y011949D01*
X015113Y011949D01*
X015263Y012011D01*
X015377Y012125D01*
X015439Y012275D01*
X015439Y012437D01*
X015377Y012586D01*
X015263Y012701D01*
X015192Y012730D01*
X015192Y013166D01*
X014640Y013718D01*
X014640Y013962D01*
X014985Y013962D01*
X015049Y014026D01*
X015049Y014550D01*
X014985Y014615D01*
X014041Y014615D01*
X014031Y014625D01*
X013997Y014645D01*
X013959Y014655D01*
X013880Y014655D01*
X013842Y014655D01*
X013842Y014896D01*
X014063Y015117D01*
X014772Y015117D01*
X014865Y015211D01*
X014865Y016786D01*
X015104Y017024D01*
X015104Y016600D01*
X015094Y016590D01*
X015074Y016555D01*
X015064Y016517D01*
X015064Y016438D01*
X015064Y016360D01*
X015074Y016321D01*
X015094Y016287D01*
X015104Y016277D01*
X015104Y014734D01*
X015168Y014669D01*
X015692Y014669D01*
X015757Y014734D01*
X015757Y015678D01*
X016243Y015678D01*
X016293Y015629D01*
X016425Y015629D01*
X016519Y015723D01*
X016571Y015774D01*
X016613Y015774D01*
X016720Y015819D01*
X016802Y015900D01*
X016846Y016007D01*
X016846Y016122D01*
X016802Y016229D01*
X016772Y016259D01*
X017646Y016259D01*
X017724Y016337D01*
X017818Y016431D01*
X017818Y018296D01*
X017070Y019044D01*
X017070Y019053D01*
X017196Y019053D01*
X017247Y019104D01*
X017266Y019071D01*
X017294Y019043D01*
X017329Y019023D01*
X017367Y019013D01*
X017592Y019013D01*
X017592Y019408D01*
X017692Y019408D01*
X017692Y019013D01*
X017918Y019013D01*
X017956Y019023D01*
X017990Y019043D01*
X018018Y019071D01*
X018038Y019105D01*
X018048Y019143D01*
X018048Y019408D01*
X017692Y019408D01*
X017692Y019508D01*
X018048Y019508D01*
X018048Y019773D01*
X018038Y019811D01*
X018018Y019845D01*
X017990Y019873D01*
X017956Y019893D01*
X017918Y019903D01*
X017708Y019903D01*
X017739Y019935D01*
X017857Y020053D01*
X017857Y020934D01*
X017837Y020954D01*
X017904Y020954D01*
X017969Y021019D01*
X017969Y021661D01*
X017924Y021706D01*
X017924Y022057D01*
X018105Y022057D01*
X018170Y022121D01*
X018170Y022527D01*
X018105Y022592D01*
X017448Y022592D01*
X018345Y022592D01*
X018247Y022690D02*
X018136Y022690D01*
X018105Y022659D02*
X017448Y022659D01*
X017448Y022592D01*
X017128Y022592D02*
X016735Y022592D01*
X016809Y022666D02*
X016813Y022664D01*
X016928Y022664D01*
X017035Y022708D01*
X017117Y022790D01*
X017128Y022818D01*
X017128Y021766D01*
X016962Y021766D01*
X016962Y021388D01*
X016866Y021388D01*
X016866Y021292D01*
X016567Y021292D01*
X016567Y021045D01*
X016577Y021006D01*
X016597Y020972D01*
X016625Y020944D01*
X016659Y020925D01*
X016697Y020914D01*
X016866Y020914D01*
X016866Y021292D01*
X016962Y021292D01*
X016962Y020914D01*
X017128Y020914D01*
X017128Y020859D01*
X017046Y020859D01*
X016981Y020795D01*
X016981Y020153D01*
X017046Y020088D01*
X016844Y019886D01*
X016821Y019863D01*
X016593Y019863D01*
X016528Y019799D01*
X016528Y019117D01*
X016593Y019053D01*
X016750Y019053D01*
X016750Y018911D01*
X016844Y018818D01*
X017142Y018520D01*
X017049Y018520D01*
X016943Y018476D01*
X016861Y018394D01*
X016817Y018287D01*
X016817Y018172D01*
X016861Y018065D01*
X016937Y017989D01*
X016778Y017989D01*
X016713Y017925D01*
X016713Y017322D01*
X016778Y017258D01*
X017460Y017258D01*
X017498Y017296D01*
X017498Y017203D01*
X017460Y017241D01*
X016778Y017241D01*
X016713Y017177D01*
X016713Y017028D01*
X016618Y017028D01*
X016618Y017169D01*
X016567Y017220D01*
X016601Y017240D01*
X016629Y017268D01*
X016648Y017302D01*
X016658Y017340D01*
X016658Y017566D01*
X016263Y017566D01*
X016263Y017666D01*
X016163Y017666D01*
X016163Y018021D01*
X015898Y018021D01*
X015860Y018011D01*
X015826Y017991D01*
X015798Y017964D01*
X015778Y017929D01*
X015771Y017902D01*
X015771Y017942D01*
X015677Y018035D01*
X014629Y019083D01*
X014629Y021091D01*
X014535Y021185D01*
X014335Y021386D01*
X012020Y021386D01*
X012020Y021626D01*
X011956Y021690D01*
X011539Y021690D01*
X011539Y022804D01*
X011310Y023033D01*
X013481Y023033D01*
X013481Y022617D01*
X013546Y022553D01*
X014345Y022553D01*
X014410Y022617D01*
X014410Y022697D01*
X014748Y022697D01*
X014786Y022659D01*
X015467Y022659D01*
X015532Y022724D01*
X015532Y023033D01*
X016054Y023033D01*
X015532Y022511D01*
X015532Y022527D01*
X015467Y022592D01*
X014786Y022592D01*
X014721Y022527D01*
X014721Y022121D01*
X014786Y022057D01*
X015180Y022057D01*
X015451Y021786D01*
X015451Y021770D01*
X015438Y021773D01*
X015269Y021773D01*
X015269Y021396D01*
X015173Y021396D01*
X015173Y021299D01*
X015269Y021299D01*
X015269Y020922D01*
X015438Y020922D01*
X015451Y020926D01*
X015451Y020867D01*
X015353Y020867D01*
X015288Y020803D01*
X015288Y020161D01*
X015353Y020096D01*
X015794Y020096D01*
X015781Y020083D01*
X015348Y020083D01*
X015254Y019989D01*
X015128Y019863D01*
X014920Y019863D01*
X014855Y019799D01*
X014855Y019117D01*
X014920Y019053D01*
X015523Y019053D01*
X015574Y019104D01*
X015593Y019071D01*
X015621Y019043D01*
X015655Y019023D01*
X015693Y019013D01*
X015919Y019013D01*
X015919Y019408D01*
X016019Y019408D01*
X016019Y019013D01*
X016245Y019013D01*
X016283Y019023D01*
X016317Y019043D01*
X016345Y019071D01*
X016365Y019105D01*
X016375Y019143D01*
X016375Y019408D01*
X016019Y019408D01*
X016019Y019508D01*
X016375Y019508D01*
X016375Y019773D01*
X016365Y019811D01*
X016345Y019845D01*
X016317Y019873D01*
X016283Y019893D01*
X016245Y019903D01*
X016054Y019903D01*
X016150Y019999D01*
X016243Y020093D01*
X016243Y020994D01*
X016276Y021027D01*
X016276Y021669D01*
X016212Y021733D01*
X016129Y021733D01*
X016129Y021986D01*
X016809Y022666D01*
X016991Y022690D02*
X017128Y022690D01*
X017115Y022789D02*
X017128Y022789D01*
X017128Y022493D02*
X016636Y022493D01*
X016538Y022395D02*
X017128Y022395D01*
X017128Y022296D02*
X016439Y022296D01*
X016341Y022198D02*
X017128Y022198D01*
X017128Y022099D02*
X016242Y022099D01*
X016144Y022001D02*
X017128Y022001D01*
X017128Y021902D02*
X016129Y021902D01*
X016129Y021804D02*
X017128Y021804D01*
X016962Y021705D02*
X016866Y021705D01*
X016866Y021766D02*
X016866Y021388D01*
X016567Y021388D01*
X016567Y021635D01*
X016577Y021673D01*
X016597Y021708D01*
X016625Y021736D01*
X016659Y021755D01*
X016697Y021766D01*
X016866Y021766D01*
X016866Y021607D02*
X016962Y021607D01*
X016962Y021508D02*
X016866Y021508D01*
X016866Y021410D02*
X016962Y021410D01*
X016866Y021311D02*
X016276Y021311D01*
X016276Y021213D02*
X016567Y021213D01*
X016567Y021114D02*
X016276Y021114D01*
X016265Y021016D02*
X016575Y021016D01*
X016687Y020917D02*
X016243Y020917D01*
X016243Y020819D02*
X017005Y020819D01*
X016981Y020720D02*
X016243Y020720D01*
X016243Y020622D02*
X016981Y020622D01*
X016981Y020523D02*
X016243Y020523D01*
X016243Y020425D02*
X016981Y020425D01*
X016981Y020326D02*
X016243Y020326D01*
X016243Y020228D02*
X016981Y020228D01*
X017005Y020129D02*
X016243Y020129D01*
X016181Y020031D02*
X016989Y020031D01*
X017046Y020088D02*
X017046Y020088D01*
X017186Y020001D02*
X016910Y019726D01*
X016910Y019474D01*
X016894Y019458D01*
X016910Y019442D01*
X016910Y018978D01*
X017658Y018230D01*
X017658Y016497D01*
X017579Y016419D01*
X016319Y016419D01*
X015939Y016038D01*
X015430Y016038D01*
X015430Y015838D02*
X016309Y015838D01*
X016359Y015789D01*
X016556Y015986D01*
X016556Y016064D01*
X016664Y015795D02*
X023839Y015795D01*
X023839Y015697D02*
X016493Y015697D01*
X016795Y015894D02*
X023839Y015894D01*
X023839Y015992D02*
X016840Y015992D01*
X016846Y016091D02*
X023839Y016091D01*
X023839Y016189D02*
X016818Y016189D01*
X016176Y016502D02*
X016159Y016485D01*
X015797Y016485D01*
X015797Y016517D02*
X015786Y016555D01*
X015767Y016590D01*
X015757Y016600D01*
X015757Y016678D01*
X015808Y016678D01*
X015808Y016566D01*
X015872Y016502D01*
X016176Y016502D01*
X016159Y016485D02*
X015873Y016198D01*
X015757Y016198D01*
X015757Y016277D01*
X015767Y016287D01*
X015786Y016321D01*
X015797Y016360D01*
X015797Y016438D01*
X015430Y016438D01*
X015064Y016438D01*
X015430Y016438D01*
X015430Y016438D01*
X015430Y016438D01*
X015797Y016438D01*
X015797Y016517D01*
X015808Y016583D02*
X015770Y016583D01*
X015797Y016386D02*
X016061Y016386D01*
X015962Y016288D02*
X015767Y016288D01*
X015430Y016638D02*
X015430Y016838D01*
X016184Y016838D01*
X016213Y016868D01*
X017111Y016868D01*
X017119Y016875D01*
X016713Y017076D02*
X016618Y017076D01*
X016613Y017174D02*
X016713Y017174D01*
X016763Y017273D02*
X016631Y017273D01*
X016658Y017371D02*
X016713Y017371D01*
X016713Y017470D02*
X016658Y017470D01*
X016713Y017568D02*
X016263Y017568D01*
X016263Y017666D02*
X016658Y017666D01*
X016658Y017891D01*
X016648Y017929D01*
X016629Y017964D01*
X016601Y017991D01*
X016566Y018011D01*
X016528Y018021D01*
X016263Y018021D01*
X016263Y017666D01*
X016263Y017667D02*
X016163Y017667D01*
X016163Y017765D02*
X016263Y017765D01*
X016263Y017864D02*
X016163Y017864D01*
X016163Y017962D02*
X016263Y017962D01*
X016629Y017962D02*
X016751Y017962D01*
X016713Y017864D02*
X016658Y017864D01*
X016658Y017765D02*
X016713Y017765D01*
X016713Y017667D02*
X016658Y017667D01*
X016866Y018061D02*
X015652Y018061D01*
X015553Y018159D02*
X016822Y018159D01*
X016817Y018258D02*
X015455Y018258D01*
X015356Y018356D02*
X016845Y018356D01*
X016922Y018455D02*
X015258Y018455D01*
X015159Y018553D02*
X017108Y018553D01*
X017010Y018652D02*
X015061Y018652D01*
X014962Y018750D02*
X016911Y018750D01*
X016813Y018849D02*
X014864Y018849D01*
X014765Y018947D02*
X016750Y018947D01*
X016750Y019046D02*
X016320Y019046D01*
X016375Y019144D02*
X016528Y019144D01*
X016528Y019243D02*
X016375Y019243D01*
X016375Y019341D02*
X016528Y019341D01*
X016528Y019440D02*
X016019Y019440D01*
X016019Y019341D02*
X015919Y019341D01*
X015919Y019243D02*
X016019Y019243D01*
X016019Y019144D02*
X015919Y019144D01*
X015919Y019046D02*
X016019Y019046D01*
X016375Y019538D02*
X016528Y019538D01*
X016528Y019637D02*
X016375Y019637D01*
X016375Y019735D02*
X016528Y019735D01*
X016563Y019834D02*
X016352Y019834D01*
X016083Y019932D02*
X016890Y019932D01*
X017186Y020001D02*
X017579Y020001D01*
X017697Y020119D01*
X017697Y020868D01*
X017619Y020946D01*
X017619Y021301D01*
X017764Y021446D01*
X017764Y022324D01*
X017924Y022001D02*
X018640Y022001D01*
X018640Y022099D02*
X018148Y022099D01*
X018170Y022198D02*
X018640Y022198D01*
X018640Y022296D02*
X018170Y022296D01*
X018170Y022395D02*
X018542Y022395D01*
X018640Y022297D02*
X018171Y022767D01*
X018170Y022767D01*
X018170Y022724D01*
X018105Y022659D01*
X018170Y022493D02*
X018444Y022493D01*
X018640Y022297D02*
X018640Y021611D01*
X018238Y021611D01*
X018174Y021547D01*
X018174Y020747D01*
X018238Y020683D01*
X018955Y020683D01*
X019663Y019974D01*
X019663Y018847D01*
X019492Y018675D01*
X019487Y018677D01*
X019372Y018677D01*
X019265Y018633D01*
X019184Y018551D01*
X019140Y018445D01*
X019140Y018330D01*
X019184Y018223D01*
X019265Y018141D01*
X019372Y018097D01*
X019487Y018097D01*
X019594Y018141D01*
X019676Y018223D01*
X019720Y018330D01*
X019720Y018445D01*
X019718Y018449D01*
X019983Y018715D01*
X019983Y020107D01*
X019890Y020201D01*
X019400Y020690D01*
X019457Y020747D01*
X019457Y021547D01*
X019393Y021611D01*
X018960Y021611D01*
X018960Y022430D01*
X018866Y022524D01*
X018357Y023033D01*
X020110Y023033D01*
X020110Y023009D01*
X020545Y023009D01*
X020545Y022949D01*
X020110Y022949D01*
X020110Y022786D01*
X020383Y022514D01*
X020545Y022514D01*
X020545Y022949D01*
X020605Y022949D01*
X020605Y023009D01*
X021040Y023009D01*
X021040Y023033D01*
X022567Y023033D01*
X022567Y022732D01*
X023021Y022732D01*
X023021Y022632D01*
X023121Y022632D01*
X023121Y022178D01*
X023446Y022178D01*
X023484Y022188D01*
X023518Y022208D01*
X023546Y022236D01*
X023566Y022270D01*
X023576Y022308D01*
X023576Y022632D01*
X023121Y022632D01*
X023121Y022732D01*
X023576Y022732D01*
X023576Y023033D01*
X023721Y023033D01*
X023839Y022915D01*
X023839Y008072D01*
X023524Y007757D01*
X005335Y007757D01*
X005079Y008014D02*
X023781Y008014D01*
X023839Y008112D02*
X005060Y008112D01*
X005060Y008211D02*
X015813Y008211D01*
X015818Y008206D02*
X015913Y008167D01*
X021411Y008167D01*
X021506Y008206D01*
X021579Y008279D01*
X022152Y008852D01*
X022566Y008852D01*
X022630Y008916D01*
X022630Y009716D01*
X022566Y009781D01*
X021766Y009781D01*
X021702Y009716D01*
X021702Y009137D01*
X021251Y008687D01*
X016073Y008687D01*
X016008Y008752D01*
X016008Y009231D01*
X015943Y009296D01*
X014972Y009296D01*
X014908Y009231D01*
X014908Y009206D01*
X014105Y009206D01*
X013734Y009576D01*
X013734Y009602D01*
X013684Y009723D01*
X013592Y009815D01*
X013591Y009815D01*
X013774Y009999D01*
X013774Y010142D01*
X013415Y010142D01*
X013415Y010160D01*
X013397Y010160D01*
X013397Y010142D01*
X013038Y010142D01*
X013038Y009999D01*
X013221Y009815D01*
X013220Y009815D01*
X013128Y009723D01*
X013078Y009602D01*
X013078Y009472D01*
X013128Y009351D01*
X013220Y009259D01*
X013341Y009209D01*
X013367Y009209D01*
X013850Y008725D01*
X013945Y008686D01*
X014908Y008686D01*
X014908Y008660D01*
X014972Y008596D01*
X015428Y008596D01*
X015818Y008206D01*
X015715Y008309D02*
X005060Y008309D01*
X005060Y008408D02*
X015616Y008408D01*
X015518Y008506D02*
X005060Y008506D01*
X005060Y008605D02*
X014963Y008605D01*
X014971Y009294D02*
X014016Y009294D01*
X013918Y009393D02*
X015207Y009393D01*
X015246Y009353D02*
X016545Y009353D01*
X016774Y009125D01*
X016900Y008999D01*
X020188Y008999D01*
X020464Y009275D01*
X020590Y009401D01*
X020590Y009736D01*
X020472Y009854D01*
X020346Y009980D01*
X020310Y009980D01*
X020310Y010107D01*
X019951Y010107D01*
X019951Y010125D01*
X019932Y010125D01*
X019932Y010107D01*
X019573Y010107D01*
X019573Y009980D01*
X019164Y009980D01*
X018503Y010642D01*
X018377Y010768D01*
X016703Y010768D01*
X016309Y010374D01*
X015286Y010374D01*
X015207Y010295D01*
X015117Y010206D01*
X014972Y010206D01*
X014908Y010141D01*
X014908Y009570D01*
X014972Y009506D01*
X015094Y009506D01*
X015246Y009353D01*
X015108Y009491D02*
X013819Y009491D01*
X013734Y009590D02*
X014908Y009590D01*
X014908Y009688D02*
X013699Y009688D01*
X013620Y009787D02*
X014908Y009787D01*
X014908Y009885D02*
X013661Y009885D01*
X013759Y009984D02*
X014908Y009984D01*
X014908Y010082D02*
X013774Y010082D01*
X013774Y010160D02*
X013774Y010303D01*
X013559Y010519D01*
X013415Y010519D01*
X013415Y010160D01*
X013774Y010160D01*
X013774Y010181D02*
X014947Y010181D01*
X014998Y010376D02*
X015408Y010376D01*
X015408Y010716D01*
X014868Y010716D01*
X014868Y010506D01*
X014878Y010468D01*
X014898Y010434D01*
X014926Y010406D01*
X014960Y010386D01*
X014998Y010376D01*
X014991Y010378D02*
X013700Y010378D01*
X013774Y010279D02*
X015191Y010279D01*
X015408Y010378D02*
X015508Y010378D01*
X015508Y010376D02*
X015918Y010376D01*
X015956Y010386D01*
X015990Y010406D01*
X016018Y010434D01*
X016038Y010468D01*
X016048Y010506D01*
X016048Y010716D01*
X015508Y010716D01*
X015508Y010816D01*
X015408Y010816D01*
X015408Y011156D01*
X014998Y011156D01*
X014960Y011145D01*
X014926Y011126D01*
X014898Y011098D01*
X014878Y011064D01*
X014868Y011025D01*
X014868Y010816D01*
X015408Y010816D01*
X015408Y010716D01*
X015508Y010716D01*
X015508Y010376D01*
X015508Y010476D02*
X015408Y010476D01*
X015408Y010575D02*
X015508Y010575D01*
X015508Y010673D02*
X015408Y010673D01*
X015408Y010772D02*
X005060Y010772D01*
X005060Y010870D02*
X014868Y010870D01*
X014868Y010969D02*
X005060Y010969D01*
X005060Y011067D02*
X014880Y011067D01*
X014868Y010673D02*
X005060Y010673D01*
X005060Y010575D02*
X014868Y010575D01*
X014876Y010476D02*
X013601Y010476D01*
X013415Y010476D02*
X013397Y010476D01*
X013397Y010519D02*
X013254Y010519D01*
X013038Y010303D01*
X013038Y010160D01*
X013397Y010160D01*
X013397Y010519D01*
X013397Y010378D02*
X013415Y010378D01*
X013415Y010279D02*
X013397Y010279D01*
X013397Y010181D02*
X013415Y010181D01*
X013211Y010476D02*
X005060Y010476D01*
X005060Y010378D02*
X013112Y010378D01*
X013038Y010279D02*
X005060Y010279D01*
X005060Y010181D02*
X013038Y010181D01*
X013038Y010082D02*
X005060Y010082D01*
X005060Y009984D02*
X013053Y009984D01*
X013151Y009885D02*
X005060Y009885D01*
X005060Y009787D02*
X013192Y009787D01*
X013114Y009688D02*
X005060Y009688D01*
X005060Y009590D02*
X013078Y009590D01*
X013078Y009491D02*
X005060Y009491D01*
X005060Y009393D02*
X013111Y009393D01*
X013185Y009294D02*
X005060Y009294D01*
X005060Y009196D02*
X013380Y009196D01*
X013478Y009097D02*
X005060Y009097D01*
X005060Y008999D02*
X013577Y008999D01*
X013675Y008900D02*
X005060Y008900D01*
X005060Y008802D02*
X013774Y008802D01*
X013903Y008703D02*
X005060Y008703D01*
X005060Y011166D02*
X023839Y011166D01*
X023839Y011264D02*
X005060Y011264D01*
X005060Y011363D02*
X023839Y011363D01*
X023839Y011461D02*
X005060Y011461D01*
X005060Y011560D02*
X023839Y011560D01*
X023839Y011658D02*
X005060Y011658D01*
X005060Y011757D02*
X023839Y011757D01*
X023839Y011855D02*
X005060Y011855D01*
X005060Y011954D02*
X014939Y011954D01*
X015125Y011954D02*
X015837Y011954D01*
X015861Y011942D02*
X015798Y011974D01*
X015741Y012015D01*
X015691Y012065D01*
X015650Y012122D01*
X015618Y012184D01*
X015596Y012251D01*
X015587Y012307D01*
X015984Y012307D01*
X016081Y012307D01*
X016081Y012404D01*
X016477Y012404D01*
X016468Y012460D01*
X016446Y012527D01*
X016414Y012590D01*
X016373Y012647D01*
X016323Y012697D01*
X016266Y012738D01*
X016204Y012770D01*
X016137Y012792D01*
X016081Y012800D01*
X016081Y012404D01*
X015984Y012404D01*
X015984Y012800D01*
X015927Y012792D01*
X015861Y012770D01*
X015798Y012738D01*
X015741Y012697D01*
X015691Y012647D01*
X015650Y012590D01*
X015618Y012527D01*
X015596Y012460D01*
X015587Y012404D01*
X015984Y012404D01*
X015984Y012307D01*
X015984Y011911D01*
X015927Y011920D01*
X015861Y011942D01*
X015984Y011954D02*
X016081Y011954D01*
X016081Y011911D02*
X016137Y011920D01*
X016204Y011942D01*
X016266Y011974D01*
X016323Y012015D01*
X016373Y012065D01*
X016414Y012122D01*
X016446Y012184D01*
X016468Y012251D01*
X016477Y012307D01*
X016081Y012307D01*
X016081Y011911D01*
X016081Y012052D02*
X015984Y012052D01*
X015984Y012151D02*
X016081Y012151D01*
X016081Y012249D02*
X015984Y012249D01*
X015984Y012348D02*
X015439Y012348D01*
X015435Y012446D02*
X015594Y012446D01*
X015627Y012545D02*
X015394Y012545D01*
X015320Y012643D02*
X015689Y012643D01*
X015805Y012742D02*
X015192Y012742D01*
X015192Y012840D02*
X023839Y012840D01*
X023839Y012742D02*
X017163Y012742D01*
X017113Y012763D02*
X017263Y012701D01*
X017377Y012586D01*
X017439Y012437D01*
X017439Y012275D01*
X017377Y012125D01*
X017263Y012011D01*
X017113Y011949D01*
X016951Y011949D01*
X016802Y012011D01*
X016687Y012125D01*
X016625Y012275D01*
X016625Y012437D01*
X016687Y012586D01*
X016802Y012701D01*
X016951Y012763D01*
X017113Y012763D01*
X016901Y012742D02*
X016259Y012742D01*
X016376Y012643D02*
X016744Y012643D01*
X016670Y012545D02*
X016437Y012545D01*
X016470Y012446D02*
X016629Y012446D01*
X016625Y012348D02*
X016081Y012348D01*
X016081Y012446D02*
X015984Y012446D01*
X015984Y012545D02*
X016081Y012545D01*
X016081Y012643D02*
X015984Y012643D01*
X015984Y012742D02*
X016081Y012742D01*
X016467Y012249D02*
X016636Y012249D01*
X016677Y012151D02*
X016429Y012151D01*
X016361Y012052D02*
X016760Y012052D01*
X016939Y011954D02*
X016227Y011954D01*
X015704Y012052D02*
X015304Y012052D01*
X015388Y012151D02*
X015635Y012151D01*
X015597Y012249D02*
X015428Y012249D01*
X015032Y012356D02*
X015032Y013100D01*
X014480Y013652D01*
X014480Y014288D01*
X014640Y013924D02*
X023839Y013924D01*
X023839Y014022D02*
X015045Y014022D01*
X015049Y014121D02*
X023839Y014121D01*
X023839Y014219D02*
X015049Y014219D01*
X015049Y014318D02*
X023839Y014318D01*
X023839Y014416D02*
X015049Y014416D01*
X015049Y014515D02*
X023839Y014515D01*
X023839Y014613D02*
X014986Y014613D01*
X015126Y014712D02*
X013842Y014712D01*
X013880Y014655D02*
X013880Y014288D01*
X013880Y014288D01*
X013880Y013922D01*
X013840Y013922D01*
X013840Y013879D01*
X013920Y013879D01*
X013920Y013922D01*
X013880Y013922D01*
X013880Y014288D01*
X013880Y014649D01*
X014036Y014805D01*
X014863Y014805D01*
X015104Y014810D02*
X013842Y014810D01*
X013855Y014909D02*
X015104Y014909D01*
X015104Y015007D02*
X013953Y015007D01*
X014052Y015106D02*
X015104Y015106D01*
X015104Y015204D02*
X014859Y015204D01*
X014865Y015303D02*
X015104Y015303D01*
X015104Y015401D02*
X014865Y015401D01*
X014865Y015500D02*
X015104Y015500D01*
X015104Y015598D02*
X014865Y015598D01*
X014865Y015697D02*
X015104Y015697D01*
X015104Y015795D02*
X014865Y015795D01*
X014865Y015894D02*
X015104Y015894D01*
X015104Y015992D02*
X014865Y015992D01*
X014865Y016091D02*
X015104Y016091D01*
X015104Y016189D02*
X014865Y016189D01*
X014865Y016288D02*
X015093Y016288D01*
X015064Y016386D02*
X014865Y016386D01*
X014865Y016485D02*
X015064Y016485D01*
X015090Y016583D02*
X014865Y016583D01*
X014865Y016682D02*
X015104Y016682D01*
X015104Y016780D02*
X014865Y016780D01*
X014959Y016879D02*
X015104Y016879D01*
X015104Y016977D02*
X015057Y016977D01*
X015138Y017285D02*
X015138Y017560D01*
X015257Y017639D01*
X015138Y017285D02*
X014705Y016852D01*
X014705Y015277D01*
X013997Y015277D01*
X013682Y014962D01*
X013682Y014290D01*
X013680Y014288D01*
X013680Y014685D01*
X013480Y014691D02*
X013209Y014962D01*
X013353Y014909D02*
X012633Y014909D01*
X012579Y014962D02*
X012579Y017127D01*
X014115Y017127D01*
X014154Y017088D01*
X014154Y015710D01*
X013209Y014765D01*
X012776Y014765D01*
X012579Y014962D01*
X012579Y015007D02*
X013451Y015007D01*
X013550Y015106D02*
X012579Y015106D01*
X012579Y015204D02*
X013648Y015204D01*
X013747Y015303D02*
X012579Y015303D01*
X012579Y015401D02*
X013845Y015401D01*
X013944Y015500D02*
X012579Y015500D01*
X012579Y015598D02*
X014042Y015598D01*
X014141Y015697D02*
X012579Y015697D01*
X012579Y015795D02*
X014154Y015795D01*
X014154Y015894D02*
X012579Y015894D01*
X012579Y015992D02*
X014154Y015992D01*
X014154Y016091D02*
X012579Y016091D01*
X012579Y016189D02*
X014154Y016189D01*
X014154Y016288D02*
X012579Y016288D01*
X012579Y016386D02*
X014154Y016386D01*
X014154Y016485D02*
X012579Y016485D01*
X012579Y016583D02*
X014154Y016583D01*
X014154Y016682D02*
X012579Y016682D01*
X012579Y016780D02*
X014154Y016780D01*
X014154Y016879D02*
X012579Y016879D01*
X012579Y016977D02*
X014154Y016977D01*
X014154Y017076D02*
X012579Y017076D01*
X012498Y017273D02*
X010259Y017273D01*
X010259Y017371D02*
X012511Y017371D01*
X012511Y017470D02*
X010259Y017470D01*
X010259Y017568D02*
X012511Y017568D01*
X012511Y017667D02*
X010259Y017667D01*
X010259Y017765D02*
X012511Y017765D01*
X012524Y017864D02*
X010259Y017864D01*
X010259Y017962D02*
X014633Y017962D01*
X014504Y018061D02*
X010259Y018061D01*
X010259Y018159D02*
X014460Y018159D01*
X014455Y018258D02*
X010259Y018258D01*
X010259Y018356D02*
X014483Y018356D01*
X014560Y018455D02*
X010259Y018455D01*
X010259Y018553D02*
X014707Y018553D01*
X014608Y018652D02*
X010259Y018652D01*
X010259Y018750D02*
X014510Y018750D01*
X014411Y018849D02*
X010259Y018849D01*
X010259Y018947D02*
X014313Y018947D01*
X014309Y019046D02*
X012029Y019046D01*
X012030Y019047D02*
X012050Y019081D01*
X012060Y019119D01*
X012060Y019444D01*
X011429Y019444D01*
X011429Y019544D01*
X011329Y019544D01*
X011329Y019998D01*
X010827Y019998D01*
X010789Y019988D01*
X010755Y019968D01*
X010727Y019940D01*
X010707Y019906D01*
X010697Y019868D01*
X010697Y019544D01*
X011329Y019544D01*
X011329Y019444D01*
X011429Y019444D01*
X011429Y018989D01*
X011930Y018989D01*
X011968Y018999D01*
X012002Y019019D01*
X012030Y019047D01*
X012060Y019144D02*
X014309Y019144D01*
X014309Y019243D02*
X012060Y019243D01*
X012060Y019341D02*
X014309Y019341D01*
X014309Y019440D02*
X012060Y019440D01*
X012060Y019544D02*
X012060Y019868D01*
X012050Y019906D01*
X012030Y019940D01*
X012002Y019968D01*
X011968Y019988D01*
X011930Y019998D01*
X011429Y019998D01*
X011429Y019544D01*
X012060Y019544D01*
X012060Y019637D02*
X014309Y019637D01*
X014309Y019735D02*
X012060Y019735D01*
X012060Y019834D02*
X014309Y019834D01*
X014309Y019932D02*
X012035Y019932D01*
X011429Y019932D02*
X011329Y019932D01*
X011329Y019834D02*
X011429Y019834D01*
X011429Y019735D02*
X011329Y019735D01*
X011329Y019637D02*
X011429Y019637D01*
X011429Y019538D02*
X014309Y019538D01*
X014629Y019538D02*
X014855Y019538D01*
X014855Y019440D02*
X014629Y019440D01*
X014629Y019341D02*
X014855Y019341D01*
X014855Y019243D02*
X014629Y019243D01*
X014629Y019144D02*
X014855Y019144D01*
X014667Y019046D02*
X015618Y019046D01*
X015221Y019458D02*
X015221Y019730D01*
X015414Y019923D01*
X015847Y019923D01*
X016083Y020159D01*
X016083Y021261D01*
X015965Y021379D01*
X016044Y021458D01*
X016079Y021458D01*
X015969Y021348D01*
X015969Y022053D01*
X016871Y022954D01*
X017128Y023308D02*
X016440Y023308D01*
X016440Y024713D01*
X016346Y024807D01*
X016217Y024937D01*
X016217Y025350D01*
X016152Y025415D01*
X015550Y025415D01*
X015498Y025363D01*
X015479Y025397D01*
X015451Y025425D01*
X015417Y025444D01*
X015379Y025455D01*
X015153Y025455D01*
X015153Y025059D01*
X015053Y025059D01*
X015053Y024959D01*
X015153Y024959D01*
X015153Y024564D01*
X015379Y024564D01*
X015417Y024574D01*
X015451Y024594D01*
X015479Y024622D01*
X015498Y024655D01*
X015550Y024604D01*
X016097Y024604D01*
X016120Y024581D01*
X016120Y023308D01*
X015559Y023308D01*
X015562Y023314D01*
X015572Y023352D01*
X015572Y023500D01*
X015155Y023500D01*
X015155Y023558D01*
X015098Y023558D01*
X015098Y023836D01*
X014812Y023836D01*
X014773Y023826D01*
X014739Y023806D01*
X014711Y023779D01*
X014692Y023744D01*
X014681Y023706D01*
X014681Y023558D01*
X015098Y023558D01*
X015098Y023500D01*
X014681Y023500D01*
X014681Y023352D01*
X014692Y023314D01*
X014694Y023308D01*
X014410Y023308D01*
X014410Y023417D01*
X014345Y023481D01*
X013546Y023481D01*
X013481Y023417D01*
X013481Y023308D01*
X011427Y023308D01*
X011452Y023369D01*
X011452Y023484D01*
X011408Y023591D01*
X011326Y023672D01*
X011220Y023717D01*
X011177Y023717D01*
X011110Y023783D01*
X010847Y023783D01*
X010847Y023823D01*
X010782Y023887D01*
X010101Y023887D01*
X010036Y023823D01*
X010036Y023416D01*
X010101Y023352D01*
X010782Y023352D01*
X010847Y023416D01*
X010847Y023463D01*
X010872Y023463D01*
X010872Y023369D01*
X010897Y023308D01*
X009964Y023308D01*
X009964Y023813D01*
X010105Y023954D01*
X010782Y023954D01*
X010847Y024019D01*
X010847Y024425D01*
X010782Y024489D01*
X010101Y024489D01*
X010036Y024425D01*
X010036Y024338D01*
X009978Y024280D01*
X009804Y024106D01*
X009586Y024324D01*
X009586Y024734D01*
X009727Y024734D01*
X009779Y024785D01*
X009798Y024752D01*
X009826Y024724D01*
X009860Y024704D01*
X009898Y024694D01*
X010124Y024694D01*
X010124Y025089D01*
X010224Y025089D01*
X010224Y025189D01*
X010580Y025189D01*
X010580Y025454D01*
X010570Y025492D01*
X010550Y025527D01*
X010522Y025554D01*
X010488Y025574D01*
X010449Y025584D01*
X010224Y025584D01*
X010224Y025189D01*
X010124Y025189D01*
X010124Y025584D01*
X009898Y025584D01*
X009860Y025574D01*
X009826Y025554D01*
X009798Y025527D01*
X009779Y025493D01*
X009727Y025544D01*
X009124Y025544D01*
X009060Y025480D01*
X009060Y024798D01*
X009124Y024734D01*
X009266Y024734D01*
X009266Y024191D01*
X009644Y023813D01*
X009644Y023426D01*
X009594Y023476D01*
X009487Y023520D01*
X009372Y023520D01*
X009265Y023476D01*
X009235Y023446D01*
X009235Y024556D01*
X009142Y024650D01*
X008999Y024792D01*
X008999Y024796D01*
X008905Y024890D01*
X008796Y025000D01*
X008796Y025480D01*
X008731Y025544D01*
X008128Y025544D01*
X008077Y025493D01*
X008058Y025527D01*
X008030Y025554D01*
X007996Y025574D01*
X007957Y025584D01*
X007732Y025584D01*
X007732Y025189D01*
X007632Y025189D01*
X007632Y025584D01*
X007406Y025584D01*
X007368Y025574D01*
X007334Y025554D01*
X007306Y025527D01*
X007286Y025492D01*
X007276Y025454D01*
X007276Y025189D01*
X007632Y025189D01*
X007632Y025089D01*
X007732Y025089D01*
X007732Y024694D01*
X007957Y024694D01*
X007996Y024704D01*
X008030Y024724D01*
X008058Y024752D01*
X008077Y024785D01*
X008128Y024734D01*
X008609Y024734D01*
X008679Y024663D01*
X008679Y024660D01*
X004981Y024660D01*
X004981Y024562D02*
X008777Y024562D01*
X008679Y024660D02*
X008915Y024423D01*
X008915Y023308D01*
X007083Y023308D01*
X007083Y023405D01*
X007019Y023470D01*
X006219Y023470D01*
X006154Y023405D01*
X006154Y023308D01*
X005217Y023308D01*
X004981Y023545D01*
X004981Y025631D01*
X005020Y026616D01*
X005099Y026694D01*
X023760Y026694D01*
X023760Y023466D01*
X023603Y023308D01*
X023411Y023308D01*
X023456Y023354D01*
X023503Y023418D01*
X023539Y023489D01*
X023563Y023564D01*
X023574Y023632D01*
X023121Y023632D01*
X023121Y023732D01*
X023021Y023732D01*
X023021Y023632D01*
X022569Y023632D01*
X022580Y023564D01*
X022604Y023489D01*
X022640Y023418D01*
X022687Y023354D01*
X022732Y023308D01*
X020847Y023308D01*
X020751Y023404D01*
X020399Y023404D01*
X020304Y023308D01*
X018619Y023308D01*
X018691Y023380D01*
X020376Y023380D01*
X020775Y023380D02*
X022668Y023380D01*
X022609Y023478D02*
X018732Y023478D01*
X018735Y023487D02*
X018735Y023602D01*
X018691Y023709D01*
X018610Y023791D01*
X018503Y023835D01*
X018388Y023835D01*
X018281Y023791D01*
X018200Y023709D01*
X018198Y023705D01*
X018170Y023705D01*
X018170Y023732D01*
X018105Y023796D01*
X017448Y023796D01*
X017448Y023864D01*
X018105Y023864D01*
X018170Y023928D01*
X018170Y024334D01*
X018105Y024399D01*
X017424Y024399D01*
X017359Y024334D01*
X017359Y024295D01*
X017356Y024295D01*
X017304Y024243D01*
X017082Y024465D01*
X017082Y024596D01*
X017223Y024596D01*
X017275Y024647D01*
X017294Y024614D01*
X017322Y024586D01*
X017356Y024566D01*
X017394Y024556D01*
X017620Y024556D01*
X017620Y024951D01*
X017720Y024951D01*
X017720Y024556D01*
X017946Y024556D01*
X017984Y024566D01*
X018018Y024586D01*
X018046Y024614D01*
X018066Y024648D01*
X018076Y024686D01*
X018076Y024951D01*
X017720Y024951D01*
X017720Y025051D01*
X018076Y025051D01*
X018076Y025316D01*
X018066Y025355D01*
X018046Y025389D01*
X018018Y025417D01*
X017984Y025436D01*
X017946Y025447D01*
X017720Y025447D01*
X017720Y025051D01*
X017620Y025051D01*
X017620Y025447D01*
X017394Y025447D01*
X017356Y025436D01*
X017322Y025417D01*
X017294Y025389D01*
X017275Y025355D01*
X017223Y025407D01*
X016620Y025407D01*
X016556Y025342D01*
X016556Y024661D01*
X016620Y024596D01*
X016762Y024596D01*
X016762Y024333D01*
X017128Y023967D01*
X017128Y023308D01*
X017128Y023380D02*
X016440Y023380D01*
X016440Y023478D02*
X017128Y023478D01*
X017128Y023577D02*
X016440Y023577D01*
X016440Y023675D02*
X017128Y023675D01*
X017128Y023774D02*
X016440Y023774D01*
X016440Y023872D02*
X017128Y023872D01*
X017124Y023971D02*
X016440Y023971D01*
X016440Y024069D02*
X017025Y024069D01*
X016927Y024168D02*
X016440Y024168D01*
X016440Y024266D02*
X016828Y024266D01*
X016762Y024365D02*
X016440Y024365D01*
X016440Y024463D02*
X016762Y024463D01*
X016762Y024562D02*
X016440Y024562D01*
X016440Y024660D02*
X016556Y024660D01*
X016556Y024759D02*
X016395Y024759D01*
X016296Y024857D02*
X016556Y024857D01*
X016556Y024956D02*
X016217Y024956D01*
X016217Y025054D02*
X016556Y025054D01*
X016556Y025153D02*
X016217Y025153D01*
X016217Y025251D02*
X016556Y025251D01*
X016563Y025350D02*
X016217Y025350D01*
X015851Y025009D02*
X016044Y024816D01*
X016111Y024816D01*
X016280Y024647D01*
X016280Y023033D01*
X015571Y022324D01*
X015127Y022324D01*
X015138Y022324D01*
X015611Y021852D01*
X015611Y020497D01*
X015595Y020482D01*
X015288Y020523D02*
X014629Y020523D01*
X014629Y020425D02*
X015288Y020425D01*
X015288Y020326D02*
X014629Y020326D01*
X014629Y020228D02*
X015288Y020228D01*
X015320Y020129D02*
X014629Y020129D01*
X014629Y020031D02*
X015296Y020031D01*
X015197Y019932D02*
X014629Y019932D01*
X014629Y019834D02*
X014890Y019834D01*
X014855Y019735D02*
X014629Y019735D01*
X014629Y019637D02*
X014855Y019637D01*
X014309Y020031D02*
X010456Y020031D01*
X010456Y020129D02*
X014309Y020129D01*
X014309Y020228D02*
X010456Y020228D01*
X010456Y020326D02*
X014309Y020326D01*
X014309Y020425D02*
X010456Y020425D01*
X010456Y020523D02*
X014309Y020523D01*
X014309Y020622D02*
X010456Y020622D01*
X010456Y020720D02*
X014309Y020720D01*
X014309Y020819D02*
X012013Y020819D01*
X012020Y020917D02*
X014309Y020917D01*
X014252Y021016D02*
X012020Y021016D01*
X012020Y021410D02*
X014874Y021410D01*
X014874Y021396D02*
X015173Y021396D01*
X015173Y021773D01*
X015004Y021773D01*
X014966Y021763D01*
X014932Y021743D01*
X014904Y021716D01*
X014884Y021681D01*
X014874Y021643D01*
X014874Y021396D01*
X014874Y021299D02*
X014874Y021053D01*
X014884Y021014D01*
X014904Y020980D01*
X014932Y020952D01*
X014966Y020932D01*
X015004Y020922D01*
X015173Y020922D01*
X015173Y021299D01*
X014874Y021299D01*
X014874Y021213D02*
X014508Y021213D01*
X014606Y021114D02*
X014874Y021114D01*
X014884Y021016D02*
X014629Y021016D01*
X014629Y020917D02*
X015451Y020917D01*
X015304Y020819D02*
X014629Y020819D01*
X014629Y020720D02*
X015288Y020720D01*
X015288Y020622D02*
X014629Y020622D01*
X014469Y021025D02*
X014469Y019017D01*
X015611Y017875D01*
X015611Y017206D01*
X015453Y017049D01*
X015440Y017049D01*
X015430Y017038D01*
X015453Y017062D01*
X014880Y017588D02*
X014880Y018050D01*
X014902Y018072D01*
X014745Y018230D01*
X015750Y017962D02*
X015797Y017962D01*
X017107Y018230D02*
X017107Y017635D01*
X017119Y017623D01*
X017475Y017273D02*
X017498Y017273D01*
X017818Y017273D02*
X023839Y017273D01*
X023839Y017371D02*
X017818Y017371D01*
X017818Y017470D02*
X023839Y017470D01*
X023839Y017568D02*
X017818Y017568D01*
X017818Y017667D02*
X023839Y017667D01*
X023839Y017765D02*
X017818Y017765D01*
X017818Y017864D02*
X023839Y017864D01*
X023839Y017962D02*
X017818Y017962D01*
X017818Y018061D02*
X023839Y018061D01*
X023839Y018159D02*
X019612Y018159D01*
X019690Y018258D02*
X023839Y018258D01*
X023839Y018356D02*
X019720Y018356D01*
X019724Y018455D02*
X023839Y018455D01*
X023839Y018553D02*
X019822Y018553D01*
X019921Y018652D02*
X023839Y018652D01*
X023839Y018750D02*
X019983Y018750D01*
X019983Y018849D02*
X023839Y018849D01*
X023839Y018947D02*
X019983Y018947D01*
X019983Y019046D02*
X023839Y019046D01*
X023839Y019144D02*
X019983Y019144D01*
X019983Y019243D02*
X023839Y019243D01*
X023839Y019341D02*
X019983Y019341D01*
X019983Y019440D02*
X023839Y019440D01*
X023839Y019538D02*
X019983Y019538D01*
X019983Y019637D02*
X023839Y019637D01*
X023839Y019735D02*
X019983Y019735D01*
X019983Y019834D02*
X023839Y019834D01*
X023839Y019932D02*
X019983Y019932D01*
X019983Y020031D02*
X023839Y020031D01*
X023839Y020129D02*
X019961Y020129D01*
X019863Y020228D02*
X023839Y020228D01*
X023839Y020326D02*
X019764Y020326D01*
X019666Y020425D02*
X023839Y020425D01*
X023839Y020523D02*
X019567Y020523D01*
X019469Y020622D02*
X023839Y020622D01*
X023839Y020720D02*
X019430Y020720D01*
X019457Y020819D02*
X023839Y020819D01*
X023839Y020917D02*
X019457Y020917D01*
X019457Y021016D02*
X023839Y021016D01*
X023839Y021114D02*
X019457Y021114D01*
X019457Y021213D02*
X023839Y021213D01*
X023839Y021311D02*
X019457Y021311D01*
X019457Y021410D02*
X023839Y021410D01*
X023839Y021508D02*
X019457Y021508D01*
X019397Y021607D02*
X023839Y021607D01*
X023839Y021705D02*
X018960Y021705D01*
X018960Y021804D02*
X023839Y021804D01*
X023839Y021902D02*
X018960Y021902D01*
X018960Y022001D02*
X023839Y022001D01*
X023839Y022099D02*
X018960Y022099D01*
X018960Y022198D02*
X022643Y022198D01*
X022659Y022188D02*
X022697Y022178D01*
X023021Y022178D01*
X023021Y022632D01*
X022567Y022632D01*
X022567Y022308D01*
X022577Y022270D01*
X022597Y022236D01*
X022625Y022208D01*
X022659Y022188D01*
X022570Y022296D02*
X018960Y022296D01*
X018960Y022395D02*
X022567Y022395D01*
X022567Y022493D02*
X018896Y022493D01*
X018798Y022592D02*
X020305Y022592D01*
X020206Y022690D02*
X018699Y022690D01*
X018601Y022789D02*
X020110Y022789D01*
X020110Y022887D02*
X018502Y022887D01*
X018404Y022986D02*
X020545Y022986D01*
X020605Y022986D02*
X022567Y022986D01*
X022567Y022887D02*
X021040Y022887D01*
X021040Y022949D02*
X020605Y022949D01*
X020605Y022514D01*
X020768Y022514D01*
X021040Y022786D01*
X021040Y022949D01*
X021040Y022789D02*
X022567Y022789D01*
X022567Y022592D02*
X020846Y022592D01*
X020945Y022690D02*
X023021Y022690D01*
X023021Y022592D02*
X023121Y022592D01*
X023121Y022690D02*
X023839Y022690D01*
X023839Y022592D02*
X023576Y022592D01*
X023576Y022493D02*
X023839Y022493D01*
X023839Y022395D02*
X023576Y022395D01*
X023573Y022296D02*
X023839Y022296D01*
X023839Y022198D02*
X023500Y022198D01*
X023121Y022198D02*
X023021Y022198D01*
X023021Y022296D02*
X023121Y022296D01*
X023121Y022395D02*
X023021Y022395D01*
X023021Y022493D02*
X023121Y022493D01*
X023576Y022789D02*
X023839Y022789D01*
X023839Y022887D02*
X023576Y022887D01*
X023576Y022986D02*
X023768Y022986D01*
X023674Y023380D02*
X023475Y023380D01*
X023533Y023478D02*
X023760Y023478D01*
X023760Y023577D02*
X023565Y023577D01*
X023574Y023732D02*
X023563Y023801D01*
X023539Y023876D01*
X023503Y023947D01*
X023456Y024011D01*
X023400Y024067D01*
X023336Y024114D01*
X023265Y024150D01*
X023190Y024174D01*
X023121Y024185D01*
X023121Y023732D01*
X023574Y023732D01*
X023568Y023774D02*
X023760Y023774D01*
X023760Y023872D02*
X023540Y023872D01*
X023485Y023971D02*
X023760Y023971D01*
X023760Y024069D02*
X023397Y024069D01*
X023210Y024168D02*
X023760Y024168D01*
X023760Y024266D02*
X021028Y024266D01*
X021029Y024270D02*
X021040Y024342D01*
X021040Y024349D01*
X020605Y024349D01*
X020605Y024409D01*
X020545Y024409D01*
X020545Y024844D01*
X020539Y024844D01*
X020467Y024832D01*
X020397Y024809D01*
X020332Y024776D01*
X020272Y024733D01*
X020221Y024681D01*
X020178Y024622D01*
X020144Y024557D01*
X020122Y024487D01*
X020110Y024415D01*
X020110Y024409D01*
X020545Y024409D01*
X020545Y024349D01*
X020110Y024349D01*
X020110Y024342D01*
X020122Y024270D01*
X020144Y024200D01*
X020178Y024135D01*
X020221Y024076D01*
X020272Y024024D01*
X020332Y023981D01*
X020397Y023948D01*
X020467Y023925D01*
X020539Y023914D01*
X020545Y023914D01*
X020545Y024349D01*
X020605Y024349D01*
X020605Y023914D01*
X020612Y023914D01*
X020684Y023925D01*
X020754Y023948D01*
X020819Y023981D01*
X020878Y024024D01*
X020930Y024076D01*
X020973Y024135D01*
X021006Y024200D01*
X021029Y024270D01*
X020990Y024168D02*
X022933Y024168D01*
X022953Y024174D02*
X022878Y024150D01*
X022807Y024114D01*
X022743Y024067D01*
X022687Y024011D01*
X022640Y023947D01*
X022604Y023876D01*
X022580Y023801D01*
X022569Y023732D01*
X023021Y023732D01*
X023021Y024185D01*
X022953Y024174D01*
X023021Y024168D02*
X023121Y024168D01*
X023121Y024069D02*
X023021Y024069D01*
X023021Y023971D02*
X023121Y023971D01*
X023121Y023872D02*
X023021Y023872D01*
X023021Y023774D02*
X023121Y023774D01*
X023121Y023675D02*
X023760Y023675D01*
X023760Y024365D02*
X020605Y024365D01*
X020605Y024409D02*
X021040Y024409D01*
X021040Y024415D01*
X021029Y024487D01*
X021006Y024557D01*
X020973Y024622D01*
X020930Y024681D01*
X020878Y024733D01*
X020819Y024776D01*
X020754Y024809D01*
X020684Y024832D01*
X020612Y024844D01*
X020605Y024844D01*
X020605Y024409D01*
X020605Y024463D02*
X020545Y024463D01*
X020545Y024365D02*
X018139Y024365D01*
X018170Y024266D02*
X020123Y024266D01*
X020161Y024168D02*
X018170Y024168D01*
X018170Y024069D02*
X020227Y024069D01*
X020351Y023971D02*
X018170Y023971D01*
X018114Y023872D02*
X022603Y023872D01*
X022575Y023774D02*
X018627Y023774D01*
X018705Y023675D02*
X023021Y023675D01*
X022578Y023577D02*
X018735Y023577D01*
X018735Y023487D02*
X018691Y023380D01*
X018445Y023545D02*
X017780Y023545D01*
X017764Y023529D01*
X018128Y023774D02*
X018264Y023774D01*
X017776Y024135D02*
X017768Y024135D01*
X017764Y024131D01*
X017768Y024135D02*
X017422Y024135D01*
X017304Y024017D01*
X016922Y024399D01*
X016922Y025001D01*
X017082Y024562D02*
X017373Y024562D01*
X017390Y024365D02*
X017182Y024365D01*
X017084Y024463D02*
X020118Y024463D01*
X020147Y024562D02*
X017967Y024562D01*
X018069Y024660D02*
X020205Y024660D01*
X020308Y024759D02*
X018076Y024759D01*
X018076Y024857D02*
X023760Y024857D01*
X023760Y024759D02*
X020843Y024759D01*
X020945Y024660D02*
X023760Y024660D01*
X023760Y024562D02*
X021004Y024562D01*
X021033Y024463D02*
X023760Y024463D01*
X023760Y024956D02*
X017720Y024956D01*
X017720Y025054D02*
X017620Y025054D01*
X017620Y025153D02*
X017720Y025153D01*
X017720Y025251D02*
X017620Y025251D01*
X017620Y025350D02*
X017720Y025350D01*
X018067Y025350D02*
X023760Y025350D01*
X023760Y025448D02*
X015402Y025448D01*
X015153Y025448D02*
X015053Y025448D01*
X015053Y025455D02*
X014827Y025455D01*
X014789Y025444D01*
X014755Y025425D01*
X014727Y025397D01*
X014707Y025362D01*
X014697Y025324D01*
X014697Y025059D01*
X015053Y025059D01*
X015053Y025455D01*
X015053Y025350D02*
X015153Y025350D01*
X015153Y025251D02*
X015053Y025251D01*
X015053Y025153D02*
X015153Y025153D01*
X015053Y025054D02*
X010580Y025054D01*
X010580Y025089D02*
X010224Y025089D01*
X010224Y024694D01*
X010449Y024694D01*
X010488Y024704D01*
X010522Y024724D01*
X010550Y024752D01*
X010570Y024786D01*
X010580Y024824D01*
X010580Y025089D01*
X010580Y024956D02*
X014697Y024956D01*
X014697Y024959D02*
X014697Y024694D01*
X014707Y024656D01*
X014727Y024622D01*
X014755Y024594D01*
X014789Y024574D01*
X014827Y024564D01*
X015053Y024564D01*
X015053Y024959D01*
X014697Y024959D01*
X014697Y024857D02*
X010580Y024857D01*
X010554Y024759D02*
X014697Y024759D01*
X014706Y024660D02*
X009586Y024660D01*
X009586Y024562D02*
X016120Y024562D01*
X016120Y024463D02*
X014082Y024463D01*
X014038Y024481D02*
X013853Y024481D01*
X013682Y024411D01*
X013552Y024280D01*
X013481Y024109D01*
X013481Y023925D01*
X013552Y023754D01*
X013682Y023623D01*
X013853Y023553D01*
X014038Y023553D01*
X014209Y023623D01*
X014339Y023754D01*
X014400Y023901D01*
X014748Y023901D01*
X014786Y023864D01*
X015467Y023864D01*
X015532Y023928D01*
X015532Y024334D01*
X015467Y024399D01*
X014786Y024399D01*
X014748Y024361D01*
X014258Y024361D01*
X014209Y024411D01*
X014038Y024481D01*
X013809Y024463D02*
X010808Y024463D01*
X010847Y024365D02*
X013636Y024365D01*
X013546Y024266D02*
X010847Y024266D01*
X010847Y024168D02*
X013505Y024168D01*
X013481Y024069D02*
X010847Y024069D01*
X010799Y023971D02*
X013481Y023971D01*
X013503Y023872D02*
X010797Y023872D01*
X011120Y023774D02*
X013544Y023774D01*
X013631Y023675D02*
X011319Y023675D01*
X011414Y023577D02*
X013795Y023577D01*
X013542Y023478D02*
X011452Y023478D01*
X011452Y023380D02*
X013481Y023380D01*
X013481Y022986D02*
X011357Y022986D01*
X011455Y022887D02*
X013481Y022887D01*
X013481Y022789D02*
X011539Y022789D01*
X011539Y022690D02*
X013481Y022690D01*
X013507Y022592D02*
X011539Y022592D01*
X011539Y022493D02*
X014721Y022493D01*
X014721Y022395D02*
X011539Y022395D01*
X011539Y022296D02*
X014721Y022296D01*
X014721Y022198D02*
X011539Y022198D01*
X011539Y022099D02*
X014743Y022099D01*
X014898Y021705D02*
X011539Y021705D01*
X011539Y021804D02*
X015433Y021804D01*
X015334Y021902D02*
X011539Y021902D01*
X011539Y022001D02*
X015236Y022001D01*
X015269Y021705D02*
X015173Y021705D01*
X015173Y021607D02*
X015269Y021607D01*
X015269Y021508D02*
X015173Y021508D01*
X015173Y021410D02*
X015269Y021410D01*
X015173Y021311D02*
X014409Y021311D01*
X014268Y021226D02*
X014469Y021025D01*
X014268Y021226D02*
X011379Y021226D01*
X011379Y022738D01*
X011083Y023033D01*
X011068Y023017D01*
X010442Y023017D01*
X010036Y022986D02*
X009964Y022986D01*
X009964Y022887D02*
X010036Y022887D01*
X010062Y022789D02*
X009964Y022789D01*
X009964Y022690D02*
X011200Y022690D01*
X011219Y022592D02*
X010847Y022592D01*
X010847Y022493D02*
X011219Y022493D01*
X011219Y022395D02*
X010847Y022395D01*
X010847Y022296D02*
X011219Y022296D01*
X011219Y022198D02*
X010833Y022198D01*
X010602Y022099D02*
X011219Y022099D01*
X011219Y022001D02*
X010602Y022001D01*
X010602Y021902D02*
X011219Y021902D01*
X011219Y021804D02*
X010602Y021804D01*
X010602Y021705D02*
X011219Y021705D01*
X010737Y021607D02*
X010602Y021607D01*
X010564Y021508D02*
X010737Y021508D01*
X010737Y021410D02*
X010485Y021410D01*
X010485Y021311D02*
X010737Y021311D01*
X010737Y021213D02*
X010485Y021213D01*
X010485Y021114D02*
X010737Y021114D01*
X010737Y021016D02*
X010474Y021016D01*
X010456Y020917D02*
X010737Y020917D01*
X010744Y020819D02*
X010456Y020819D01*
X010136Y020819D02*
X010095Y020819D01*
X010111Y020720D02*
X010136Y020720D01*
X010136Y020622D02*
X010111Y020622D01*
X010111Y020523D02*
X010136Y020523D01*
X010136Y020425D02*
X010111Y020425D01*
X010111Y020326D02*
X010136Y020326D01*
X010136Y020228D02*
X010111Y020228D01*
X010136Y020129D02*
X010079Y020129D01*
X010136Y020031D02*
X008307Y020031D01*
X008338Y020129D02*
X009528Y020129D01*
X009497Y020228D02*
X008338Y020228D01*
X008338Y020326D02*
X009497Y020326D01*
X009497Y020425D02*
X008338Y020425D01*
X008338Y020523D02*
X009497Y020523D01*
X009497Y020622D02*
X008338Y020622D01*
X008338Y020720D02*
X009497Y020720D01*
X009513Y020819D02*
X008338Y020819D01*
X008338Y020917D02*
X009644Y020917D01*
X009478Y021016D02*
X009381Y021016D01*
X009381Y020922D02*
X009381Y021299D01*
X009083Y021299D01*
X009083Y021053D01*
X009093Y021014D01*
X009113Y020980D01*
X009141Y020952D01*
X009175Y020932D01*
X009213Y020922D01*
X009381Y020922D01*
X009381Y021114D02*
X009478Y021114D01*
X009478Y021213D02*
X009381Y021213D01*
X009381Y021311D02*
X008722Y021311D01*
X008692Y021282D02*
X008692Y021282D01*
X008623Y021213D02*
X009083Y021213D01*
X009083Y021114D02*
X008485Y021114D01*
X008474Y021016D02*
X009093Y021016D01*
X009083Y021410D02*
X008820Y021410D01*
X008919Y021508D02*
X009083Y021508D01*
X009083Y021607D02*
X009017Y021607D01*
X009075Y021891D02*
X009351Y021891D01*
X009508Y022049D01*
X009508Y023151D01*
X009430Y023230D01*
X009588Y023478D02*
X009644Y023478D01*
X009644Y023577D02*
X009235Y023577D01*
X009235Y023675D02*
X009644Y023675D01*
X009644Y023774D02*
X009235Y023774D01*
X009235Y023872D02*
X009585Y023872D01*
X009486Y023971D02*
X009235Y023971D01*
X009235Y024069D02*
X009388Y024069D01*
X009289Y024168D02*
X009235Y024168D01*
X009235Y024266D02*
X009266Y024266D01*
X009266Y024365D02*
X009235Y024365D01*
X009235Y024463D02*
X009266Y024463D01*
X009266Y024562D02*
X009229Y024562D01*
X009266Y024660D02*
X009131Y024660D01*
X009099Y024759D02*
X009032Y024759D01*
X009060Y024857D02*
X008938Y024857D01*
X008839Y024956D02*
X009060Y024956D01*
X009060Y025054D02*
X008796Y025054D01*
X008796Y025153D02*
X009060Y025153D01*
X009060Y025251D02*
X008796Y025251D01*
X008796Y025350D02*
X009060Y025350D01*
X009060Y025448D02*
X008796Y025448D01*
X008445Y025159D02*
X008410Y025159D01*
X008430Y025139D01*
X008839Y024730D01*
X008839Y024726D01*
X009075Y024490D01*
X009075Y022954D01*
X008536Y022415D01*
X007804Y022415D01*
X007804Y020482D01*
X007497Y020523D02*
X005060Y020523D01*
X005060Y020425D02*
X007497Y020425D01*
X007497Y020326D02*
X005060Y020326D01*
X005060Y020228D02*
X007497Y020228D01*
X007528Y020129D02*
X005060Y020129D01*
X005060Y020031D02*
X007619Y020031D01*
X007520Y019932D02*
X005060Y019932D01*
X005060Y019834D02*
X007422Y019834D01*
X007422Y019608D02*
X007422Y017324D01*
X007382Y017285D01*
X007114Y017174D02*
X005060Y017174D01*
X005060Y017076D02*
X007181Y017076D01*
X007092Y017273D02*
X005060Y017273D01*
X005060Y017371D02*
X007104Y017371D01*
X007157Y017470D02*
X005060Y017470D01*
X005060Y017568D02*
X007262Y017568D01*
X007262Y017667D02*
X005060Y017667D01*
X005060Y017765D02*
X007262Y017765D01*
X007262Y017864D02*
X005060Y017864D01*
X005060Y017962D02*
X007262Y017962D01*
X007262Y018061D02*
X005060Y018061D01*
X005060Y018159D02*
X007262Y018159D01*
X007262Y018258D02*
X005060Y018258D01*
X005060Y018356D02*
X007262Y018356D01*
X007262Y018455D02*
X005060Y018455D01*
X005060Y018553D02*
X007262Y018553D01*
X007262Y018652D02*
X005060Y018652D01*
X005060Y018750D02*
X007262Y018750D01*
X007262Y018849D02*
X005060Y018849D01*
X005060Y018947D02*
X007262Y018947D01*
X007092Y019046D02*
X005060Y019046D01*
X005060Y019144D02*
X007064Y019144D01*
X007064Y019243D02*
X005060Y019243D01*
X005060Y019341D02*
X007064Y019341D01*
X007064Y019440D02*
X005060Y019440D01*
X005060Y019538D02*
X007064Y019538D01*
X007064Y019637D02*
X005060Y019637D01*
X005060Y019735D02*
X007064Y019735D01*
X007422Y019608D02*
X007776Y019962D01*
X008012Y019962D01*
X008178Y020127D01*
X008178Y021348D01*
X008532Y021348D01*
X009075Y021891D01*
X009381Y021731D02*
X009417Y021731D01*
X009575Y021889D01*
X009644Y021958D01*
X009644Y021773D01*
X009478Y021773D01*
X009478Y021396D01*
X009381Y021396D01*
X009381Y021731D01*
X009381Y021705D02*
X009478Y021705D01*
X009478Y021607D02*
X009381Y021607D01*
X009381Y021508D02*
X009478Y021508D01*
X009478Y021410D02*
X009381Y021410D01*
X009490Y021804D02*
X009644Y021804D01*
X009644Y021902D02*
X009588Y021902D01*
X009575Y021889D02*
X009575Y021889D01*
X009964Y021902D02*
X010282Y021902D01*
X010282Y021804D02*
X009964Y021804D01*
X009964Y022001D02*
X010282Y022001D01*
X010282Y022099D02*
X009964Y022099D01*
X009964Y022198D02*
X010050Y022198D01*
X010036Y022296D02*
X009964Y022296D01*
X009964Y022395D02*
X010036Y022395D01*
X010036Y022493D02*
X009964Y022493D01*
X009964Y022592D02*
X010036Y022592D01*
X010442Y022415D02*
X010442Y021612D01*
X010178Y021348D01*
X010178Y021379D02*
X010296Y021261D01*
X010296Y019726D01*
X010060Y019490D01*
X010060Y019407D01*
X010099Y019368D01*
X010099Y013466D01*
X009840Y013333D02*
X005060Y013333D01*
X005060Y013431D02*
X009809Y013431D01*
X009812Y013530D02*
X005060Y013530D01*
X005060Y013628D02*
X009852Y013628D01*
X009939Y013727D02*
X005060Y013727D01*
X005060Y013825D02*
X009939Y013825D01*
X009939Y013924D02*
X005060Y013924D01*
X005060Y014022D02*
X009939Y014022D01*
X009939Y014121D02*
X005060Y014121D01*
X005060Y014219D02*
X009939Y014219D01*
X009939Y014318D02*
X005060Y014318D01*
X005060Y014416D02*
X009939Y014416D01*
X009939Y014515D02*
X005060Y014515D01*
X005060Y014613D02*
X009939Y014613D01*
X009939Y014712D02*
X005060Y014712D01*
X005060Y014810D02*
X009939Y014810D01*
X009939Y014909D02*
X005060Y014909D01*
X005060Y015007D02*
X009939Y015007D01*
X009939Y015106D02*
X005060Y015106D01*
X005060Y015204D02*
X009939Y015204D01*
X009939Y015303D02*
X005060Y015303D01*
X005060Y015401D02*
X009939Y015401D01*
X009939Y015500D02*
X005060Y015500D01*
X005060Y015598D02*
X009939Y015598D01*
X009939Y015697D02*
X005060Y015697D01*
X005060Y015795D02*
X009939Y015795D01*
X009939Y015894D02*
X005060Y015894D01*
X005060Y015992D02*
X009939Y015992D01*
X009939Y016091D02*
X005060Y016091D01*
X005060Y016189D02*
X009939Y016189D01*
X009939Y016288D02*
X005060Y016288D01*
X005060Y016386D02*
X009939Y016386D01*
X009939Y016485D02*
X005060Y016485D01*
X005060Y016583D02*
X009939Y016583D01*
X009939Y016682D02*
X005060Y016682D01*
X005060Y016780D02*
X009939Y016780D01*
X009939Y016879D02*
X005060Y016879D01*
X005060Y016977D02*
X009939Y016977D01*
X009939Y017076D02*
X007584Y017076D01*
X007651Y017174D02*
X009939Y017174D01*
X009939Y017273D02*
X007672Y017273D01*
X007661Y017371D02*
X009939Y017371D01*
X009939Y017470D02*
X007608Y017470D01*
X007582Y017568D02*
X009939Y017568D01*
X009939Y017667D02*
X007582Y017667D01*
X007582Y017765D02*
X009939Y017765D01*
X009939Y017864D02*
X007582Y017864D01*
X007582Y017962D02*
X009939Y017962D01*
X009939Y018061D02*
X007582Y018061D01*
X007582Y018159D02*
X009939Y018159D01*
X009939Y018258D02*
X007582Y018258D01*
X007582Y018356D02*
X009939Y018356D01*
X009939Y018455D02*
X007582Y018455D01*
X007582Y018553D02*
X009939Y018553D01*
X009939Y018652D02*
X007582Y018652D01*
X007582Y018750D02*
X009939Y018750D01*
X009939Y018849D02*
X007582Y018849D01*
X007582Y018947D02*
X009939Y018947D01*
X009714Y019046D02*
X009703Y019046D01*
X009362Y019046D02*
X009262Y019046D01*
X009262Y018962D02*
X009036Y018962D01*
X008998Y018972D01*
X008964Y018992D01*
X008936Y019020D01*
X008916Y019054D01*
X008906Y019092D01*
X008906Y019357D01*
X009262Y019357D01*
X009262Y018962D01*
X009262Y019144D02*
X009362Y019144D01*
X009362Y019243D02*
X009262Y019243D01*
X009262Y019341D02*
X009362Y019341D01*
X009351Y019368D02*
X009312Y019407D01*
X009262Y019440D02*
X008228Y019440D01*
X008228Y019465D02*
X008584Y019465D01*
X008584Y019730D01*
X008573Y019768D01*
X008554Y019802D01*
X008526Y019830D01*
X008492Y019850D01*
X008453Y019860D01*
X008228Y019860D01*
X008228Y019465D01*
X008178Y019415D02*
X008138Y019454D01*
X008131Y019411D02*
X008134Y019407D01*
X008128Y019341D02*
X008228Y019341D01*
X008228Y019365D02*
X008228Y018969D01*
X008453Y018969D01*
X008492Y018980D01*
X008526Y018999D01*
X008554Y019027D01*
X008573Y019062D01*
X008584Y019100D01*
X008584Y019365D01*
X008228Y019365D01*
X008228Y019243D02*
X008128Y019243D01*
X008128Y019144D02*
X008228Y019144D01*
X008228Y019046D02*
X008128Y019046D01*
X008128Y019538D02*
X008228Y019538D01*
X008228Y019637D02*
X008128Y019637D01*
X008128Y019735D02*
X008228Y019735D01*
X008228Y019834D02*
X008128Y019834D01*
X008209Y019932D02*
X010136Y019932D01*
X010136Y019834D02*
X009640Y019834D01*
X009362Y019834D02*
X009262Y019834D01*
X009262Y019735D02*
X009362Y019735D01*
X009362Y019637D02*
X009262Y019637D01*
X009262Y019538D02*
X009362Y019538D01*
X008906Y019538D02*
X008584Y019538D01*
X008584Y019637D02*
X008906Y019637D01*
X008909Y019735D02*
X008582Y019735D01*
X008519Y019834D02*
X008984Y019834D01*
X008906Y019341D02*
X008584Y019341D01*
X008584Y019243D02*
X008906Y019243D01*
X008906Y019144D02*
X008584Y019144D01*
X008564Y019046D02*
X008921Y019046D01*
X007791Y019046D02*
X007767Y019046D01*
X007497Y020622D02*
X005060Y020622D01*
X005060Y020720D02*
X007497Y020720D01*
X007513Y020819D02*
X005060Y020819D01*
X005060Y020917D02*
X007644Y020917D01*
X007478Y021016D02*
X007381Y021016D01*
X007381Y020922D02*
X007381Y021299D01*
X007083Y021299D01*
X007083Y021053D01*
X007093Y021014D01*
X007113Y020980D01*
X007141Y020952D01*
X007175Y020932D01*
X007213Y020922D01*
X007381Y020922D01*
X007381Y021114D02*
X007478Y021114D01*
X007478Y021213D02*
X007381Y021213D01*
X007381Y021311D02*
X005060Y021311D01*
X005060Y021213D02*
X007083Y021213D01*
X007083Y021114D02*
X005060Y021114D01*
X005060Y021016D02*
X007093Y021016D01*
X007083Y021396D02*
X007381Y021396D01*
X007381Y021773D01*
X007213Y021773D01*
X007175Y021763D01*
X007141Y021743D01*
X007113Y021716D01*
X007093Y021681D01*
X007083Y021643D01*
X007083Y021396D01*
X007083Y021410D02*
X005060Y021410D01*
X005060Y021508D02*
X007083Y021508D01*
X007083Y021607D02*
X005060Y021607D01*
X005060Y021705D02*
X007107Y021705D01*
X007381Y021705D02*
X007478Y021705D01*
X007478Y021607D02*
X007381Y021607D01*
X007381Y021508D02*
X007478Y021508D01*
X007478Y021410D02*
X007381Y021410D01*
X007644Y021804D02*
X005060Y021804D01*
X005060Y021902D02*
X007644Y021902D01*
X007644Y022001D02*
X005060Y022001D01*
X005060Y022099D02*
X007644Y022099D01*
X007412Y022198D02*
X005060Y022198D01*
X005060Y022296D02*
X007398Y022296D01*
X007398Y022395D02*
X005060Y022395D01*
X005060Y022493D02*
X007398Y022493D01*
X007398Y022592D02*
X007069Y022592D01*
X007083Y022690D02*
X008585Y022690D01*
X008487Y022592D02*
X008209Y022592D01*
X008184Y022789D02*
X008684Y022789D01*
X008782Y022887D02*
X008209Y022887D01*
X008209Y022986D02*
X008881Y022986D01*
X008915Y023380D02*
X008225Y023380D01*
X008219Y023370D02*
X008239Y023404D01*
X008249Y023442D01*
X008249Y023591D01*
X007832Y023591D01*
X007832Y023312D01*
X008119Y023312D01*
X008157Y023322D01*
X008191Y023342D01*
X008219Y023370D01*
X008249Y023478D02*
X008915Y023478D01*
X008915Y023577D02*
X008249Y023577D01*
X008249Y023648D02*
X007832Y023648D01*
X007775Y023648D01*
X007775Y023591D01*
X007358Y023591D01*
X007358Y023442D01*
X007369Y023404D01*
X007388Y023370D01*
X007416Y023342D01*
X007451Y023322D01*
X007489Y023312D01*
X007775Y023312D01*
X007775Y023591D01*
X007832Y023591D01*
X007832Y023648D01*
X007832Y023927D01*
X008119Y023927D01*
X008157Y023917D01*
X008191Y023897D01*
X008219Y023869D01*
X008239Y023835D01*
X008249Y023797D01*
X008249Y023648D01*
X008249Y023675D02*
X008915Y023675D01*
X008915Y023774D02*
X008249Y023774D01*
X008216Y023872D02*
X008915Y023872D01*
X008915Y023971D02*
X008161Y023971D01*
X008145Y023954D02*
X008209Y024019D01*
X008209Y024425D01*
X008145Y024489D01*
X007463Y024489D01*
X007425Y024452D01*
X006754Y024452D01*
X006711Y024470D01*
X006526Y024470D01*
X006356Y024399D01*
X006225Y024268D01*
X006154Y024098D01*
X006154Y023913D01*
X006225Y023742D01*
X006356Y023612D01*
X006526Y023541D01*
X006711Y023541D01*
X006882Y023612D01*
X007012Y023742D01*
X007083Y023913D01*
X007083Y023992D01*
X007425Y023992D01*
X007463Y023954D01*
X008145Y023954D01*
X008209Y024069D02*
X008915Y024069D01*
X008915Y024168D02*
X008209Y024168D01*
X008209Y024266D02*
X008915Y024266D01*
X008915Y024365D02*
X008209Y024365D01*
X008171Y024463D02*
X008875Y024463D01*
X009426Y024257D02*
X009426Y025139D01*
X009752Y024759D02*
X009794Y024759D01*
X010124Y024759D02*
X010224Y024759D01*
X010224Y024857D02*
X010124Y024857D01*
X010124Y024956D02*
X010224Y024956D01*
X010224Y025054D02*
X010124Y025054D01*
X010224Y025153D02*
X014697Y025153D01*
X014697Y025251D02*
X010580Y025251D01*
X010580Y025350D02*
X014704Y025350D01*
X014804Y025448D02*
X010580Y025448D01*
X010530Y025547D02*
X023760Y025547D01*
X023760Y025645D02*
X004981Y025645D01*
X004981Y025547D02*
X007326Y025547D01*
X007276Y025448D02*
X004981Y025448D01*
X004981Y025350D02*
X007276Y025350D01*
X007276Y025251D02*
X004981Y025251D01*
X004981Y025153D02*
X007632Y025153D01*
X007632Y025089D02*
X007276Y025089D01*
X007276Y024824D01*
X007286Y024786D01*
X007306Y024752D01*
X007334Y024724D01*
X007368Y024704D01*
X007406Y024694D01*
X007632Y024694D01*
X007632Y025089D01*
X007632Y025054D02*
X007732Y025054D01*
X007732Y024956D02*
X007632Y024956D01*
X007632Y024857D02*
X007732Y024857D01*
X007732Y024759D02*
X007632Y024759D01*
X007437Y024463D02*
X006726Y024463D01*
X006511Y024463D02*
X004981Y024463D01*
X004981Y024365D02*
X006321Y024365D01*
X006224Y024266D02*
X004981Y024266D01*
X004981Y024168D02*
X006183Y024168D01*
X006154Y024069D02*
X004981Y024069D01*
X004981Y023971D02*
X006154Y023971D01*
X006171Y023872D02*
X004981Y023872D01*
X004981Y023774D02*
X006212Y023774D01*
X006292Y023675D02*
X004981Y023675D01*
X004981Y023577D02*
X006440Y023577D01*
X006154Y023380D02*
X005146Y023380D01*
X005047Y023478D02*
X007358Y023478D01*
X007358Y023577D02*
X006797Y023577D01*
X006945Y023675D02*
X007358Y023675D01*
X007358Y023648D02*
X007775Y023648D01*
X007775Y023927D01*
X007489Y023927D01*
X007451Y023917D01*
X007416Y023897D01*
X007388Y023869D01*
X007369Y023835D01*
X007358Y023797D01*
X007358Y023648D01*
X007358Y023774D02*
X007025Y023774D01*
X007066Y023872D02*
X007392Y023872D01*
X007447Y023971D02*
X007083Y023971D01*
X007083Y023380D02*
X007383Y023380D01*
X007775Y023380D02*
X007832Y023380D01*
X007832Y023478D02*
X007775Y023478D01*
X007775Y023577D02*
X007832Y023577D01*
X007832Y023675D02*
X007775Y023675D01*
X007775Y023774D02*
X007832Y023774D01*
X007832Y023872D02*
X007775Y023872D01*
X008062Y024759D02*
X008103Y024759D01*
X008445Y025119D02*
X008445Y025159D01*
X008410Y025159D02*
X008406Y025159D01*
X008445Y025119D02*
X008485Y025080D01*
X008037Y025547D02*
X009818Y025547D01*
X010124Y025547D02*
X010224Y025547D01*
X010224Y025448D02*
X010124Y025448D01*
X010124Y025350D02*
X010224Y025350D01*
X010224Y025251D02*
X010124Y025251D01*
X010075Y024463D02*
X009586Y024463D01*
X009586Y024365D02*
X010036Y024365D01*
X009964Y024266D02*
X009643Y024266D01*
X009742Y024168D02*
X009866Y024168D01*
X010138Y024214D02*
X009804Y023879D01*
X009426Y024257D01*
X009804Y023879D02*
X009804Y020482D01*
X009964Y020917D02*
X010136Y020917D01*
X010456Y019932D02*
X010723Y019932D01*
X010697Y019834D02*
X010456Y019834D01*
X010456Y019735D02*
X010697Y019735D01*
X010697Y019637D02*
X010433Y019637D01*
X010426Y019538D02*
X011329Y019538D01*
X011379Y019494D02*
X011379Y019352D01*
X011329Y019341D02*
X011429Y019341D01*
X011429Y019243D02*
X011329Y019243D01*
X011329Y019144D02*
X011429Y019144D01*
X011429Y019046D02*
X011329Y019046D01*
X011329Y018989D02*
X011329Y019444D01*
X010697Y019444D01*
X010697Y019119D01*
X010707Y019081D01*
X010727Y019047D01*
X010755Y019019D01*
X010789Y018999D01*
X010827Y018989D01*
X011329Y018989D01*
X011329Y019440D02*
X011429Y019440D01*
X010697Y019440D02*
X010426Y019440D01*
X010426Y019341D02*
X010697Y019341D01*
X010697Y019243D02*
X010426Y019243D01*
X010426Y019144D02*
X010697Y019144D01*
X010728Y019046D02*
X010405Y019046D01*
X010259Y017174D02*
X011785Y017174D01*
X011764Y017076D02*
X010259Y017076D01*
X010259Y016977D02*
X011764Y016977D01*
X011764Y017038D02*
X012130Y017038D01*
X012130Y017038D01*
X011764Y017038D01*
X011802Y016879D02*
X010259Y016879D01*
X010259Y016780D02*
X011804Y016780D01*
X011804Y016682D02*
X010259Y016682D01*
X010259Y016583D02*
X011804Y016583D01*
X011804Y016485D02*
X010259Y016485D01*
X010259Y016386D02*
X011804Y016386D01*
X011804Y016288D02*
X010259Y016288D01*
X010259Y016189D02*
X011804Y016189D01*
X011804Y016091D02*
X010259Y016091D01*
X010259Y015992D02*
X011804Y015992D01*
X011804Y015894D02*
X010259Y015894D01*
X010259Y015795D02*
X011804Y015795D01*
X011804Y015697D02*
X010259Y015697D01*
X010259Y015598D02*
X011804Y015598D01*
X011804Y015500D02*
X010259Y015500D01*
X010259Y015401D02*
X011804Y015401D01*
X011804Y015303D02*
X010259Y015303D01*
X010259Y015204D02*
X011804Y015204D01*
X011750Y015038D02*
X012130Y015038D01*
X011750Y015038D02*
X011414Y014702D01*
X011414Y012383D01*
X011072Y012249D02*
X010799Y012249D01*
X010792Y012227D02*
X010811Y012288D01*
X010821Y012351D01*
X010821Y012355D01*
X010443Y012355D01*
X010443Y012412D01*
X010821Y012412D01*
X010821Y012415D01*
X010811Y012479D01*
X010792Y012540D01*
X010762Y012597D01*
X010725Y012649D01*
X010679Y012694D01*
X010628Y012732D01*
X010570Y012761D01*
X010509Y012781D01*
X010446Y012791D01*
X010443Y012791D01*
X010443Y012412D01*
X010385Y012412D01*
X010385Y012355D01*
X010007Y012355D01*
X010007Y012351D01*
X010017Y012288D01*
X010036Y012227D01*
X010065Y012170D01*
X010103Y012118D01*
X010149Y012072D01*
X010200Y012035D01*
X010258Y012006D01*
X010319Y011986D01*
X010382Y011976D01*
X010385Y011976D01*
X010385Y012355D01*
X010443Y012355D01*
X010443Y011976D01*
X010446Y011976D01*
X010509Y011986D01*
X010570Y012006D01*
X010628Y012035D01*
X010679Y012072D01*
X010725Y012118D01*
X010762Y012170D01*
X010792Y012227D01*
X010749Y012151D02*
X011127Y012151D01*
X011253Y012052D02*
X010652Y012052D01*
X010443Y012052D02*
X010385Y012052D01*
X010385Y012151D02*
X010443Y012151D01*
X010443Y012249D02*
X010385Y012249D01*
X010385Y012348D02*
X010443Y012348D01*
X010385Y012412D02*
X010007Y012412D01*
X010007Y012415D01*
X010017Y012479D01*
X010036Y012540D01*
X010065Y012597D01*
X010103Y012649D01*
X010149Y012694D01*
X010200Y012732D01*
X010258Y012761D01*
X010319Y012781D01*
X010382Y012791D01*
X010385Y012791D01*
X010385Y012412D01*
X010385Y012446D02*
X010443Y012446D01*
X010443Y012545D02*
X010385Y012545D01*
X010385Y012643D02*
X010443Y012643D01*
X010443Y012742D02*
X010385Y012742D01*
X010220Y012742D02*
X005060Y012742D01*
X005060Y012840D02*
X011254Y012840D01*
X011254Y012742D02*
X010608Y012742D01*
X010729Y012643D02*
X011154Y012643D01*
X011083Y012545D02*
X010789Y012545D01*
X010817Y012446D02*
X011047Y012446D01*
X011047Y012348D02*
X010821Y012348D01*
X011254Y012939D02*
X005060Y012939D01*
X005060Y013037D02*
X011254Y013037D01*
X011254Y013136D02*
X005060Y013136D01*
X005060Y013234D02*
X009921Y013234D01*
X010277Y013234D02*
X011254Y013234D01*
X011254Y013333D02*
X010358Y013333D01*
X010389Y013431D02*
X011254Y013431D01*
X011254Y013530D02*
X010386Y013530D01*
X010346Y013628D02*
X011254Y013628D01*
X011254Y013727D02*
X010259Y013727D01*
X010259Y013825D02*
X011254Y013825D01*
X011254Y013924D02*
X010259Y013924D01*
X010259Y014022D02*
X011254Y014022D01*
X011254Y014121D02*
X010259Y014121D01*
X010259Y014219D02*
X011254Y014219D01*
X011254Y014318D02*
X010259Y014318D01*
X010259Y014416D02*
X011254Y014416D01*
X011254Y014515D02*
X010259Y014515D01*
X010259Y014613D02*
X011254Y014613D01*
X011254Y014712D02*
X010259Y014712D01*
X010259Y014810D02*
X011296Y014810D01*
X011394Y014909D02*
X010259Y014909D01*
X010259Y015007D02*
X011493Y015007D01*
X011591Y015106D02*
X010259Y015106D01*
X011574Y014613D02*
X012574Y014613D01*
X012603Y014712D02*
X012435Y014712D01*
X012457Y014810D02*
X012505Y014810D01*
X012731Y014810D02*
X013254Y014810D01*
X013480Y014691D02*
X013480Y014288D01*
X013680Y014288D02*
X013680Y013538D01*
X013705Y013513D01*
X014098Y013136D02*
X014114Y013136D01*
X014151Y013037D02*
X014868Y013037D01*
X014872Y012939D02*
X014151Y012939D01*
X014151Y012840D02*
X014872Y012840D01*
X014872Y012742D02*
X013755Y012742D01*
X013755Y012643D02*
X013655Y012643D01*
X013655Y012545D02*
X013755Y012545D01*
X013755Y012446D02*
X013655Y012446D01*
X013655Y012742D02*
X012999Y012742D01*
X013040Y012840D02*
X013260Y012840D01*
X013260Y012939D02*
X013040Y012939D01*
X013040Y013037D02*
X013260Y013037D01*
X013313Y013136D02*
X013040Y013136D01*
X013040Y013234D02*
X013300Y013234D01*
X013300Y013333D02*
X013040Y013333D01*
X013040Y013431D02*
X013300Y013431D01*
X013300Y013530D02*
X013040Y013530D01*
X013040Y013628D02*
X013300Y013628D01*
X013300Y013727D02*
X013040Y013727D01*
X013040Y013825D02*
X013311Y013825D01*
X013520Y013924D02*
X013040Y013924D01*
X012720Y013924D02*
X011574Y013924D01*
X011574Y014022D02*
X012515Y014022D01*
X012511Y014121D02*
X011574Y014121D01*
X011574Y014219D02*
X012511Y014219D01*
X012511Y014318D02*
X011574Y014318D01*
X011574Y014416D02*
X012511Y014416D01*
X012511Y014515D02*
X011574Y014515D01*
X011650Y014712D02*
X011826Y014712D01*
X011804Y014810D02*
X011748Y014810D01*
X011574Y013825D02*
X012720Y013825D01*
X012720Y013727D02*
X011574Y013727D01*
X011574Y013628D02*
X012720Y013628D01*
X012720Y013530D02*
X011574Y013530D01*
X011574Y013431D02*
X012720Y013431D01*
X012720Y013333D02*
X011574Y013333D01*
X011574Y013234D02*
X012720Y013234D01*
X012720Y013136D02*
X011574Y013136D01*
X011574Y013037D02*
X012720Y013037D01*
X012720Y012939D02*
X011574Y012939D01*
X011574Y012840D02*
X012645Y012840D01*
X012546Y012742D02*
X012509Y012742D01*
X012319Y012742D02*
X011574Y012742D01*
X011674Y012643D02*
X012154Y012643D01*
X012083Y012545D02*
X011745Y012545D01*
X011781Y012446D02*
X012047Y012446D01*
X012047Y012348D02*
X011781Y012348D01*
X011756Y012249D02*
X012072Y012249D01*
X012127Y012151D02*
X011701Y012151D01*
X011575Y012052D02*
X012253Y012052D01*
X012575Y012052D02*
X014760Y012052D01*
X014677Y012151D02*
X012701Y012151D01*
X012756Y012249D02*
X014636Y012249D01*
X014625Y012348D02*
X012781Y012348D01*
X012781Y012446D02*
X013273Y012446D01*
X013260Y012545D02*
X012802Y012545D01*
X012900Y012643D02*
X013260Y012643D01*
X012880Y012849D02*
X012414Y012383D01*
X012880Y012849D02*
X012880Y014288D01*
X013880Y014288D02*
X013880Y014288D01*
X013880Y014655D01*
X013880Y014613D02*
X013880Y014613D01*
X013880Y014515D02*
X013880Y014515D01*
X013880Y014416D02*
X013880Y014416D01*
X013880Y014318D02*
X013880Y014318D01*
X013880Y014219D02*
X013880Y014219D01*
X013880Y014121D02*
X013880Y014121D01*
X013880Y014022D02*
X013880Y014022D01*
X013880Y013924D02*
X013880Y013924D01*
X014080Y013934D02*
X014080Y014288D01*
X014080Y013934D02*
X014233Y013781D01*
X014233Y013427D01*
X014312Y013348D01*
X014578Y013234D02*
X014671Y013234D01*
X014770Y013136D02*
X014510Y013136D01*
X014828Y013530D02*
X023839Y013530D01*
X023839Y013628D02*
X014730Y013628D01*
X014640Y013727D02*
X023839Y013727D01*
X023839Y013825D02*
X014640Y013825D01*
X014927Y013431D02*
X023839Y013431D01*
X023839Y013333D02*
X015025Y013333D01*
X015124Y013234D02*
X023839Y013234D01*
X023839Y013136D02*
X015192Y013136D01*
X015192Y013037D02*
X023839Y013037D01*
X023839Y012939D02*
X015192Y012939D01*
X014744Y012643D02*
X014151Y012643D01*
X014151Y012545D02*
X014670Y012545D01*
X014629Y012446D02*
X014137Y012446D01*
X015408Y011067D02*
X015508Y011067D01*
X015508Y011156D02*
X015508Y010816D01*
X016048Y010816D01*
X016048Y011025D01*
X016038Y011064D01*
X016018Y011098D01*
X015990Y011126D01*
X015956Y011145D01*
X015918Y011156D01*
X015508Y011156D01*
X015508Y010969D02*
X015408Y010969D01*
X015408Y010870D02*
X015508Y010870D01*
X015508Y010772D02*
X021949Y010772D01*
X021972Y010784D02*
X021902Y010748D01*
X021837Y010701D01*
X021781Y010645D01*
X021735Y010581D01*
X021699Y010510D01*
X021674Y010434D01*
X021663Y010366D01*
X022116Y010366D01*
X022116Y010266D01*
X022216Y010266D01*
X022216Y009814D01*
X022284Y009824D01*
X022360Y009849D01*
X022430Y009885D01*
X022495Y009932D01*
X022551Y009988D01*
X022597Y010052D01*
X022633Y010123D01*
X022658Y010198D01*
X022669Y010266D01*
X022216Y010266D01*
X022216Y010366D01*
X022669Y010366D01*
X022658Y010434D01*
X022633Y010510D01*
X022597Y010581D01*
X022551Y010645D01*
X022495Y010701D01*
X022430Y010748D01*
X022360Y010784D01*
X022284Y010808D01*
X022216Y010819D01*
X022216Y010366D01*
X022116Y010366D01*
X022116Y010819D01*
X022048Y010808D01*
X021972Y010784D01*
X022116Y010772D02*
X022216Y010772D01*
X022216Y010673D02*
X022116Y010673D01*
X022116Y010575D02*
X022216Y010575D01*
X022216Y010476D02*
X022116Y010476D01*
X022116Y010378D02*
X022216Y010378D01*
X022216Y010279D02*
X023839Y010279D01*
X023839Y010181D02*
X022652Y010181D01*
X022613Y010082D02*
X023839Y010082D01*
X023839Y009984D02*
X022547Y009984D01*
X022431Y009885D02*
X023839Y009885D01*
X023839Y009787D02*
X020539Y009787D01*
X020590Y009688D02*
X021702Y009688D01*
X021702Y009590D02*
X020590Y009590D01*
X020590Y009491D02*
X021702Y009491D01*
X021702Y009393D02*
X020582Y009393D01*
X020483Y009294D02*
X021702Y009294D01*
X021702Y009196D02*
X020385Y009196D01*
X020286Y009097D02*
X021662Y009097D01*
X021563Y008999D02*
X016008Y008999D01*
X016008Y009097D02*
X016801Y009097D01*
X016703Y009196D02*
X016008Y009196D01*
X015945Y009294D02*
X016604Y009294D01*
X016008Y008900D02*
X021465Y008900D01*
X021366Y008802D02*
X016008Y008802D01*
X016056Y008703D02*
X021268Y008703D01*
X021609Y008309D02*
X023839Y008309D01*
X023839Y008211D02*
X021511Y008211D01*
X021708Y008408D02*
X023839Y008408D01*
X023839Y008506D02*
X021806Y008506D01*
X021905Y008605D02*
X023839Y008605D01*
X023839Y008703D02*
X022003Y008703D01*
X022102Y008802D02*
X023839Y008802D01*
X023839Y008900D02*
X022614Y008900D01*
X022630Y008999D02*
X023839Y008999D01*
X023839Y009097D02*
X022630Y009097D01*
X022630Y009196D02*
X023839Y009196D01*
X023839Y009294D02*
X022630Y009294D01*
X022630Y009393D02*
X023839Y009393D01*
X023839Y009491D02*
X022630Y009491D01*
X022630Y009590D02*
X023839Y009590D01*
X023839Y009688D02*
X022630Y009688D01*
X022216Y009885D02*
X022116Y009885D01*
X022116Y009814D02*
X022116Y010266D01*
X021663Y010266D01*
X021674Y010198D01*
X021699Y010123D01*
X021735Y010052D01*
X021781Y009988D01*
X021837Y009932D01*
X021902Y009885D01*
X021972Y009849D01*
X022048Y009824D01*
X022116Y009814D01*
X022116Y009984D02*
X022216Y009984D01*
X022216Y010082D02*
X022116Y010082D01*
X022116Y010181D02*
X022216Y010181D01*
X022116Y010279D02*
X020298Y010279D01*
X020310Y010268D02*
X020094Y010484D01*
X019951Y010484D01*
X019951Y010125D01*
X020310Y010125D01*
X020310Y010268D01*
X020310Y010181D02*
X021680Y010181D01*
X021719Y010082D02*
X020310Y010082D01*
X020310Y009984D02*
X021785Y009984D01*
X021901Y009885D02*
X020440Y009885D01*
X020200Y010378D02*
X021665Y010378D01*
X021688Y010476D02*
X020101Y010476D01*
X019951Y010476D02*
X019932Y010476D01*
X019932Y010484D02*
X019789Y010484D01*
X019573Y010268D01*
X019573Y010125D01*
X019932Y010125D01*
X019932Y010484D01*
X019932Y010378D02*
X019951Y010378D01*
X019951Y010279D02*
X019932Y010279D01*
X019932Y010181D02*
X019951Y010181D01*
X019683Y010378D02*
X018767Y010378D01*
X018668Y010476D02*
X019782Y010476D01*
X019585Y010279D02*
X018865Y010279D01*
X018964Y010181D02*
X019573Y010181D01*
X019573Y010082D02*
X019062Y010082D01*
X019161Y009984D02*
X019573Y009984D01*
X018570Y010575D02*
X021732Y010575D01*
X021810Y010673D02*
X018471Y010673D01*
X017304Y012052D02*
X023839Y012052D01*
X023839Y011954D02*
X017125Y011954D01*
X017388Y012151D02*
X023839Y012151D01*
X023839Y012249D02*
X017428Y012249D01*
X017439Y012348D02*
X023839Y012348D01*
X023839Y012446D02*
X017435Y012446D01*
X017394Y012545D02*
X023839Y012545D01*
X023839Y012643D02*
X017320Y012643D01*
X016035Y011067D02*
X023839Y011067D01*
X023839Y010969D02*
X016048Y010969D01*
X016048Y010870D02*
X023839Y010870D01*
X023839Y010772D02*
X022383Y010772D01*
X022522Y010673D02*
X023839Y010673D01*
X023839Y010575D02*
X022600Y010575D01*
X022644Y010476D02*
X023839Y010476D01*
X023839Y010378D02*
X022667Y010378D01*
X023839Y014712D02*
X015735Y014712D01*
X015757Y014810D02*
X023839Y014810D01*
X023839Y014909D02*
X015757Y014909D01*
X015757Y015007D02*
X023839Y015007D01*
X023839Y015106D02*
X015757Y015106D01*
X015757Y015204D02*
X023839Y015204D01*
X023839Y015303D02*
X015757Y015303D01*
X015757Y015401D02*
X023839Y015401D01*
X023839Y015500D02*
X015757Y015500D01*
X015757Y015598D02*
X023839Y015598D01*
X023839Y016288D02*
X017675Y016288D01*
X017773Y016386D02*
X023839Y016386D01*
X023839Y016485D02*
X017818Y016485D01*
X017818Y016583D02*
X023839Y016583D01*
X023839Y016682D02*
X017818Y016682D01*
X017818Y016780D02*
X023839Y016780D01*
X023839Y016879D02*
X017818Y016879D01*
X017818Y016977D02*
X023839Y016977D01*
X023839Y017076D02*
X017818Y017076D01*
X017818Y017174D02*
X023839Y017174D01*
X019823Y018781D02*
X019430Y018387D01*
X019311Y018652D02*
X017462Y018652D01*
X017364Y018750D02*
X019566Y018750D01*
X019663Y018849D02*
X017265Y018849D01*
X017167Y018947D02*
X018185Y018947D01*
X018192Y018940D02*
X018226Y018921D01*
X018264Y018910D01*
X018766Y018910D01*
X018766Y019365D01*
X018866Y019365D01*
X018866Y019465D01*
X019497Y019465D01*
X019497Y019789D01*
X019487Y019827D01*
X019467Y019861D01*
X019439Y019889D01*
X019405Y019909D01*
X019367Y019919D01*
X018866Y019919D01*
X018866Y019465D01*
X018766Y019465D01*
X018766Y019919D01*
X018264Y019919D01*
X018226Y019909D01*
X018192Y019889D01*
X018164Y019861D01*
X018144Y019827D01*
X018134Y019789D01*
X018134Y019465D01*
X018766Y019465D01*
X018766Y019365D01*
X018134Y019365D01*
X018134Y019041D01*
X018144Y019003D01*
X018164Y018968D01*
X018192Y018940D01*
X018134Y019046D02*
X017993Y019046D01*
X018048Y019144D02*
X018134Y019144D01*
X018134Y019243D02*
X018048Y019243D01*
X018048Y019341D02*
X018134Y019341D01*
X018134Y019538D02*
X018048Y019538D01*
X018048Y019637D02*
X018134Y019637D01*
X018134Y019735D02*
X018048Y019735D01*
X018025Y019834D02*
X018148Y019834D01*
X017857Y020129D02*
X019509Y020129D01*
X019607Y020031D02*
X017835Y020031D01*
X017736Y019932D02*
X019663Y019932D01*
X019663Y019834D02*
X019483Y019834D01*
X019497Y019735D02*
X019663Y019735D01*
X019663Y019637D02*
X019497Y019637D01*
X019497Y019538D02*
X019663Y019538D01*
X019663Y019440D02*
X018866Y019440D01*
X018866Y019365D02*
X019497Y019365D01*
X019497Y019041D01*
X019487Y019003D01*
X019467Y018968D01*
X019439Y018940D01*
X019405Y018921D01*
X019367Y018910D01*
X018866Y018910D01*
X018866Y019365D01*
X018866Y019341D02*
X018766Y019341D01*
X018766Y019243D02*
X018866Y019243D01*
X018866Y019144D02*
X018766Y019144D01*
X018766Y019046D02*
X018866Y019046D01*
X018866Y018947D02*
X018766Y018947D01*
X018766Y019440D02*
X017692Y019440D01*
X017692Y019341D02*
X017592Y019341D01*
X017592Y019243D02*
X017692Y019243D01*
X017692Y019144D02*
X017592Y019144D01*
X017592Y019046D02*
X017692Y019046D01*
X017291Y019046D02*
X017070Y019046D01*
X017561Y018553D02*
X019186Y018553D01*
X019144Y018455D02*
X017659Y018455D01*
X017758Y018356D02*
X019140Y018356D01*
X019169Y018258D02*
X017818Y018258D01*
X017818Y018159D02*
X019248Y018159D01*
X019446Y018947D02*
X019663Y018947D01*
X019663Y019046D02*
X019497Y019046D01*
X019497Y019144D02*
X019663Y019144D01*
X019663Y019243D02*
X019497Y019243D01*
X019497Y019341D02*
X019663Y019341D01*
X019823Y018781D02*
X019823Y020041D01*
X018800Y021064D01*
X018800Y021163D01*
X018816Y021147D01*
X018800Y021163D02*
X018800Y022364D01*
X018237Y022927D01*
X017764Y022927D01*
X017924Y021902D02*
X018640Y021902D01*
X018640Y021804D02*
X017924Y021804D01*
X017925Y021705D02*
X018640Y021705D01*
X018234Y021607D02*
X017969Y021607D01*
X017969Y021508D02*
X018174Y021508D01*
X018174Y021410D02*
X017969Y021410D01*
X017969Y021311D02*
X018174Y021311D01*
X018174Y021213D02*
X017969Y021213D01*
X017969Y021114D02*
X018174Y021114D01*
X018174Y021016D02*
X017966Y021016D01*
X017857Y020917D02*
X018174Y020917D01*
X018174Y020819D02*
X017857Y020819D01*
X017857Y020720D02*
X018201Y020720D01*
X017857Y020622D02*
X019016Y020622D01*
X019115Y020523D02*
X017857Y020523D01*
X017857Y020425D02*
X019213Y020425D01*
X019312Y020326D02*
X017857Y020326D01*
X017857Y020228D02*
X019410Y020228D01*
X018866Y019834D02*
X018766Y019834D01*
X018766Y019735D02*
X018866Y019735D01*
X018866Y019637D02*
X018766Y019637D01*
X018766Y019538D02*
X018866Y019538D01*
X017288Y020474D02*
X017288Y024001D01*
X017304Y024017D01*
X017281Y024266D02*
X017327Y024266D01*
X017620Y024562D02*
X017720Y024562D01*
X017720Y024660D02*
X017620Y024660D01*
X017620Y024759D02*
X017720Y024759D01*
X017720Y024857D02*
X017620Y024857D01*
X018076Y025054D02*
X023760Y025054D01*
X023760Y025153D02*
X018076Y025153D01*
X018076Y025251D02*
X023760Y025251D01*
X023760Y025744D02*
X004985Y025744D01*
X004989Y025842D02*
X023760Y025842D01*
X023760Y025941D02*
X004993Y025941D01*
X004997Y026039D02*
X023760Y026039D01*
X023760Y026138D02*
X005001Y026138D01*
X005005Y026236D02*
X023760Y026236D01*
X023760Y026335D02*
X005009Y026335D01*
X005013Y026433D02*
X023760Y026433D01*
X023760Y026532D02*
X005017Y026532D01*
X005035Y026630D02*
X023760Y026630D01*
X022746Y024069D02*
X020924Y024069D01*
X020799Y023971D02*
X022658Y023971D01*
X020605Y023971D02*
X020545Y023971D01*
X020545Y024069D02*
X020605Y024069D01*
X020605Y024168D02*
X020545Y024168D01*
X020545Y024266D02*
X020605Y024266D01*
X020605Y024562D02*
X020545Y024562D01*
X020545Y024660D02*
X020605Y024660D01*
X020605Y024759D02*
X020545Y024759D01*
X020545Y022887D02*
X020605Y022887D01*
X020605Y022789D02*
X020545Y022789D01*
X020545Y022690D02*
X020605Y022690D01*
X020605Y022592D02*
X020545Y022592D01*
X016962Y021213D02*
X016866Y021213D01*
X016866Y021114D02*
X016962Y021114D01*
X016962Y021016D02*
X016866Y021016D01*
X016866Y020917D02*
X016962Y020917D01*
X016567Y021410D02*
X016276Y021410D01*
X016276Y021508D02*
X016567Y021508D01*
X016567Y021607D02*
X016276Y021607D01*
X016240Y021705D02*
X016596Y021705D01*
X016083Y021458D02*
X016079Y021458D01*
X015269Y021213D02*
X015173Y021213D01*
X015173Y021114D02*
X015269Y021114D01*
X015269Y021016D02*
X015173Y021016D01*
X014874Y021508D02*
X012020Y021508D01*
X012020Y021607D02*
X014874Y021607D01*
X014755Y022690D02*
X014410Y022690D01*
X014384Y022592D02*
X015613Y022592D01*
X015711Y022690D02*
X015499Y022690D01*
X015532Y022789D02*
X015810Y022789D01*
X015908Y022887D02*
X015532Y022887D01*
X015532Y022986D02*
X016007Y022986D01*
X016120Y023380D02*
X015572Y023380D01*
X015572Y023478D02*
X016120Y023478D01*
X016120Y023577D02*
X015572Y023577D01*
X015572Y023558D02*
X015572Y023706D01*
X015562Y023744D01*
X015542Y023779D01*
X015514Y023806D01*
X015480Y023826D01*
X015442Y023836D01*
X015155Y023836D01*
X015155Y023558D01*
X015572Y023558D01*
X015572Y023675D02*
X016120Y023675D01*
X016120Y023774D02*
X015545Y023774D01*
X015476Y023872D02*
X016120Y023872D01*
X016120Y023971D02*
X015532Y023971D01*
X015532Y024069D02*
X016120Y024069D01*
X016120Y024168D02*
X015532Y024168D01*
X015532Y024266D02*
X016120Y024266D01*
X016120Y024365D02*
X015501Y024365D01*
X015153Y024660D02*
X015053Y024660D01*
X015053Y024759D02*
X015153Y024759D01*
X015153Y024857D02*
X015053Y024857D01*
X015053Y024956D02*
X015153Y024956D01*
X014752Y024365D02*
X014255Y024365D01*
X014388Y023872D02*
X014777Y023872D01*
X014709Y023774D02*
X014347Y023774D01*
X014260Y023675D02*
X014681Y023675D01*
X014681Y023577D02*
X014096Y023577D01*
X014349Y023478D02*
X014681Y023478D01*
X014681Y023380D02*
X014410Y023380D01*
X015098Y023577D02*
X015155Y023577D01*
X015155Y023675D02*
X015098Y023675D01*
X015098Y023774D02*
X015155Y023774D01*
X011162Y023505D02*
X011044Y023623D01*
X010493Y023623D01*
X010453Y023663D01*
X010453Y023631D01*
X010442Y023619D01*
X010485Y023663D01*
X010453Y023663D02*
X010414Y023663D01*
X010375Y023623D01*
X010036Y023577D02*
X009964Y023577D01*
X009964Y023675D02*
X010036Y023675D01*
X010036Y023774D02*
X009964Y023774D01*
X010023Y023872D02*
X010086Y023872D01*
X010036Y023478D02*
X009964Y023478D01*
X009964Y023380D02*
X010073Y023380D01*
X010810Y023380D02*
X010872Y023380D01*
X011162Y023427D02*
X011162Y023505D01*
X011101Y022789D02*
X010821Y022789D01*
X010434Y024214D02*
X010138Y024214D01*
X010434Y024214D02*
X010442Y024222D01*
X009272Y023478D02*
X009235Y023478D01*
X007732Y025251D02*
X007632Y025251D01*
X007632Y025350D02*
X007732Y025350D01*
X007732Y025448D02*
X007632Y025448D01*
X007632Y025547D02*
X007732Y025547D01*
X007276Y025054D02*
X004981Y025054D01*
X004981Y024956D02*
X007276Y024956D01*
X007276Y024857D02*
X004981Y024857D01*
X004981Y024759D02*
X007302Y024759D01*
X006154Y022986D02*
X005091Y022986D01*
X005060Y022887D02*
X006154Y022887D01*
X006154Y022789D02*
X005060Y022789D01*
X005060Y022690D02*
X006154Y022690D01*
X006168Y022592D02*
X005060Y022592D01*
X012130Y017247D02*
X012130Y017038D01*
X012130Y017038D01*
X012130Y017247D01*
X012130Y017174D02*
X012130Y017174D01*
X012130Y017076D02*
X012130Y017076D01*
X012680Y016672D02*
X012680Y017588D01*
X013280Y017588D02*
X013280Y017955D01*
X013280Y017588D01*
X013280Y017588D01*
X013280Y017667D02*
X013280Y017667D01*
X013280Y017765D02*
X013280Y017765D01*
X013280Y017864D02*
X013280Y017864D01*
X013680Y017864D02*
X013680Y017864D01*
X013680Y017955D02*
X013680Y017588D01*
X013680Y017588D01*
X013680Y017955D01*
X013680Y017765D02*
X013680Y017765D01*
X013680Y017667D02*
X013680Y017667D01*
X013880Y017588D02*
X013880Y016890D01*
X013918Y016852D01*
X013918Y016812D01*
X013879Y016773D01*
X013918Y016852D02*
X013918Y016891D01*
X010099Y012643D02*
X005060Y012643D01*
X005060Y012545D02*
X010039Y012545D01*
X010011Y012446D02*
X005060Y012446D01*
X005060Y012348D02*
X010007Y012348D01*
X010029Y012249D02*
X005060Y012249D01*
X005060Y012151D02*
X010079Y012151D01*
X010176Y012052D02*
X005060Y012052D01*
X015925Y010378D02*
X016313Y010378D01*
X016412Y010476D02*
X016040Y010476D01*
X016048Y010575D02*
X016510Y010575D01*
X016609Y010673D02*
X016048Y010673D01*
D11*
X015430Y014838D03*
X015430Y015038D03*
X015430Y015238D03*
X015430Y015438D03*
X015430Y015638D03*
X015430Y015838D03*
X015430Y016038D03*
X015430Y016238D03*
X015430Y016438D03*
X015430Y016638D03*
X015430Y016838D03*
X015430Y017038D03*
X012130Y017038D03*
X012130Y016838D03*
X012130Y016638D03*
X012130Y016438D03*
X012130Y016238D03*
X012130Y016038D03*
X012130Y015838D03*
X012130Y015638D03*
X012130Y015438D03*
X012130Y015238D03*
X012130Y015038D03*
X012130Y014838D03*
D12*
X012680Y014288D03*
X012880Y014288D03*
X013080Y014288D03*
X013280Y014288D03*
X013480Y014288D03*
X013680Y014288D03*
X013880Y014288D03*
X014080Y014288D03*
X014280Y014288D03*
X014480Y014288D03*
X014680Y014288D03*
X014880Y014288D03*
X014880Y017588D03*
X014680Y017588D03*
X014480Y017588D03*
X014280Y017588D03*
X014080Y017588D03*
X013880Y017588D03*
X013680Y017588D03*
X013480Y017588D03*
X013280Y017588D03*
X013080Y017588D03*
X012880Y017588D03*
X012680Y017588D03*
D13*
X016213Y017616D03*
X016213Y016868D03*
X017119Y016875D03*
X017119Y017623D03*
X013705Y013513D03*
X013705Y012765D03*
D14*
X015032Y012356D03*
X016032Y012356D03*
X017032Y012356D03*
D15*
X015458Y010766D03*
X015458Y009856D03*
X015458Y008946D03*
D16*
X017898Y009856D03*
D17*
X019942Y010116D03*
X013406Y010151D03*
D18*
X013406Y009537D03*
X019942Y009501D03*
D19*
X017288Y020474D03*
X016914Y021340D03*
X017662Y021340D03*
X015969Y021348D03*
X015221Y021348D03*
X015595Y020482D03*
X010178Y021348D03*
X009430Y021348D03*
X009804Y020482D03*
X008178Y021348D03*
X007430Y021348D03*
X007804Y020482D03*
D20*
X008178Y019415D03*
X007430Y019415D03*
X009312Y019407D03*
X010060Y019407D03*
X015221Y019458D03*
X015969Y019458D03*
X016894Y019458D03*
X017642Y019458D03*
X017670Y025001D03*
X016922Y025001D03*
X015851Y025009D03*
X015103Y025009D03*
X010174Y025139D03*
X009426Y025139D03*
X008430Y025139D03*
X007682Y025139D03*
D21*
X006619Y023005D03*
X013945Y023017D03*
X023071Y022682D03*
X022166Y009316D03*
D22*
X022166Y010316D03*
X023071Y023682D03*
X013945Y024017D03*
X006619Y024005D03*
D23*
X020575Y022979D03*
D24*
X020575Y024379D03*
D25*
X018816Y021147D03*
X018816Y019415D03*
X011379Y019494D03*
X011379Y021226D03*
D26*
X011414Y012383D03*
X012414Y012383D03*
X010414Y012383D03*
D27*
X010442Y022415D03*
X010442Y023017D03*
X010442Y023619D03*
X010442Y024222D03*
X007804Y024222D03*
X007804Y023619D03*
X007804Y023017D03*
X007804Y022415D03*
X015127Y022324D03*
X015127Y022927D03*
X015127Y023529D03*
X015127Y024131D03*
X017764Y024131D03*
X017764Y023529D03*
X017764Y022927D03*
X017764Y022324D03*
D28*
X018406Y021891D03*
X018406Y020316D03*
X019430Y018387D03*
X018406Y017954D03*
X017107Y018230D03*
X016044Y018348D03*
X015257Y017639D03*
X014745Y018230D03*
X016438Y020316D03*
X014469Y021891D03*
X012894Y021891D03*
X012894Y019923D03*
X012501Y018348D03*
X010926Y018348D03*
X010926Y016379D03*
X010926Y014411D03*
X010099Y013466D03*
X012107Y014017D03*
X013209Y014962D03*
X014312Y013348D03*
X015257Y013623D03*
X013682Y011655D03*
X010926Y011261D03*
X007382Y017285D03*
X006595Y018348D03*
X006595Y020316D03*
X006595Y021891D03*
X008957Y020316D03*
X008957Y018348D03*
X009430Y023230D03*
X011162Y023427D03*
X016871Y022954D03*
X018445Y023545D03*
X020375Y021891D03*
X020375Y020316D03*
X016556Y016064D03*
X018406Y015592D03*
X018406Y013623D03*
X016871Y010159D03*
X016871Y009686D03*
D29*
X016634Y009568D02*
X016989Y009214D01*
X017260Y009214D01*
X017260Y009751D01*
X017793Y009751D01*
X017793Y009961D01*
X017260Y009961D01*
X017260Y010553D01*
X016792Y010553D01*
X016398Y010159D01*
X016093Y010159D01*
X016103Y010123D01*
X016103Y009871D01*
X015473Y009871D01*
X015473Y009841D01*
X016103Y009841D01*
X016103Y009589D01*
X016097Y009568D01*
X016634Y009568D01*
X016794Y009409D02*
X017260Y009409D01*
X017260Y009618D02*
X016103Y009618D01*
X016103Y009826D02*
X017793Y009826D01*
X018003Y009826D02*
X019014Y009826D01*
X019075Y009765D02*
X019610Y009765D01*
X019580Y009723D01*
X019549Y009664D01*
X019529Y009600D01*
X019518Y009535D01*
X019518Y009501D01*
X019518Y009468D01*
X019529Y009402D01*
X019549Y009339D01*
X019580Y009280D01*
X019619Y009226D01*
X019631Y009214D01*
X018536Y009214D01*
X018536Y009751D01*
X018003Y009751D01*
X018003Y009961D01*
X018536Y009961D01*
X018536Y010305D01*
X019075Y009765D01*
X018806Y010035D02*
X018536Y010035D01*
X018536Y010243D02*
X018597Y010243D01*
X018536Y009618D02*
X019534Y009618D01*
X019518Y009501D02*
X019942Y009501D01*
X019942Y009501D01*
X020365Y009501D01*
X020365Y009480D01*
X020375Y009490D01*
X020375Y009647D01*
X020309Y009713D01*
X020334Y009664D01*
X020354Y009600D01*
X020365Y009535D01*
X020365Y009501D01*
X019942Y009501D01*
X019518Y009501D01*
X019528Y009409D02*
X018536Y009409D01*
X017260Y010035D02*
X016103Y010035D01*
X016483Y010243D02*
X017260Y010243D01*
X017260Y010452D02*
X016691Y010452D01*
X019942Y009501D02*
X019942Y009501D01*
X020349Y009618D02*
X020375Y009618D01*
D30*
X021359Y008427D02*
X015965Y008427D01*
X015453Y008938D01*
X015458Y008946D02*
X013997Y008946D01*
X013406Y009537D01*
X021359Y008427D02*
X022166Y009234D01*
X022166Y009316D01*
D31*
X015127Y022927D02*
X014064Y022927D01*
X013957Y023033D01*
X013945Y024017D02*
X014060Y024131D01*
X015127Y024131D01*
X007804Y024222D02*
X006835Y024222D01*
X006619Y024005D01*
X006631Y023017D02*
X006619Y023005D01*
X006631Y023017D02*
X007804Y023017D01*
M02*
