G75*
G70*
%OFA0B0*%
%FSLAX24Y24*%
%IPPOS*%
%LPD*%
%AMOC8*
5,1,8,0,0,1.08239X$1,22.5*
%
%ADD10C,0.0100*%
%ADD11C,0.0060*%
%ADD12C,0.0050*%
%ADD13C,0.0020*%
%ADD14C,0.0080*%
%ADD15C,0.0010*%
D10*
X004627Y007324D02*
X024312Y007324D01*
X024312Y027009D01*
X004627Y027009D01*
X004627Y007324D01*
D11*
X012459Y014617D02*
X012459Y017149D01*
X012569Y017260D01*
X015101Y017260D01*
X015101Y014617D01*
X012459Y014617D01*
X012578Y016999D02*
X012580Y017022D01*
X012586Y017045D01*
X012595Y017066D01*
X012608Y017086D01*
X012624Y017103D01*
X012642Y017117D01*
X012662Y017128D01*
X012684Y017136D01*
X012707Y017140D01*
X012731Y017140D01*
X012754Y017136D01*
X012776Y017128D01*
X012796Y017117D01*
X012814Y017103D01*
X012830Y017086D01*
X012843Y017066D01*
X012852Y017045D01*
X012858Y017022D01*
X012860Y016999D01*
X012858Y016976D01*
X012852Y016953D01*
X012843Y016932D01*
X012830Y016912D01*
X012814Y016895D01*
X012796Y016881D01*
X012776Y016870D01*
X012754Y016862D01*
X012731Y016858D01*
X012707Y016858D01*
X012684Y016862D01*
X012662Y016870D01*
X012642Y016881D01*
X012624Y016895D01*
X012608Y016912D01*
X012595Y016932D01*
X012586Y016953D01*
X012580Y016976D01*
X012578Y016999D01*
X012406Y009840D02*
X012408Y009903D01*
X012414Y009965D01*
X012424Y010027D01*
X012437Y010089D01*
X012455Y010149D01*
X012476Y010208D01*
X012501Y010266D01*
X012530Y010322D01*
X012562Y010376D01*
X012597Y010428D01*
X012635Y010477D01*
X012677Y010525D01*
X012721Y010569D01*
X012769Y010611D01*
X012818Y010649D01*
X012870Y010684D01*
X012924Y010716D01*
X012980Y010745D01*
X013038Y010770D01*
X013097Y010791D01*
X013157Y010809D01*
X013219Y010822D01*
X013281Y010832D01*
X013343Y010838D01*
X013406Y010840D01*
X013469Y010838D01*
X013531Y010832D01*
X013593Y010822D01*
X013655Y010809D01*
X013715Y010791D01*
X013774Y010770D01*
X013832Y010745D01*
X013888Y010716D01*
X013942Y010684D01*
X013994Y010649D01*
X014043Y010611D01*
X014091Y010569D01*
X014135Y010525D01*
X014177Y010477D01*
X014215Y010428D01*
X014250Y010376D01*
X014282Y010322D01*
X014311Y010266D01*
X014336Y010208D01*
X014357Y010149D01*
X014375Y010089D01*
X014388Y010027D01*
X014398Y009965D01*
X014404Y009903D01*
X014406Y009840D01*
X014404Y009777D01*
X014398Y009715D01*
X014388Y009653D01*
X014375Y009591D01*
X014357Y009531D01*
X014336Y009472D01*
X014311Y009414D01*
X014282Y009358D01*
X014250Y009304D01*
X014215Y009252D01*
X014177Y009203D01*
X014135Y009155D01*
X014091Y009111D01*
X014043Y009069D01*
X013994Y009031D01*
X013942Y008996D01*
X013888Y008964D01*
X013832Y008935D01*
X013774Y008910D01*
X013715Y008889D01*
X013655Y008871D01*
X013593Y008858D01*
X013531Y008848D01*
X013469Y008842D01*
X013406Y008840D01*
X013343Y008842D01*
X013281Y008848D01*
X013219Y008858D01*
X013157Y008871D01*
X013097Y008889D01*
X013038Y008910D01*
X012980Y008935D01*
X012924Y008964D01*
X012870Y008996D01*
X012818Y009031D01*
X012769Y009069D01*
X012721Y009111D01*
X012677Y009155D01*
X012635Y009203D01*
X012597Y009252D01*
X012562Y009304D01*
X012530Y009358D01*
X012501Y009414D01*
X012476Y009472D01*
X012455Y009531D01*
X012437Y009591D01*
X012424Y009653D01*
X012414Y009715D01*
X012408Y009777D01*
X012406Y009840D01*
X012906Y009390D02*
X012906Y009290D01*
X012806Y009290D01*
X012906Y009290D02*
X013006Y009290D01*
X012906Y009290D02*
X012906Y009190D01*
X019342Y009255D02*
X019442Y009255D01*
X019442Y009355D01*
X019442Y009255D02*
X019542Y009255D01*
X019442Y009255D02*
X019442Y009155D01*
X018942Y009805D02*
X018944Y009868D01*
X018950Y009930D01*
X018960Y009992D01*
X018973Y010054D01*
X018991Y010114D01*
X019012Y010173D01*
X019037Y010231D01*
X019066Y010287D01*
X019098Y010341D01*
X019133Y010393D01*
X019171Y010442D01*
X019213Y010490D01*
X019257Y010534D01*
X019305Y010576D01*
X019354Y010614D01*
X019406Y010649D01*
X019460Y010681D01*
X019516Y010710D01*
X019574Y010735D01*
X019633Y010756D01*
X019693Y010774D01*
X019755Y010787D01*
X019817Y010797D01*
X019879Y010803D01*
X019942Y010805D01*
X020005Y010803D01*
X020067Y010797D01*
X020129Y010787D01*
X020191Y010774D01*
X020251Y010756D01*
X020310Y010735D01*
X020368Y010710D01*
X020424Y010681D01*
X020478Y010649D01*
X020530Y010614D01*
X020579Y010576D01*
X020627Y010534D01*
X020671Y010490D01*
X020713Y010442D01*
X020751Y010393D01*
X020786Y010341D01*
X020818Y010287D01*
X020847Y010231D01*
X020872Y010173D01*
X020893Y010114D01*
X020911Y010054D01*
X020924Y009992D01*
X020934Y009930D01*
X020940Y009868D01*
X020942Y009805D01*
X020940Y009742D01*
X020934Y009680D01*
X020924Y009618D01*
X020911Y009556D01*
X020893Y009496D01*
X020872Y009437D01*
X020847Y009379D01*
X020818Y009323D01*
X020786Y009269D01*
X020751Y009217D01*
X020713Y009168D01*
X020671Y009120D01*
X020627Y009076D01*
X020579Y009034D01*
X020530Y008996D01*
X020478Y008961D01*
X020424Y008929D01*
X020368Y008900D01*
X020310Y008875D01*
X020251Y008854D01*
X020191Y008836D01*
X020129Y008823D01*
X020067Y008813D01*
X020005Y008807D01*
X019942Y008805D01*
X019879Y008807D01*
X019817Y008813D01*
X019755Y008823D01*
X019693Y008836D01*
X019633Y008854D01*
X019574Y008875D01*
X019516Y008900D01*
X019460Y008929D01*
X019406Y008961D01*
X019354Y008996D01*
X019305Y009034D01*
X019257Y009076D01*
X019213Y009120D01*
X019171Y009168D01*
X019133Y009217D01*
X019098Y009269D01*
X019066Y009323D01*
X019037Y009379D01*
X019012Y009437D01*
X018991Y009496D01*
X018973Y009556D01*
X018960Y009618D01*
X018950Y009680D01*
X018944Y009742D01*
X018942Y009805D01*
X018975Y023679D02*
X018977Y023759D01*
X018983Y023838D01*
X018993Y023917D01*
X019007Y023996D01*
X019024Y024074D01*
X019046Y024151D01*
X019071Y024226D01*
X019101Y024300D01*
X019133Y024373D01*
X019170Y024444D01*
X019210Y024513D01*
X019253Y024580D01*
X019300Y024645D01*
X019349Y024707D01*
X019402Y024767D01*
X019458Y024824D01*
X019516Y024879D01*
X019577Y024930D01*
X019641Y024978D01*
X019707Y025023D01*
X019775Y025065D01*
X019845Y025103D01*
X019917Y025137D01*
X019990Y025168D01*
X020065Y025196D01*
X020142Y025219D01*
X020219Y025239D01*
X020297Y025255D01*
X020376Y025267D01*
X020455Y025275D01*
X020535Y025279D01*
X020615Y025279D01*
X020695Y025275D01*
X020774Y025267D01*
X020853Y025255D01*
X020931Y025239D01*
X021008Y025219D01*
X021085Y025196D01*
X021160Y025168D01*
X021233Y025137D01*
X021305Y025103D01*
X021375Y025065D01*
X021443Y025023D01*
X021509Y024978D01*
X021573Y024930D01*
X021634Y024879D01*
X021692Y024824D01*
X021748Y024767D01*
X021801Y024707D01*
X021850Y024645D01*
X021897Y024580D01*
X021940Y024513D01*
X021980Y024444D01*
X022017Y024373D01*
X022049Y024300D01*
X022079Y024226D01*
X022104Y024151D01*
X022126Y024074D01*
X022143Y023996D01*
X022157Y023917D01*
X022167Y023838D01*
X022173Y023759D01*
X022175Y023679D01*
X022173Y023599D01*
X022167Y023520D01*
X022157Y023441D01*
X022143Y023362D01*
X022126Y023284D01*
X022104Y023207D01*
X022079Y023132D01*
X022049Y023058D01*
X022017Y022985D01*
X021980Y022914D01*
X021940Y022845D01*
X021897Y022778D01*
X021850Y022713D01*
X021801Y022651D01*
X021748Y022591D01*
X021692Y022534D01*
X021634Y022479D01*
X021573Y022428D01*
X021509Y022380D01*
X021443Y022335D01*
X021375Y022293D01*
X021305Y022255D01*
X021233Y022221D01*
X021160Y022190D01*
X021085Y022162D01*
X021008Y022139D01*
X020931Y022119D01*
X020853Y022103D01*
X020774Y022091D01*
X020695Y022083D01*
X020615Y022079D01*
X020535Y022079D01*
X020455Y022083D01*
X020376Y022091D01*
X020297Y022103D01*
X020219Y022119D01*
X020142Y022139D01*
X020065Y022162D01*
X019990Y022190D01*
X019917Y022221D01*
X019845Y022255D01*
X019775Y022293D01*
X019707Y022335D01*
X019641Y022380D01*
X019577Y022428D01*
X019516Y022479D01*
X019458Y022534D01*
X019402Y022591D01*
X019349Y022651D01*
X019300Y022713D01*
X019253Y022778D01*
X019210Y022845D01*
X019170Y022914D01*
X019133Y022985D01*
X019101Y023058D01*
X019071Y023132D01*
X019046Y023207D01*
X019024Y023284D01*
X019007Y023362D01*
X018993Y023441D01*
X018983Y023520D01*
X018977Y023599D01*
X018975Y023679D01*
X020875Y024879D02*
X021175Y024879D01*
X021025Y025029D02*
X021025Y024729D01*
D12*
X022571Y024182D02*
X022571Y022182D01*
X023571Y022182D01*
X023571Y024182D01*
X022571Y024182D01*
X017879Y020986D02*
X017879Y020631D01*
X017564Y020631D01*
X017012Y020631D02*
X016697Y020631D01*
X016697Y020986D01*
X016186Y020994D02*
X016186Y020639D01*
X015871Y020639D01*
X015319Y020639D02*
X015005Y020639D01*
X015005Y020994D01*
X015516Y021190D02*
X015674Y021190D01*
X015611Y021919D02*
X017288Y021919D01*
X017288Y024497D01*
X015611Y024497D01*
X015611Y021919D01*
X014445Y022517D02*
X014445Y024517D01*
X013445Y024517D01*
X013445Y022517D01*
X014445Y022517D01*
X017016Y021931D02*
X017016Y024490D01*
X017209Y021182D02*
X017367Y021182D01*
X010394Y020994D02*
X010394Y020639D01*
X010079Y020639D01*
X009528Y020639D02*
X009213Y020639D01*
X009213Y020994D01*
X009725Y021190D02*
X009882Y021190D01*
X009965Y022009D02*
X008288Y022009D01*
X008288Y024588D01*
X009965Y024588D01*
X009965Y022009D01*
X009694Y022021D02*
X009694Y024580D01*
X007119Y024505D02*
X007119Y022505D01*
X006119Y022505D01*
X006119Y024505D01*
X007119Y024505D01*
X007725Y021190D02*
X007882Y021190D01*
X008394Y020994D02*
X008394Y020639D01*
X008079Y020639D01*
X007528Y020639D02*
X007213Y020639D01*
X007213Y020994D01*
X009914Y012883D02*
X009914Y011883D01*
X012914Y011883D01*
X012914Y012883D01*
X009914Y012883D01*
X014532Y012856D02*
X014532Y011856D01*
X017532Y011856D01*
X017532Y012856D01*
X014532Y012856D01*
X021666Y010816D02*
X021666Y008816D01*
X022666Y008816D01*
X022666Y010816D01*
X021666Y010816D01*
D13*
X017512Y012966D02*
X017465Y012919D01*
X017372Y012919D01*
X017325Y012966D01*
X017325Y013152D01*
X017372Y013199D01*
X017465Y013199D01*
X017512Y013152D01*
X017235Y013152D02*
X017189Y013199D01*
X017095Y013199D01*
X017049Y013152D01*
X017049Y012966D01*
X017095Y012919D01*
X017189Y012919D01*
X017235Y012966D01*
X016959Y013012D02*
X016959Y013199D01*
X016772Y013199D02*
X016772Y013012D01*
X016866Y012919D01*
X016959Y013012D01*
X016472Y012966D02*
X016472Y013152D01*
X016426Y013199D01*
X016286Y013199D01*
X016286Y012919D01*
X016426Y012919D01*
X016472Y012966D01*
X016196Y012919D02*
X016196Y013199D01*
X016009Y013199D02*
X016009Y012919D01*
X015920Y012966D02*
X015920Y013059D01*
X015826Y013059D01*
X015733Y013152D02*
X015733Y012966D01*
X015780Y012919D01*
X015873Y012919D01*
X015920Y012966D01*
X015920Y013152D02*
X015873Y013199D01*
X015780Y013199D01*
X015733Y013152D01*
X015532Y013106D02*
X015532Y012919D01*
X015532Y013059D02*
X015345Y013059D01*
X015345Y013106D02*
X015439Y013199D01*
X015532Y013106D01*
X015345Y013106D02*
X015345Y012919D01*
X015162Y012919D02*
X015162Y013199D01*
X015069Y013199D02*
X015256Y013199D01*
X014980Y013106D02*
X014980Y012919D01*
X014980Y013059D02*
X014793Y013059D01*
X014793Y013106D02*
X014886Y013199D01*
X014980Y013106D01*
X014793Y013106D02*
X014793Y012919D01*
X014703Y012966D02*
X014703Y013152D01*
X014657Y013199D01*
X014517Y013199D01*
X014517Y012919D01*
X014657Y012919D01*
X014703Y012966D01*
X016009Y013199D02*
X016196Y012919D01*
X013385Y022927D02*
X013105Y022927D01*
X013199Y023021D01*
X013105Y023114D01*
X013385Y023114D01*
X013245Y023203D02*
X013245Y023390D01*
X013152Y023297D02*
X013339Y023297D01*
X013385Y023927D02*
X013105Y023927D01*
X013199Y024021D01*
X013105Y024114D01*
X013385Y024114D01*
X013245Y024203D02*
X013245Y024390D01*
X006059Y024102D02*
X005778Y024102D01*
X005872Y024009D01*
X005778Y023915D01*
X006059Y023915D01*
X005919Y024192D02*
X005919Y024378D01*
X005919Y023378D02*
X005919Y023192D01*
X006012Y023285D02*
X005825Y023285D01*
X005778Y023102D02*
X006059Y023102D01*
X006059Y022915D02*
X005778Y022915D01*
X005872Y023009D01*
X005778Y023102D01*
D14*
X015978Y011146D02*
X017378Y011146D01*
X017378Y008566D01*
X015978Y008566D01*
X015978Y011146D01*
D15*
X012872Y013003D02*
X012847Y012978D01*
X012797Y012978D01*
X012772Y013003D01*
X012724Y012978D02*
X012724Y013128D01*
X012772Y013103D02*
X012797Y013128D01*
X012847Y013128D01*
X012872Y013103D01*
X012872Y013078D01*
X012847Y013053D01*
X012872Y013028D01*
X012872Y013003D01*
X012847Y013053D02*
X012822Y013053D01*
X012724Y012978D02*
X012624Y013128D01*
X012624Y012978D01*
X012577Y013003D02*
X012577Y013103D01*
X012552Y013128D01*
X012502Y013128D01*
X012477Y013103D01*
X012477Y013003D01*
X012502Y012978D01*
X012552Y012978D01*
X012577Y013003D01*
X012430Y013003D02*
X012405Y012978D01*
X012355Y012978D01*
X012330Y013003D01*
X012330Y013103D01*
X012355Y013128D01*
X012405Y013128D01*
X012430Y013103D01*
X012474Y011878D02*
X012374Y011728D01*
X012327Y011728D02*
X012277Y011778D01*
X012302Y011778D02*
X012227Y011778D01*
X012227Y011728D02*
X012227Y011878D01*
X012302Y011878D01*
X012327Y011853D01*
X012327Y011803D01*
X012302Y011778D01*
X012374Y011878D02*
X012474Y011728D01*
X012522Y011728D02*
X012597Y011728D01*
X012622Y011753D01*
X012622Y011853D01*
X012597Y011878D01*
X012522Y011878D01*
X012522Y011728D01*
X011622Y011753D02*
X011622Y011853D01*
X011597Y011878D01*
X011522Y011878D01*
X011522Y011728D01*
X011597Y011728D01*
X011622Y011753D01*
X011474Y011728D02*
X011374Y011878D01*
X011327Y011878D02*
X011227Y011878D01*
X011277Y011878D02*
X011277Y011728D01*
X011374Y011728D02*
X011474Y011878D01*
X010622Y011853D02*
X010597Y011878D01*
X010522Y011878D01*
X010522Y011728D01*
X010597Y011728D01*
X010622Y011753D01*
X010622Y011853D01*
X010474Y011878D02*
X010474Y011728D01*
X010374Y011878D01*
X010374Y011728D01*
X010327Y011753D02*
X010327Y011803D01*
X010277Y011803D01*
X010227Y011753D02*
X010252Y011728D01*
X010302Y011728D01*
X010327Y011753D01*
X010227Y011753D02*
X010227Y011853D01*
X010252Y011878D01*
X010302Y011878D01*
X010327Y011853D01*
M02*
