G75*
G70*
%OFA0B0*%
%FSLAX24Y24*%
%IPPOS*%
%LPD*%
%AMOC8*
5,1,8,0,0,1.08239X$1,22.5*
%
%ADD10C,0.0100*%
%ADD11R,0.0591X0.0512*%
%ADD12C,0.0594*%
%ADD13OC8,0.0436*%
%ADD14C,0.0436*%
%ADD15R,0.0709X0.0709*%
%ADD16C,0.0709*%
%ADD17OC8,0.0630*%
%ADD18C,0.0630*%
%ADD19C,0.0515*%
%ADD20C,0.0360*%
%ADD21C,0.0210*%
D10*
X004627Y007324D02*
X024312Y007324D01*
X024312Y027009D01*
X004627Y027009D01*
X004627Y007324D01*
X005177Y007915D02*
X023682Y007915D01*
X023584Y007817D02*
X005276Y007817D01*
X005335Y007757D02*
X005060Y008033D01*
X005060Y026576D01*
X023760Y026537D01*
X023839Y022915D01*
X023839Y008072D01*
X023524Y007757D01*
X005335Y007757D01*
X005079Y008014D02*
X023781Y008014D01*
X023839Y008112D02*
X005060Y008112D01*
X005060Y008211D02*
X023839Y008211D01*
X023839Y008309D02*
X005060Y008309D01*
X005060Y008408D02*
X023839Y008408D01*
X023839Y008506D02*
X005060Y008506D01*
X005060Y008605D02*
X023839Y008605D01*
X023839Y008703D02*
X005060Y008703D01*
X005060Y008802D02*
X023839Y008802D01*
X023839Y008900D02*
X022614Y008900D01*
X022630Y008916D02*
X022630Y009716D01*
X022566Y009781D01*
X021766Y009781D01*
X021702Y009716D01*
X021702Y008916D01*
X021766Y008852D01*
X022566Y008852D01*
X022630Y008916D01*
X022630Y008999D02*
X023839Y008999D01*
X023839Y009097D02*
X022630Y009097D01*
X022630Y009196D02*
X023839Y009196D01*
X023839Y009294D02*
X022630Y009294D01*
X022630Y009393D02*
X023839Y009393D01*
X023839Y009491D02*
X022630Y009491D01*
X022630Y009590D02*
X023839Y009590D01*
X023839Y009688D02*
X022630Y009688D01*
X022495Y009932D02*
X022551Y009988D01*
X022597Y010052D01*
X022633Y010123D01*
X022658Y010198D01*
X022669Y010266D01*
X022216Y010266D01*
X022216Y009814D01*
X022284Y009824D01*
X022360Y009849D01*
X022430Y009885D01*
X022495Y009932D01*
X022547Y009984D02*
X023839Y009984D01*
X023839Y010082D02*
X022613Y010082D01*
X022652Y010181D02*
X023839Y010181D01*
X023839Y010279D02*
X022216Y010279D01*
X022216Y010266D02*
X022216Y010366D01*
X022669Y010366D01*
X022658Y010434D01*
X022633Y010510D01*
X022597Y010581D01*
X022551Y010645D01*
X022495Y010701D01*
X022430Y010748D01*
X022360Y010784D01*
X022284Y010808D01*
X022216Y010819D01*
X022216Y010366D01*
X022116Y010366D01*
X022116Y010266D01*
X022216Y010266D01*
X022216Y010181D02*
X022116Y010181D01*
X022116Y010266D02*
X022116Y009814D01*
X022048Y009824D01*
X021972Y009849D01*
X021902Y009885D01*
X021837Y009932D01*
X021781Y009988D01*
X021735Y010052D01*
X021699Y010123D01*
X021674Y010198D01*
X021663Y010266D01*
X022116Y010266D01*
X022116Y010279D02*
X020298Y010279D01*
X020310Y010268D02*
X020094Y010484D01*
X019951Y010484D01*
X019951Y010125D01*
X019932Y010125D01*
X019932Y010107D01*
X019573Y010107D01*
X019573Y009963D01*
X019757Y009780D01*
X019756Y009780D01*
X019663Y009687D01*
X019613Y009567D01*
X019613Y009436D01*
X019663Y009316D01*
X019756Y009223D01*
X019876Y009173D01*
X020007Y009173D01*
X020127Y009223D01*
X020220Y009316D01*
X020270Y009436D01*
X020270Y009567D01*
X020220Y009687D01*
X020127Y009780D01*
X020126Y009780D02*
X020310Y009963D01*
X020310Y010107D01*
X019951Y010107D01*
X019951Y010125D01*
X020310Y010125D01*
X020310Y010268D01*
X020310Y010181D02*
X021680Y010181D01*
X021719Y010082D02*
X020310Y010082D01*
X020310Y009984D02*
X021785Y009984D01*
X021901Y009885D02*
X020232Y009885D01*
X020133Y009787D02*
X023839Y009787D01*
X023839Y009885D02*
X022431Y009885D01*
X022216Y009885D02*
X022116Y009885D01*
X022116Y009984D02*
X022216Y009984D01*
X022216Y010082D02*
X022116Y010082D01*
X022116Y010366D02*
X021663Y010366D01*
X021674Y010434D01*
X021699Y010510D01*
X021735Y010581D01*
X021781Y010645D01*
X021837Y010701D01*
X021902Y010748D01*
X021972Y010784D01*
X022048Y010808D01*
X022116Y010819D01*
X022116Y010366D01*
X022116Y010378D02*
X022216Y010378D01*
X022216Y010476D02*
X022116Y010476D01*
X022116Y010575D02*
X022216Y010575D01*
X022216Y010673D02*
X022116Y010673D01*
X022116Y010772D02*
X022216Y010772D01*
X022383Y010772D02*
X023839Y010772D01*
X023839Y010870D02*
X018330Y010870D01*
X018330Y010772D02*
X021949Y010772D01*
X021810Y010673D02*
X018330Y010673D01*
X018330Y010575D02*
X021732Y010575D01*
X021688Y010476D02*
X020101Y010476D01*
X020200Y010378D02*
X021665Y010378D01*
X021702Y009688D02*
X020219Y009688D01*
X020260Y009590D02*
X021702Y009590D01*
X021702Y009491D02*
X020270Y009491D01*
X020252Y009393D02*
X021702Y009393D01*
X021702Y009294D02*
X020198Y009294D01*
X020061Y009196D02*
X021702Y009196D01*
X021702Y009097D02*
X018279Y009097D01*
X018291Y009108D02*
X018330Y009148D01*
X018330Y012784D01*
X018236Y012878D01*
X015087Y016028D01*
X014929Y016185D01*
X014623Y016185D01*
X014623Y016314D01*
X014228Y016314D01*
X014228Y016414D01*
X014128Y016414D01*
X014128Y016769D01*
X013863Y016769D01*
X013825Y016759D01*
X013790Y016740D01*
X013762Y016712D01*
X013743Y016677D01*
X013732Y016639D01*
X013732Y016414D01*
X014128Y016414D01*
X014128Y016314D01*
X013732Y016314D01*
X013732Y016185D01*
X013678Y016185D01*
X013678Y016306D01*
X013283Y016306D01*
X013283Y016406D01*
X013183Y016406D01*
X013183Y016762D01*
X012918Y016762D01*
X012880Y016751D01*
X012846Y016732D01*
X012818Y016704D01*
X012798Y016670D01*
X012788Y016631D01*
X012788Y016406D01*
X013183Y016406D01*
X013183Y016306D01*
X012788Y016306D01*
X012788Y016185D01*
X012592Y016185D01*
X012498Y016091D01*
X005060Y016091D01*
X005060Y016189D02*
X012788Y016189D01*
X012788Y016288D02*
X005060Y016288D01*
X005060Y016386D02*
X013183Y016386D01*
X013183Y016485D02*
X013283Y016485D01*
X013283Y016406D02*
X013283Y016762D01*
X013548Y016762D01*
X013586Y016751D01*
X013620Y016732D01*
X013648Y016704D01*
X013668Y016670D01*
X013678Y016631D01*
X013678Y016406D01*
X013283Y016406D01*
X013283Y016386D02*
X014128Y016386D01*
X014128Y016485D02*
X014228Y016485D01*
X014228Y016414D02*
X014228Y016769D01*
X014493Y016769D01*
X014531Y016759D01*
X014565Y016740D01*
X014593Y016712D01*
X014613Y016677D01*
X014623Y016639D01*
X014623Y016414D01*
X014228Y016414D01*
X014228Y016386D02*
X016008Y016386D01*
X016106Y016288D02*
X014623Y016288D01*
X014623Y016189D02*
X016205Y016189D01*
X016267Y016126D02*
X016266Y016122D01*
X016266Y016007D01*
X016310Y015900D01*
X016391Y015819D01*
X016498Y015774D01*
X016613Y015774D01*
X016720Y015819D01*
X016802Y015900D01*
X016846Y016007D01*
X016846Y016122D01*
X016802Y016229D01*
X016720Y016310D01*
X016613Y016354D01*
X016498Y016354D01*
X016494Y016353D01*
X015437Y017409D01*
X015502Y017475D01*
X015504Y017479D01*
X016583Y017479D01*
X017045Y017942D01*
X017049Y017940D01*
X017165Y017940D01*
X017271Y017984D01*
X017353Y018065D01*
X017397Y018172D01*
X017397Y018287D01*
X017353Y018394D01*
X017271Y018476D01*
X017165Y018520D01*
X017049Y018520D01*
X016943Y018476D01*
X016861Y018394D01*
X016817Y018287D01*
X016817Y018172D01*
X016819Y018168D01*
X016450Y017799D01*
X015504Y017799D01*
X015502Y017803D01*
X015421Y017885D01*
X015314Y017929D01*
X015199Y017929D01*
X015092Y017885D01*
X015011Y017803D01*
X014967Y017697D01*
X014967Y017581D01*
X015011Y017475D01*
X015041Y017445D01*
X007630Y017445D01*
X007628Y017449D01*
X007547Y017531D01*
X007440Y017575D01*
X007325Y017575D01*
X007218Y017531D01*
X007137Y017449D01*
X007092Y017343D01*
X007092Y017227D01*
X007137Y017121D01*
X007218Y017039D01*
X007325Y016995D01*
X007440Y016995D01*
X007547Y017039D01*
X007628Y017121D01*
X007630Y017125D01*
X015269Y017125D01*
X016267Y016126D01*
X016266Y016091D02*
X015023Y016091D01*
X015122Y015992D02*
X016272Y015992D01*
X016316Y015894D02*
X015220Y015894D01*
X015319Y015795D02*
X016448Y015795D01*
X016664Y015795D02*
X023839Y015795D01*
X023839Y015697D02*
X015417Y015697D01*
X015516Y015598D02*
X023839Y015598D01*
X023839Y015500D02*
X015614Y015500D01*
X015713Y015401D02*
X023839Y015401D01*
X023839Y015303D02*
X015811Y015303D01*
X015910Y015204D02*
X023839Y015204D01*
X023839Y015106D02*
X016008Y015106D01*
X016107Y015007D02*
X023839Y015007D01*
X023839Y014909D02*
X016205Y014909D01*
X016304Y014810D02*
X023839Y014810D01*
X023839Y014712D02*
X016402Y014712D01*
X016501Y014613D02*
X023839Y014613D01*
X023839Y014515D02*
X016599Y014515D01*
X016698Y014416D02*
X023839Y014416D01*
X023839Y014318D02*
X016796Y014318D01*
X016895Y014219D02*
X023839Y014219D01*
X023839Y014121D02*
X016993Y014121D01*
X017092Y014022D02*
X023839Y014022D01*
X023839Y013924D02*
X017190Y013924D01*
X017289Y013825D02*
X023839Y013825D01*
X023839Y013727D02*
X017387Y013727D01*
X017486Y013628D02*
X023839Y013628D01*
X023839Y013530D02*
X017584Y013530D01*
X017683Y013431D02*
X023839Y013431D01*
X023839Y013333D02*
X017781Y013333D01*
X017880Y013234D02*
X023839Y013234D01*
X023839Y013136D02*
X017978Y013136D01*
X018077Y013037D02*
X023839Y013037D01*
X023839Y012939D02*
X018175Y012939D01*
X018274Y012840D02*
X023839Y012840D01*
X023839Y012742D02*
X018330Y012742D01*
X018330Y012643D02*
X023839Y012643D01*
X023839Y012545D02*
X018330Y012545D01*
X018330Y012446D02*
X023839Y012446D01*
X023839Y012348D02*
X018330Y012348D01*
X018330Y012249D02*
X023839Y012249D01*
X023839Y012151D02*
X018330Y012151D01*
X018330Y012052D02*
X023839Y012052D01*
X023839Y011954D02*
X018330Y011954D01*
X018330Y011855D02*
X023839Y011855D01*
X023839Y011757D02*
X018330Y011757D01*
X018330Y011658D02*
X023839Y011658D01*
X023839Y011560D02*
X018330Y011560D01*
X018330Y011461D02*
X023839Y011461D01*
X023839Y011363D02*
X018330Y011363D01*
X018330Y011264D02*
X023839Y011264D01*
X023839Y011166D02*
X018330Y011166D01*
X018330Y011067D02*
X023839Y011067D01*
X023839Y010969D02*
X018330Y010969D01*
X018170Y010969D02*
X016477Y010969D01*
X016477Y011067D02*
X018170Y011067D01*
X018170Y011166D02*
X016477Y011166D01*
X016477Y011264D02*
X018170Y011264D01*
X018170Y011363D02*
X016477Y011363D01*
X016477Y011461D02*
X018170Y011461D01*
X018170Y011560D02*
X016477Y011560D01*
X016477Y011658D02*
X018170Y011658D01*
X018170Y011757D02*
X016477Y011757D01*
X016477Y011855D02*
X018170Y011855D01*
X018170Y011954D02*
X017227Y011954D01*
X017204Y011942D02*
X017266Y011974D01*
X017323Y012015D01*
X017373Y012065D01*
X017414Y012122D01*
X017446Y012184D01*
X017468Y012251D01*
X017477Y012307D01*
X017081Y012307D01*
X017081Y012404D01*
X017477Y012404D01*
X017468Y012460D01*
X017446Y012527D01*
X017414Y012590D01*
X017373Y012647D01*
X017323Y012697D01*
X017266Y012738D01*
X017204Y012770D01*
X017137Y012792D01*
X017081Y012800D01*
X017081Y012404D01*
X016984Y012404D01*
X016984Y012800D01*
X016927Y012792D01*
X016861Y012770D01*
X016798Y012738D01*
X016741Y012697D01*
X016691Y012647D01*
X016650Y012590D01*
X016618Y012527D01*
X016596Y012460D01*
X016587Y012404D01*
X016984Y012404D01*
X016984Y012307D01*
X017081Y012307D01*
X017081Y011911D01*
X017137Y011920D01*
X017204Y011942D01*
X017081Y011954D02*
X016984Y011954D01*
X016984Y011911D02*
X016984Y012307D01*
X016587Y012307D01*
X016596Y012251D01*
X016618Y012184D01*
X016650Y012122D01*
X016691Y012065D01*
X016741Y012015D01*
X016798Y011974D01*
X016861Y011942D01*
X016927Y011920D01*
X016984Y011911D01*
X016984Y012052D02*
X017081Y012052D01*
X017081Y012151D02*
X016984Y012151D01*
X016984Y012249D02*
X017081Y012249D01*
X017081Y012348D02*
X018170Y012348D01*
X018170Y012446D02*
X017470Y012446D01*
X017437Y012545D02*
X018170Y012545D01*
X018170Y012643D02*
X017376Y012643D01*
X017259Y012742D02*
X018146Y012742D01*
X018170Y012718D02*
X018170Y009214D01*
X018131Y009175D01*
X016871Y009175D01*
X016477Y009568D01*
X016477Y012994D01*
X014627Y014844D01*
X012697Y014844D01*
X012658Y014883D01*
X012658Y016025D01*
X012857Y016025D01*
X012879Y016003D01*
X012846Y015984D01*
X012818Y015956D01*
X012798Y015921D01*
X012788Y015883D01*
X012788Y015658D01*
X013183Y015658D01*
X013183Y015558D01*
X012788Y015558D01*
X012788Y015332D01*
X012798Y015294D01*
X012818Y015260D01*
X012846Y015232D01*
X012880Y015212D01*
X012918Y015202D01*
X013183Y015202D01*
X013183Y015558D01*
X013283Y015558D01*
X013283Y015658D01*
X013678Y015658D01*
X013678Y015883D01*
X013668Y015921D01*
X013648Y015956D01*
X013620Y015984D01*
X013587Y016003D01*
X013609Y016025D01*
X013810Y016025D01*
X013824Y016011D01*
X013790Y015991D01*
X013762Y015964D01*
X013743Y015929D01*
X013732Y015891D01*
X013732Y015666D01*
X014128Y015666D01*
X014128Y015566D01*
X013732Y015566D01*
X013732Y015340D01*
X013743Y015302D01*
X013762Y015268D01*
X013790Y015240D01*
X013825Y015220D01*
X013863Y015210D01*
X014128Y015210D01*
X014128Y015566D01*
X014228Y015566D01*
X014228Y015666D01*
X014623Y015666D01*
X014623Y015891D01*
X014613Y015929D01*
X014593Y015964D01*
X014565Y015991D01*
X014532Y016011D01*
X014546Y016025D01*
X014863Y016025D01*
X018170Y012718D01*
X018048Y012840D02*
X016477Y012840D01*
X016477Y012742D02*
X016805Y012742D01*
X016689Y012643D02*
X016477Y012643D01*
X016477Y012545D02*
X016627Y012545D01*
X016594Y012446D02*
X016477Y012446D01*
X016477Y012348D02*
X016984Y012348D01*
X016984Y012446D02*
X017081Y012446D01*
X017081Y012545D02*
X016984Y012545D01*
X016984Y012643D02*
X017081Y012643D01*
X017081Y012742D02*
X016984Y012742D01*
X016477Y012939D02*
X017949Y012939D01*
X017851Y013037D02*
X016433Y013037D01*
X016335Y013136D02*
X017752Y013136D01*
X017654Y013234D02*
X016236Y013234D01*
X016138Y013333D02*
X017555Y013333D01*
X017457Y013431D02*
X016039Y013431D01*
X015941Y013530D02*
X017358Y013530D01*
X017260Y013628D02*
X015842Y013628D01*
X015744Y013727D02*
X017161Y013727D01*
X017063Y013825D02*
X015645Y013825D01*
X015547Y013924D02*
X016964Y013924D01*
X016866Y014022D02*
X015448Y014022D01*
X015350Y014121D02*
X016767Y014121D01*
X016669Y014219D02*
X015251Y014219D01*
X015153Y014318D02*
X016570Y014318D01*
X016472Y014416D02*
X015054Y014416D01*
X014956Y014515D02*
X016373Y014515D01*
X016275Y014613D02*
X014857Y014613D01*
X014759Y014712D02*
X016176Y014712D01*
X016078Y014810D02*
X014660Y014810D01*
X014560Y014684D02*
X016317Y012927D01*
X016317Y012701D01*
X016266Y012738D01*
X016204Y012770D01*
X016137Y012792D01*
X016081Y012800D01*
X016081Y012404D01*
X015984Y012404D01*
X015984Y012800D01*
X015927Y012792D01*
X015861Y012770D01*
X015798Y012738D01*
X015741Y012697D01*
X015691Y012647D01*
X015650Y012590D01*
X015618Y012527D01*
X015596Y012460D01*
X015587Y012404D01*
X015984Y012404D01*
X015984Y012307D01*
X016081Y012307D01*
X016081Y011911D01*
X016137Y011920D01*
X016204Y011942D01*
X016266Y011974D01*
X016317Y012010D01*
X016317Y009502D01*
X016411Y009408D01*
X016804Y009015D01*
X018197Y009015D01*
X018291Y009108D01*
X018330Y009196D02*
X019822Y009196D01*
X019685Y009294D02*
X018330Y009294D01*
X018330Y009393D02*
X019631Y009393D01*
X019613Y009491D02*
X018330Y009491D01*
X018330Y009590D02*
X019623Y009590D01*
X019664Y009688D02*
X018330Y009688D01*
X018330Y009787D02*
X019750Y009787D01*
X019651Y009885D02*
X018330Y009885D01*
X018330Y009984D02*
X019573Y009984D01*
X019573Y010082D02*
X018330Y010082D01*
X018330Y010181D02*
X019573Y010181D01*
X019573Y010125D02*
X019932Y010125D01*
X019932Y010484D01*
X019789Y010484D01*
X019573Y010268D01*
X019573Y010125D01*
X019585Y010279D02*
X018330Y010279D01*
X018330Y010378D02*
X019683Y010378D01*
X019782Y010476D02*
X018330Y010476D01*
X018170Y010476D02*
X016477Y010476D01*
X016477Y010378D02*
X018170Y010378D01*
X018170Y010279D02*
X016477Y010279D01*
X016477Y010181D02*
X018170Y010181D01*
X018170Y010082D02*
X016477Y010082D01*
X016477Y009984D02*
X018170Y009984D01*
X018170Y009885D02*
X016477Y009885D01*
X016477Y009787D02*
X018170Y009787D01*
X018170Y009688D02*
X016477Y009688D01*
X016477Y009590D02*
X018170Y009590D01*
X018170Y009491D02*
X016554Y009491D01*
X016653Y009393D02*
X018170Y009393D01*
X018170Y009294D02*
X016751Y009294D01*
X016850Y009196D02*
X018152Y009196D01*
X018170Y010575D02*
X016477Y010575D01*
X016477Y010673D02*
X018170Y010673D01*
X018170Y010772D02*
X016477Y010772D01*
X016477Y010870D02*
X018170Y010870D01*
X018170Y012052D02*
X017361Y012052D01*
X017429Y012151D02*
X018170Y012151D01*
X018170Y012249D02*
X017467Y012249D01*
X016837Y011954D02*
X016477Y011954D01*
X016477Y012052D02*
X016704Y012052D01*
X016635Y012151D02*
X016477Y012151D01*
X016477Y012249D02*
X016597Y012249D01*
X016317Y011954D02*
X016227Y011954D01*
X016317Y011855D02*
X005060Y011855D01*
X005060Y011757D02*
X016317Y011757D01*
X016317Y011658D02*
X005060Y011658D01*
X005060Y011560D02*
X016317Y011560D01*
X016317Y011461D02*
X005060Y011461D01*
X005060Y011363D02*
X016317Y011363D01*
X016317Y011264D02*
X005060Y011264D01*
X005060Y011166D02*
X016317Y011166D01*
X016317Y011067D02*
X005060Y011067D01*
X005060Y010969D02*
X016317Y010969D01*
X016317Y010870D02*
X005060Y010870D01*
X005060Y010772D02*
X016317Y010772D01*
X016317Y010673D02*
X005060Y010673D01*
X005060Y010575D02*
X016317Y010575D01*
X016317Y010476D02*
X013601Y010476D01*
X013559Y010519D02*
X013415Y010519D01*
X013415Y010160D01*
X013397Y010160D01*
X013397Y010142D01*
X013038Y010142D01*
X013038Y009999D01*
X013221Y009815D01*
X013220Y009815D01*
X013128Y009723D01*
X013078Y009602D01*
X013078Y009472D01*
X013128Y009351D01*
X013220Y009259D01*
X013341Y009209D01*
X013471Y009209D01*
X013592Y009259D01*
X013684Y009351D01*
X013734Y009472D01*
X013734Y009602D01*
X013684Y009723D01*
X013592Y009815D01*
X013591Y009815D01*
X013774Y009999D01*
X013774Y010142D01*
X013415Y010142D01*
X013415Y010160D01*
X013774Y010160D01*
X013774Y010303D01*
X013559Y010519D01*
X013415Y010476D02*
X013397Y010476D01*
X013397Y010519D02*
X013254Y010519D01*
X013038Y010303D01*
X013038Y010160D01*
X013397Y010160D01*
X013397Y010519D01*
X013397Y010378D02*
X013415Y010378D01*
X013415Y010279D02*
X013397Y010279D01*
X013397Y010181D02*
X013415Y010181D01*
X013211Y010476D02*
X005060Y010476D01*
X005060Y010378D02*
X013112Y010378D01*
X013038Y010279D02*
X005060Y010279D01*
X005060Y010181D02*
X013038Y010181D01*
X013038Y010082D02*
X005060Y010082D01*
X005060Y009984D02*
X013053Y009984D01*
X013151Y009885D02*
X005060Y009885D01*
X005060Y009787D02*
X013192Y009787D01*
X013114Y009688D02*
X005060Y009688D01*
X005060Y009590D02*
X013078Y009590D01*
X013078Y009491D02*
X005060Y009491D01*
X005060Y009393D02*
X013111Y009393D01*
X013185Y009294D02*
X005060Y009294D01*
X005060Y009196D02*
X016623Y009196D01*
X016525Y009294D02*
X013628Y009294D01*
X013702Y009393D02*
X016426Y009393D01*
X016328Y009491D02*
X013734Y009491D01*
X013734Y009590D02*
X016317Y009590D01*
X016317Y009688D02*
X013699Y009688D01*
X013620Y009787D02*
X016317Y009787D01*
X016317Y009885D02*
X013661Y009885D01*
X013759Y009984D02*
X016317Y009984D01*
X016317Y010082D02*
X013774Y010082D01*
X013774Y010181D02*
X016317Y010181D01*
X016317Y010279D02*
X013774Y010279D01*
X013700Y010378D02*
X016317Y010378D01*
X016722Y009097D02*
X005060Y009097D01*
X005060Y008999D02*
X021702Y008999D01*
X021718Y008900D02*
X005060Y008900D01*
X005060Y011954D02*
X014939Y011954D01*
X014951Y011949D02*
X015113Y011949D01*
X015263Y012011D01*
X015377Y012125D01*
X015439Y012275D01*
X015439Y012437D01*
X015377Y012586D01*
X015263Y012701D01*
X015113Y012763D01*
X014951Y012763D01*
X014802Y012701D01*
X014687Y012586D01*
X014625Y012437D01*
X014625Y012275D01*
X014687Y012125D01*
X014802Y012011D01*
X014951Y011949D01*
X015125Y011954D02*
X015837Y011954D01*
X015861Y011942D02*
X015798Y011974D01*
X015741Y012015D01*
X015691Y012065D01*
X015650Y012122D01*
X015618Y012184D01*
X015596Y012251D01*
X015587Y012307D01*
X015984Y012307D01*
X015984Y011911D01*
X015927Y011920D01*
X015861Y011942D01*
X015984Y011954D02*
X016081Y011954D01*
X016081Y012052D02*
X015984Y012052D01*
X015984Y012151D02*
X016081Y012151D01*
X016081Y012249D02*
X015984Y012249D01*
X015984Y012348D02*
X015439Y012348D01*
X015435Y012446D02*
X015594Y012446D01*
X015627Y012545D02*
X015394Y012545D01*
X015320Y012643D02*
X015689Y012643D01*
X015805Y012742D02*
X015163Y012742D01*
X014901Y012742D02*
X012509Y012742D01*
X012487Y012751D02*
X012341Y012751D01*
X012206Y012695D01*
X012102Y012591D01*
X012047Y012456D01*
X012047Y012310D01*
X012102Y012175D01*
X012206Y012072D01*
X012341Y012016D01*
X012487Y012016D01*
X012622Y012072D01*
X012726Y012175D01*
X012781Y012310D01*
X012781Y012456D01*
X012726Y012591D01*
X012622Y012695D01*
X012487Y012751D01*
X012319Y012742D02*
X011509Y012742D01*
X011487Y012751D02*
X011622Y012695D01*
X011726Y012591D01*
X011781Y012456D01*
X011781Y012310D01*
X011726Y012175D01*
X011622Y012072D01*
X011487Y012016D01*
X011341Y012016D01*
X011206Y012072D01*
X011102Y012175D01*
X011047Y012310D01*
X011047Y012456D01*
X011102Y012591D01*
X011206Y012695D01*
X011341Y012751D01*
X011487Y012751D01*
X011319Y012742D02*
X010608Y012742D01*
X010628Y012732D02*
X010570Y012761D01*
X010509Y012781D01*
X010446Y012791D01*
X010443Y012791D01*
X010443Y012412D01*
X010821Y012412D01*
X010821Y012415D01*
X010811Y012479D01*
X010792Y012540D01*
X010762Y012597D01*
X010725Y012649D01*
X010679Y012694D01*
X010628Y012732D01*
X010729Y012643D02*
X011154Y012643D01*
X011083Y012545D02*
X010789Y012545D01*
X010817Y012446D02*
X011047Y012446D01*
X011047Y012348D02*
X010821Y012348D01*
X010821Y012351D02*
X010821Y012355D01*
X010443Y012355D01*
X010443Y012412D01*
X010385Y012412D01*
X010385Y012355D01*
X010007Y012355D01*
X010007Y012351D01*
X010017Y012288D01*
X010036Y012227D01*
X010065Y012170D01*
X010103Y012118D01*
X010149Y012072D01*
X010200Y012035D01*
X010258Y012006D01*
X010319Y011986D01*
X010382Y011976D01*
X010385Y011976D01*
X010385Y012355D01*
X010443Y012355D01*
X010443Y011976D01*
X010446Y011976D01*
X010509Y011986D01*
X010570Y012006D01*
X010628Y012035D01*
X010679Y012072D01*
X010725Y012118D01*
X010762Y012170D01*
X010792Y012227D01*
X010811Y012288D01*
X010821Y012351D01*
X010799Y012249D02*
X011072Y012249D01*
X011127Y012151D02*
X010749Y012151D01*
X010652Y012052D02*
X011253Y012052D01*
X011575Y012052D02*
X012253Y012052D01*
X012127Y012151D02*
X011701Y012151D01*
X011756Y012249D02*
X012072Y012249D01*
X012047Y012348D02*
X011781Y012348D01*
X011781Y012446D02*
X012047Y012446D01*
X012083Y012545D02*
X011745Y012545D01*
X011674Y012643D02*
X012154Y012643D01*
X012674Y012643D02*
X014744Y012643D01*
X014670Y012545D02*
X012745Y012545D01*
X012781Y012446D02*
X014629Y012446D01*
X014625Y012348D02*
X012781Y012348D01*
X012756Y012249D02*
X014636Y012249D01*
X014677Y012151D02*
X012701Y012151D01*
X012575Y012052D02*
X014760Y012052D01*
X015304Y012052D02*
X015704Y012052D01*
X015635Y012151D02*
X015388Y012151D01*
X015428Y012249D02*
X015597Y012249D01*
X015984Y012446D02*
X016081Y012446D01*
X016081Y012545D02*
X015984Y012545D01*
X015984Y012643D02*
X016081Y012643D01*
X016081Y012742D02*
X015984Y012742D01*
X016259Y012742D02*
X016317Y012742D01*
X016317Y012840D02*
X005060Y012840D01*
X005060Y012742D02*
X010220Y012742D01*
X010200Y012732D02*
X010149Y012694D01*
X010103Y012649D01*
X010065Y012597D01*
X010036Y012540D01*
X010017Y012479D01*
X010007Y012415D01*
X010007Y012412D01*
X010385Y012412D01*
X010385Y012791D01*
X010382Y012791D01*
X010319Y012781D01*
X010258Y012761D01*
X010200Y012732D01*
X010099Y012643D02*
X005060Y012643D01*
X005060Y012545D02*
X010039Y012545D01*
X010011Y012446D02*
X005060Y012446D01*
X005060Y012348D02*
X010007Y012348D01*
X010029Y012249D02*
X005060Y012249D01*
X005060Y012151D02*
X010079Y012151D01*
X010176Y012052D02*
X005060Y012052D01*
X005060Y012939D02*
X016305Y012939D01*
X016207Y013037D02*
X005060Y013037D01*
X005060Y013136D02*
X014114Y013136D01*
X014147Y013102D02*
X014254Y013058D01*
X014369Y013058D01*
X014476Y013102D01*
X014557Y013184D01*
X014602Y013290D01*
X014602Y013406D01*
X014557Y013512D01*
X014476Y013594D01*
X014369Y013638D01*
X014254Y013638D01*
X014147Y013594D01*
X014066Y013512D01*
X014064Y013508D01*
X010389Y013508D01*
X010389Y013524D01*
X010345Y013630D01*
X010263Y013712D01*
X010157Y013756D01*
X010041Y013756D01*
X009935Y013712D01*
X009853Y013630D01*
X009809Y013524D01*
X009809Y013408D01*
X009853Y013302D01*
X009935Y013220D01*
X010041Y013176D01*
X010157Y013176D01*
X010185Y013188D01*
X014064Y013188D01*
X014066Y013184D01*
X014147Y013102D01*
X014312Y013348D02*
X010217Y013348D01*
X010099Y013466D01*
X009971Y013727D02*
X005060Y013727D01*
X005060Y013825D02*
X015419Y013825D01*
X015517Y013727D02*
X010227Y013727D01*
X010346Y013628D02*
X014231Y013628D01*
X014392Y013628D02*
X015616Y013628D01*
X015714Y013530D02*
X014540Y013530D01*
X014591Y013431D02*
X015813Y013431D01*
X015911Y013333D02*
X014602Y013333D01*
X014578Y013234D02*
X016010Y013234D01*
X016108Y013136D02*
X014510Y013136D01*
X014083Y013530D02*
X010386Y013530D01*
X009852Y013628D02*
X005060Y013628D01*
X005060Y013530D02*
X009812Y013530D01*
X009809Y013431D02*
X005060Y013431D01*
X005060Y013333D02*
X009840Y013333D01*
X009921Y013234D02*
X005060Y013234D01*
X005060Y013924D02*
X015320Y013924D01*
X015222Y014022D02*
X005060Y014022D01*
X005060Y014121D02*
X015123Y014121D01*
X015025Y014219D02*
X005060Y014219D01*
X005060Y014318D02*
X014926Y014318D01*
X014828Y014416D02*
X005060Y014416D01*
X005060Y014515D02*
X014729Y014515D01*
X014631Y014613D02*
X005060Y014613D01*
X005060Y014712D02*
X012603Y014712D01*
X012592Y014723D02*
X012631Y014684D01*
X013123Y014684D01*
X013152Y014672D01*
X013267Y014672D01*
X013296Y014684D01*
X014560Y014684D01*
X014493Y015210D02*
X014228Y015210D01*
X014228Y015566D01*
X014623Y015566D01*
X014623Y015340D01*
X014613Y015302D01*
X014593Y015268D01*
X014565Y015240D01*
X014531Y015220D01*
X014493Y015210D01*
X014613Y015303D02*
X015585Y015303D01*
X015487Y015401D02*
X014623Y015401D01*
X014623Y015500D02*
X015388Y015500D01*
X015290Y015598D02*
X014228Y015598D01*
X014228Y015500D02*
X014128Y015500D01*
X014128Y015598D02*
X013283Y015598D01*
X013283Y015558D02*
X013678Y015558D01*
X013678Y015332D01*
X013668Y015294D01*
X013648Y015260D01*
X013620Y015232D01*
X013586Y015212D01*
X013548Y015202D01*
X013283Y015202D01*
X013283Y015558D01*
X013283Y015500D02*
X013183Y015500D01*
X013209Y015584D02*
X013233Y015608D01*
X013209Y015584D02*
X013209Y014962D01*
X013183Y015204D02*
X013283Y015204D01*
X013283Y015303D02*
X013183Y015303D01*
X013183Y015401D02*
X013283Y015401D01*
X013183Y015598D02*
X012658Y015598D01*
X012658Y015500D02*
X012788Y015500D01*
X012788Y015401D02*
X012658Y015401D01*
X012658Y015303D02*
X012795Y015303D01*
X012909Y015204D02*
X012658Y015204D01*
X012658Y015106D02*
X015782Y015106D01*
X015684Y015204D02*
X013557Y015204D01*
X013670Y015303D02*
X013742Y015303D01*
X013732Y015401D02*
X013678Y015401D01*
X013678Y015500D02*
X013732Y015500D01*
X013732Y015697D02*
X013678Y015697D01*
X013678Y015795D02*
X013732Y015795D01*
X013733Y015894D02*
X013675Y015894D01*
X013605Y015992D02*
X013792Y015992D01*
X013732Y016189D02*
X013678Y016189D01*
X013678Y016288D02*
X013732Y016288D01*
X013732Y016485D02*
X013678Y016485D01*
X013678Y016583D02*
X013732Y016583D01*
X013745Y016682D02*
X013661Y016682D01*
X013283Y016682D02*
X013183Y016682D01*
X013183Y016583D02*
X013283Y016583D01*
X012805Y016682D02*
X005060Y016682D01*
X005060Y016780D02*
X015614Y016780D01*
X015712Y016682D02*
X014610Y016682D01*
X014623Y016583D02*
X015811Y016583D01*
X015909Y016485D02*
X014623Y016485D01*
X014228Y016583D02*
X014128Y016583D01*
X014128Y016682D02*
X014228Y016682D01*
X014564Y015992D02*
X014896Y015992D01*
X014994Y015894D02*
X014622Y015894D01*
X014623Y015795D02*
X015093Y015795D01*
X015191Y015697D02*
X014623Y015697D01*
X014228Y015401D02*
X014128Y015401D01*
X014128Y015303D02*
X014228Y015303D01*
X012788Y015697D02*
X012658Y015697D01*
X012658Y015795D02*
X012788Y015795D01*
X012790Y015894D02*
X012658Y015894D01*
X012658Y015992D02*
X012860Y015992D01*
X012498Y015992D02*
X005060Y015992D01*
X005060Y015894D02*
X012498Y015894D01*
X012498Y015795D02*
X005060Y015795D01*
X005060Y015697D02*
X012498Y015697D01*
X012498Y015598D02*
X005060Y015598D01*
X005060Y015500D02*
X012498Y015500D01*
X012498Y015401D02*
X005060Y015401D01*
X005060Y015303D02*
X012498Y015303D01*
X012498Y015204D02*
X005060Y015204D01*
X005060Y015106D02*
X012498Y015106D01*
X012498Y015007D02*
X005060Y015007D01*
X005060Y014909D02*
X012498Y014909D01*
X012498Y014817D02*
X012592Y014723D01*
X012505Y014810D02*
X005060Y014810D01*
X005060Y016485D02*
X012788Y016485D01*
X012788Y016583D02*
X005060Y016583D01*
X005060Y016879D02*
X015515Y016879D01*
X015417Y016977D02*
X005060Y016977D01*
X005060Y017076D02*
X007181Y017076D01*
X007114Y017174D02*
X005060Y017174D01*
X005060Y017273D02*
X007092Y017273D01*
X007104Y017371D02*
X005060Y017371D01*
X005060Y017470D02*
X007157Y017470D01*
X007309Y017568D02*
X005060Y017568D01*
X005060Y017667D02*
X014967Y017667D01*
X014972Y017568D02*
X007456Y017568D01*
X007608Y017470D02*
X015016Y017470D01*
X015257Y017639D02*
X016516Y017639D01*
X017107Y018230D01*
X017219Y017962D02*
X023839Y017962D01*
X023839Y017864D02*
X016967Y017864D01*
X016869Y017765D02*
X023839Y017765D01*
X023839Y017667D02*
X016770Y017667D01*
X016672Y017568D02*
X023839Y017568D01*
X023839Y017470D02*
X015497Y017470D01*
X015475Y017371D02*
X023839Y017371D01*
X023839Y017273D02*
X015574Y017273D01*
X015672Y017174D02*
X023839Y017174D01*
X023839Y017076D02*
X015771Y017076D01*
X015869Y016977D02*
X023839Y016977D01*
X023839Y016879D02*
X015968Y016879D01*
X016066Y016780D02*
X023839Y016780D01*
X023839Y016682D02*
X016165Y016682D01*
X016263Y016583D02*
X023839Y016583D01*
X023839Y016485D02*
X016362Y016485D01*
X016460Y016386D02*
X023839Y016386D01*
X023839Y016288D02*
X016742Y016288D01*
X016818Y016189D02*
X023839Y016189D01*
X023839Y016091D02*
X016846Y016091D01*
X016840Y015992D02*
X023839Y015992D01*
X023839Y015894D02*
X016795Y015894D01*
X016556Y016064D02*
X015335Y017285D01*
X007382Y017285D01*
X007584Y017076D02*
X015318Y017076D01*
X014995Y017765D02*
X005060Y017765D01*
X005060Y017864D02*
X015071Y017864D01*
X014909Y017984D02*
X014991Y018065D01*
X015035Y018172D01*
X015035Y018287D01*
X015033Y018292D01*
X015283Y018542D01*
X019167Y018542D01*
X019176Y018533D01*
X019140Y018445D01*
X019140Y018330D01*
X019184Y018223D01*
X019265Y018141D01*
X019372Y018097D01*
X019487Y018097D01*
X019594Y018141D01*
X019676Y018223D01*
X019720Y018330D01*
X019720Y018445D01*
X019676Y018551D01*
X019594Y018633D01*
X019487Y018677D01*
X019484Y018677D01*
X019393Y018768D01*
X019299Y018862D01*
X015151Y018862D01*
X014807Y018518D01*
X014802Y018520D01*
X014687Y018520D01*
X014580Y018476D01*
X014499Y018394D01*
X014455Y018287D01*
X014455Y018172D01*
X014499Y018065D01*
X014580Y017984D01*
X014687Y017940D01*
X014802Y017940D01*
X014909Y017984D01*
X014857Y017962D02*
X016613Y017962D01*
X016515Y017864D02*
X015442Y017864D01*
X014986Y018061D02*
X016712Y018061D01*
X016810Y018159D02*
X015029Y018159D01*
X015035Y018258D02*
X016817Y018258D01*
X016845Y018356D02*
X015097Y018356D01*
X015196Y018455D02*
X016922Y018455D01*
X017292Y018455D02*
X019144Y018455D01*
X019140Y018356D02*
X017368Y018356D01*
X017397Y018258D02*
X019169Y018258D01*
X019248Y018159D02*
X017392Y018159D01*
X017348Y018061D02*
X023839Y018061D01*
X023839Y018159D02*
X019612Y018159D01*
X019690Y018258D02*
X023839Y018258D01*
X023839Y018356D02*
X019720Y018356D01*
X019716Y018455D02*
X023839Y018455D01*
X023839Y018553D02*
X019674Y018553D01*
X019549Y018652D02*
X023839Y018652D01*
X023839Y018750D02*
X019411Y018750D01*
X019313Y018849D02*
X023839Y018849D01*
X023839Y018947D02*
X005060Y018947D01*
X005060Y018849D02*
X015137Y018849D01*
X015039Y018750D02*
X005060Y018750D01*
X005060Y018652D02*
X014940Y018652D01*
X014842Y018553D02*
X005060Y018553D01*
X005060Y018455D02*
X014560Y018455D01*
X014483Y018356D02*
X005060Y018356D01*
X005060Y018258D02*
X014455Y018258D01*
X014460Y018159D02*
X005060Y018159D01*
X005060Y018061D02*
X014504Y018061D01*
X014633Y017962D02*
X005060Y017962D01*
X005060Y019046D02*
X023839Y019046D01*
X023839Y019144D02*
X005060Y019144D01*
X005060Y019243D02*
X023839Y019243D01*
X023839Y019341D02*
X005060Y019341D01*
X005060Y019440D02*
X023839Y019440D01*
X023839Y019538D02*
X005060Y019538D01*
X005060Y019637D02*
X023839Y019637D01*
X023839Y019735D02*
X005060Y019735D01*
X005060Y019834D02*
X023839Y019834D01*
X023839Y019932D02*
X005060Y019932D01*
X005060Y020031D02*
X023839Y020031D01*
X023839Y020129D02*
X005060Y020129D01*
X005060Y020228D02*
X023839Y020228D01*
X023839Y020326D02*
X005060Y020326D01*
X005060Y020425D02*
X023839Y020425D01*
X023839Y020523D02*
X005060Y020523D01*
X005060Y020622D02*
X023839Y020622D01*
X023839Y020720D02*
X005060Y020720D01*
X005060Y020819D02*
X023839Y020819D01*
X023839Y020917D02*
X005060Y020917D01*
X005060Y021016D02*
X023839Y021016D01*
X023839Y021114D02*
X005060Y021114D01*
X005060Y021213D02*
X023839Y021213D01*
X023839Y021311D02*
X005060Y021311D01*
X005060Y021410D02*
X023839Y021410D01*
X023839Y021508D02*
X005060Y021508D01*
X005060Y021607D02*
X023839Y021607D01*
X023839Y021705D02*
X005060Y021705D01*
X005060Y021804D02*
X023839Y021804D01*
X023839Y021902D02*
X005060Y021902D01*
X005060Y022001D02*
X023839Y022001D01*
X023839Y022099D02*
X005060Y022099D01*
X005060Y022198D02*
X022643Y022198D01*
X022659Y022188D02*
X022697Y022178D01*
X023021Y022178D01*
X023021Y022632D01*
X023121Y022632D01*
X023121Y022178D01*
X023446Y022178D01*
X023484Y022188D01*
X023518Y022208D01*
X023546Y022236D01*
X023566Y022270D01*
X023576Y022308D01*
X023576Y022632D01*
X023121Y022632D01*
X023121Y022732D01*
X023021Y022732D01*
X023021Y022632D01*
X022567Y022632D01*
X022567Y022308D01*
X022577Y022270D01*
X022597Y022236D01*
X022625Y022208D01*
X022659Y022188D01*
X022570Y022296D02*
X005060Y022296D01*
X005060Y022395D02*
X022567Y022395D01*
X022567Y022493D02*
X005060Y022493D01*
X005060Y022592D02*
X006168Y022592D01*
X006154Y022605D02*
X006219Y022541D01*
X007019Y022541D01*
X007083Y022605D01*
X007083Y023405D01*
X007019Y023470D01*
X006219Y023470D01*
X006154Y023405D01*
X006154Y022605D01*
X006154Y022690D02*
X005060Y022690D01*
X005060Y022789D02*
X006154Y022789D01*
X006154Y022887D02*
X005060Y022887D01*
X005060Y022986D02*
X006154Y022986D01*
X006154Y023084D02*
X005060Y023084D01*
X005060Y023183D02*
X006154Y023183D01*
X006154Y023281D02*
X005060Y023281D01*
X005060Y023380D02*
X006154Y023380D01*
X006356Y023612D02*
X006526Y023541D01*
X006711Y023541D01*
X006882Y023612D01*
X007012Y023742D01*
X007083Y023913D01*
X007083Y024098D01*
X007012Y024268D01*
X006882Y024399D01*
X006711Y024470D01*
X006526Y024470D01*
X006356Y024399D01*
X006225Y024268D01*
X006154Y024098D01*
X006154Y023913D01*
X006225Y023742D01*
X006356Y023612D01*
X006292Y023675D02*
X005060Y023675D01*
X005060Y023577D02*
X006440Y023577D01*
X006212Y023774D02*
X005060Y023774D01*
X005060Y023872D02*
X006171Y023872D01*
X006154Y023971D02*
X005060Y023971D01*
X005060Y024069D02*
X006154Y024069D01*
X006183Y024168D02*
X005060Y024168D01*
X005060Y024266D02*
X006224Y024266D01*
X006321Y024365D02*
X005060Y024365D01*
X005060Y024463D02*
X006511Y024463D01*
X006726Y024463D02*
X013809Y024463D01*
X013853Y024481D02*
X013682Y024411D01*
X013552Y024280D01*
X013481Y024109D01*
X013481Y023925D01*
X013552Y023754D01*
X013682Y023623D01*
X013853Y023553D01*
X014038Y023553D01*
X014209Y023623D01*
X014339Y023754D01*
X014410Y023925D01*
X014410Y024109D01*
X014339Y024280D01*
X014209Y024411D01*
X014038Y024481D01*
X013853Y024481D01*
X014082Y024463D02*
X020150Y024463D01*
X020150Y024294D01*
X020215Y024138D01*
X020335Y024018D01*
X020491Y023954D01*
X020660Y023954D01*
X020816Y024018D01*
X020936Y024138D01*
X021000Y024294D01*
X021000Y024463D01*
X020936Y024619D01*
X020816Y024739D01*
X020660Y024804D01*
X020491Y024804D01*
X020335Y024739D01*
X020215Y024619D01*
X020150Y024463D01*
X020150Y024365D02*
X014255Y024365D01*
X014345Y024266D02*
X020162Y024266D01*
X020203Y024168D02*
X014386Y024168D01*
X014410Y024069D02*
X020284Y024069D01*
X020449Y023971D02*
X014410Y023971D01*
X014388Y023872D02*
X022647Y023872D01*
X022678Y023946D02*
X022607Y023775D01*
X022607Y023590D01*
X022678Y023419D01*
X022808Y023289D01*
X022979Y023218D01*
X023164Y023218D01*
X023334Y023289D01*
X023465Y023419D01*
X023536Y023590D01*
X023536Y023775D01*
X023465Y023946D01*
X023334Y024076D01*
X023164Y024147D01*
X022979Y024147D01*
X022808Y024076D01*
X022678Y023946D01*
X022703Y023971D02*
X020701Y023971D01*
X020867Y024069D02*
X022802Y024069D01*
X022607Y023774D02*
X018627Y023774D01*
X018610Y023791D02*
X018503Y023835D01*
X018388Y023835D01*
X018281Y023791D01*
X018200Y023709D01*
X018155Y023602D01*
X018155Y023487D01*
X018157Y023483D01*
X017789Y023114D01*
X017118Y023114D01*
X017117Y023118D01*
X017035Y023200D01*
X016928Y023244D01*
X016813Y023244D01*
X016706Y023200D01*
X016625Y023118D01*
X016581Y023012D01*
X016581Y022896D01*
X016625Y022790D01*
X016706Y022708D01*
X016813Y022664D01*
X016928Y022664D01*
X017035Y022708D01*
X017117Y022790D01*
X017118Y022794D01*
X017921Y022794D01*
X018384Y023256D01*
X018388Y023255D01*
X018503Y023255D01*
X018610Y023299D01*
X018691Y023380D01*
X020319Y023380D01*
X020383Y023444D02*
X020110Y023171D01*
X020110Y023009D01*
X020545Y023009D01*
X020545Y023444D01*
X020383Y023444D01*
X020545Y023380D02*
X020605Y023380D01*
X020605Y023444D02*
X020605Y023009D01*
X020545Y023009D01*
X020545Y022949D01*
X020110Y022949D01*
X020110Y022786D01*
X020383Y022514D01*
X020545Y022514D01*
X020545Y022949D01*
X020605Y022949D01*
X020605Y023009D01*
X021040Y023009D01*
X021040Y023171D01*
X020768Y023444D01*
X020605Y023444D01*
X020605Y023281D02*
X020545Y023281D01*
X020545Y023183D02*
X020605Y023183D01*
X020605Y023084D02*
X020545Y023084D01*
X020545Y022986D02*
X018113Y022986D01*
X018211Y023084D02*
X020110Y023084D01*
X020122Y023183D02*
X018310Y023183D01*
X018567Y023281D02*
X020221Y023281D01*
X020110Y022887D02*
X018014Y022887D01*
X017855Y022954D02*
X018445Y023545D01*
X018186Y023675D02*
X014260Y023675D01*
X014347Y023774D02*
X018264Y023774D01*
X018155Y023577D02*
X014096Y023577D01*
X014345Y023481D02*
X014410Y023417D01*
X014410Y022617D01*
X014345Y022553D01*
X013546Y022553D01*
X013481Y022617D01*
X013481Y023417D01*
X013546Y023481D01*
X014345Y023481D01*
X014349Y023478D02*
X018153Y023478D01*
X018054Y023380D02*
X014410Y023380D01*
X014410Y023281D02*
X017956Y023281D01*
X017857Y023183D02*
X017052Y023183D01*
X016871Y022954D02*
X017855Y022954D01*
X017115Y022789D02*
X020110Y022789D01*
X020206Y022690D02*
X016991Y022690D01*
X016750Y022690D02*
X014410Y022690D01*
X014410Y022789D02*
X016626Y022789D01*
X016584Y022887D02*
X014410Y022887D01*
X014410Y022986D02*
X016581Y022986D01*
X016611Y023084D02*
X014410Y023084D01*
X014410Y023183D02*
X016689Y023183D01*
X018691Y023380D02*
X018735Y023487D01*
X018735Y023602D01*
X018691Y023709D01*
X018610Y023791D01*
X018705Y023675D02*
X022607Y023675D01*
X022613Y023577D02*
X018735Y023577D01*
X018732Y023478D02*
X022653Y023478D01*
X022718Y023380D02*
X020832Y023380D01*
X020930Y023281D02*
X022827Y023281D01*
X022697Y023187D02*
X022659Y023177D01*
X022625Y023157D01*
X022597Y023129D01*
X022577Y023095D01*
X022567Y023057D01*
X022567Y022732D01*
X023021Y022732D01*
X023021Y023187D01*
X022697Y023187D01*
X022682Y023183D02*
X021029Y023183D01*
X021040Y023084D02*
X022575Y023084D01*
X022567Y022986D02*
X020605Y022986D01*
X020605Y022949D02*
X021040Y022949D01*
X021040Y022786D01*
X020768Y022514D01*
X020605Y022514D01*
X020605Y022949D01*
X020605Y022887D02*
X020545Y022887D01*
X020545Y022789D02*
X020605Y022789D01*
X020605Y022690D02*
X020545Y022690D01*
X020545Y022592D02*
X020605Y022592D01*
X020846Y022592D02*
X022567Y022592D01*
X022567Y022789D02*
X021040Y022789D01*
X021040Y022887D02*
X022567Y022887D01*
X023021Y022887D02*
X023121Y022887D01*
X023121Y022789D02*
X023021Y022789D01*
X023021Y022690D02*
X020945Y022690D01*
X020305Y022592D02*
X014384Y022592D01*
X013507Y022592D02*
X007069Y022592D01*
X007083Y022690D02*
X013481Y022690D01*
X013481Y022789D02*
X007083Y022789D01*
X007083Y022887D02*
X013481Y022887D01*
X013481Y022986D02*
X009596Y022986D01*
X009594Y022984D02*
X009676Y023065D01*
X009677Y023070D01*
X011031Y023070D01*
X011100Y023138D01*
X011104Y023137D01*
X011220Y023137D01*
X011326Y023181D01*
X011408Y023262D01*
X011452Y023369D01*
X011452Y023484D01*
X011408Y023591D01*
X011326Y023672D01*
X011220Y023717D01*
X011104Y023717D01*
X010998Y023672D01*
X010916Y023591D01*
X010872Y023484D01*
X010872Y023390D01*
X009677Y023390D01*
X009676Y023394D01*
X009594Y023476D01*
X009487Y023520D01*
X009372Y023520D01*
X009265Y023476D01*
X009184Y023394D01*
X009140Y023287D01*
X009140Y023172D01*
X009184Y023065D01*
X009265Y022984D01*
X009372Y022940D01*
X009487Y022940D01*
X009594Y022984D01*
X009430Y023230D02*
X010965Y023230D01*
X011162Y023427D01*
X011416Y023281D02*
X013481Y023281D01*
X013481Y023183D02*
X011328Y023183D01*
X011452Y023380D02*
X013481Y023380D01*
X013542Y023478D02*
X011452Y023478D01*
X011414Y023577D02*
X013795Y023577D01*
X013631Y023675D02*
X011319Y023675D01*
X011005Y023675D02*
X006945Y023675D01*
X007025Y023774D02*
X013544Y023774D01*
X013503Y023872D02*
X007066Y023872D01*
X007083Y023971D02*
X013481Y023971D01*
X013481Y024069D02*
X007083Y024069D01*
X007054Y024168D02*
X013505Y024168D01*
X013546Y024266D02*
X007013Y024266D01*
X006916Y024365D02*
X013636Y024365D01*
X013481Y023084D02*
X011046Y023084D01*
X010872Y023478D02*
X009588Y023478D01*
X009272Y023478D02*
X005060Y023478D01*
X005060Y024562D02*
X020191Y024562D01*
X020256Y024660D02*
X005060Y024660D01*
X005060Y024759D02*
X020383Y024759D01*
X020768Y024759D02*
X023799Y024759D01*
X023797Y024857D02*
X005060Y024857D01*
X005060Y024956D02*
X023795Y024956D01*
X023793Y025054D02*
X005060Y025054D01*
X005060Y025153D02*
X023791Y025153D01*
X023788Y025251D02*
X005060Y025251D01*
X005060Y025350D02*
X023786Y025350D01*
X023784Y025448D02*
X005060Y025448D01*
X005060Y025547D02*
X023782Y025547D01*
X023780Y025645D02*
X005060Y025645D01*
X005060Y025744D02*
X023778Y025744D01*
X023776Y025842D02*
X005060Y025842D01*
X005060Y025941D02*
X023773Y025941D01*
X023771Y026039D02*
X005060Y026039D01*
X005060Y026138D02*
X023769Y026138D01*
X023767Y026236D02*
X005060Y026236D01*
X005060Y026335D02*
X023765Y026335D01*
X023763Y026433D02*
X005060Y026433D01*
X005060Y026532D02*
X023761Y026532D01*
X023801Y024660D02*
X020895Y024660D01*
X020960Y024562D02*
X023803Y024562D01*
X023806Y024463D02*
X021000Y024463D01*
X021000Y024365D02*
X023808Y024365D01*
X023810Y024266D02*
X020989Y024266D01*
X020948Y024168D02*
X023812Y024168D01*
X023814Y024069D02*
X023341Y024069D01*
X023440Y023971D02*
X023816Y023971D01*
X023818Y023872D02*
X023495Y023872D01*
X023536Y023774D02*
X023821Y023774D01*
X023823Y023675D02*
X023536Y023675D01*
X023530Y023577D02*
X023825Y023577D01*
X023827Y023478D02*
X023489Y023478D01*
X023425Y023380D02*
X023829Y023380D01*
X023831Y023281D02*
X023316Y023281D01*
X023446Y023187D02*
X023121Y023187D01*
X023121Y022732D01*
X023576Y022732D01*
X023576Y023057D01*
X023566Y023095D01*
X023546Y023129D01*
X023518Y023157D01*
X023484Y023177D01*
X023446Y023187D01*
X023461Y023183D02*
X023833Y023183D01*
X023835Y023084D02*
X023568Y023084D01*
X023576Y022986D02*
X023838Y022986D01*
X023839Y022887D02*
X023576Y022887D01*
X023576Y022789D02*
X023839Y022789D01*
X023839Y022690D02*
X023121Y022690D01*
X023121Y022592D02*
X023021Y022592D01*
X023021Y022493D02*
X023121Y022493D01*
X023121Y022395D02*
X023021Y022395D01*
X023021Y022296D02*
X023121Y022296D01*
X023121Y022198D02*
X023021Y022198D01*
X023500Y022198D02*
X023839Y022198D01*
X023839Y022296D02*
X023573Y022296D01*
X023576Y022395D02*
X023839Y022395D01*
X023839Y022493D02*
X023576Y022493D01*
X023576Y022592D02*
X023839Y022592D01*
X023121Y022986D02*
X023021Y022986D01*
X023021Y023084D02*
X023121Y023084D01*
X023121Y023183D02*
X023021Y023183D01*
X019233Y018702D02*
X015217Y018702D01*
X014745Y018230D01*
X012498Y016091D02*
X012498Y014817D01*
X012658Y014909D02*
X015979Y014909D01*
X015881Y015007D02*
X012658Y015007D01*
X010443Y012742D02*
X010385Y012742D01*
X010385Y012643D02*
X010443Y012643D01*
X010443Y012545D02*
X010385Y012545D01*
X010385Y012446D02*
X010443Y012446D01*
X010443Y012348D02*
X010385Y012348D01*
X010385Y012249D02*
X010443Y012249D01*
X010443Y012151D02*
X010385Y012151D01*
X010385Y012052D02*
X010443Y012052D01*
X019233Y018702D02*
X019430Y018505D01*
X019430Y018387D01*
X022522Y010673D02*
X023839Y010673D01*
X023839Y010575D02*
X022600Y010575D01*
X022644Y010476D02*
X023839Y010476D01*
X023839Y010378D02*
X022667Y010378D01*
X020127Y009780D02*
X020126Y009780D01*
X019951Y010181D02*
X019932Y010181D01*
X019932Y010279D02*
X019951Y010279D01*
X019951Y010378D02*
X019932Y010378D01*
X019932Y010476D02*
X019951Y010476D01*
X009264Y022986D02*
X007083Y022986D01*
X007083Y023084D02*
X009176Y023084D01*
X009140Y023183D02*
X007083Y023183D01*
X007083Y023281D02*
X009140Y023281D01*
X009178Y023380D02*
X007083Y023380D01*
X006797Y023577D02*
X010910Y023577D01*
D11*
X013233Y016356D03*
X013233Y015608D03*
X014178Y015616D03*
X014178Y016364D03*
D12*
X015032Y012356D03*
X016032Y012356D03*
X017032Y012356D03*
D13*
X019942Y010116D03*
X013406Y010151D03*
D14*
X013406Y009537D03*
X019942Y009501D03*
D15*
X022166Y009316D03*
X023071Y022682D03*
X013945Y023017D03*
X006619Y023005D03*
D16*
X006619Y024005D03*
X013945Y024017D03*
X023071Y023682D03*
X022166Y010316D03*
D17*
X020575Y022979D03*
D18*
X020575Y024379D03*
D19*
X012414Y012383D03*
X011414Y012383D03*
X010414Y012383D03*
D20*
X010099Y013466D03*
X010926Y014411D03*
X012107Y014017D03*
X013209Y014962D03*
X014312Y013348D03*
X015257Y013623D03*
X013682Y011655D03*
X010926Y011261D03*
X010926Y016379D03*
X010926Y018348D03*
X012501Y018348D03*
X012894Y019923D03*
X012894Y021891D03*
X014469Y021891D03*
X016438Y020316D03*
X016044Y018348D03*
X015257Y017639D03*
X014745Y018230D03*
X016556Y016064D03*
X018406Y015592D03*
X018406Y013623D03*
X016871Y010159D03*
X016871Y009686D03*
X018406Y017954D03*
X019430Y018387D03*
X020375Y020316D03*
X020375Y021891D03*
X018406Y021891D03*
X018406Y020316D03*
X017107Y018230D03*
X016871Y022954D03*
X018445Y023545D03*
X011162Y023427D03*
X009430Y023230D03*
X008957Y020316D03*
X008957Y018348D03*
X007382Y017285D03*
X006595Y018348D03*
X006595Y020316D03*
X006595Y021891D03*
D21*
X013233Y015608D02*
X013241Y015616D01*
X014178Y015616D01*
M02*
